<svg width="116" height="110" viewBox="0 0 116 110" fill="none" xmlns="http://www.w3.org/2000/svg">
<path fill-rule="evenodd" clip-rule="evenodd" d="M16.6306 4.17795C18.4977 2.21996 19.9951 1.2515 22.3567 0.474457C23.6122 0.0611466 24.6593 -0.0430954 26.9717 0.0147246C29.7606 0.0845046 30.1136 0.161413 32.1995 1.15379C35.9919 2.95824 38.7032 6.26324 39.6354 10.2185C40.8246 15.2642 39.5587 19.8031 35.9387 23.4732C31.6823 27.7881 26.0632 28.7272 20.4204 26.0665C16.7166 24.3197 14.0571 20.6699 13.1126 16.0367C12.2427 11.7706 13.531 7.42795 16.6306 4.17795ZM80.1748 9.79924C82.0475 6.32932 86.214 3.38923 90.0738 2.81441C94.4799 2.15843 98.8768 3.53706 102.1 6.5854C104.656 9.00197 105.987 11.7877 106.462 15.7128C106.977 19.9634 109.241 23.2183 112.481 24.3689C114.014 24.9125 114.061 25.1403 113.079 27.2164C111.215 31.1587 104.622 32.0118 101.467 28.7191L100.681 27.8982L99.3602 28.7024C91.5828 33.4353 81.2803 29.188 78.9636 20.2936C78.0855 16.9216 78.5625 12.7866 80.1748 9.79924ZM53.5433 25.1532C60.3933 18.5293 60.7917 18.1903 62.118 17.8608C65.7437 16.9592 68.9545 20.1987 67.9855 23.7808C67.6598 24.9851 67.1148 25.6388 63.4023 29.278C61.0849 31.5496 57.2143 35.363 54.8008 37.7519L50.4132 42.0957H40.0743V48.3623H0.196786V46.4139C0.196786 43.8783 1.10913 40.3641 2.267 38.4408C3.47357 36.436 6.2203 33.89 8.23183 32.9113C11.5183 31.3126 11.949 31.2808 30.3287 31.276L47.2156 31.272L53.5433 25.1532ZM94.915 43.4487C98.7004 37.9892 100.53 35.4259 101.087 34.8022C101.567 34.2638 101.775 34.2284 103.106 34.4596C105.396 34.8566 109.081 36.7382 110.855 38.4164C113.571 40.9855 115.272 44.4404 115.272 47.3906V48.6469H69.3362L69.4765 46.6848C69.7801 42.4426 73.1371 37.9653 77.5193 35.9578C79.389 35.1013 81.8699 34.405 83.0534 34.405C83.3913 34.405 85.0454 36.4675 87.9529 40.5146C90.3671 43.8752 92.4212 46.6309 92.5178 46.6385C92.6141 46.6467 93.693 45.2114 94.915 43.4487ZM92.4657 40.3867C92.2706 40.3867 90.1598 37.6743 88.5317 35.3307L87.8886 34.405H92.3398C95.82 34.405 96.7462 34.4828 96.5865 34.7612C95.9332 35.8987 92.6457 40.3867 92.4657 40.3867ZM37.226 58.3743C37.226 57.0721 38.0465 55.8827 39.3379 55.3141C40.0617 54.9949 44.889 54.939 66.7068 54.9958L93.1967 55.0644L95.467 55.7216C106.386 58.8811 113.933 67.7317 115.318 79.0023C115.928 83.9712 114.872 89.6294 112.422 94.5062C109.521 100.282 104.365 104.939 98.0575 107.483C97.1418 107.852 96.4594 108.151 95.7575 108.393C92.5766 109.491 88.9963 109.43 61.5155 109.523C32.8115 109.619 30.2162 109.701 29.4443 108.556C29.3205 108.371 29.2436 108.156 29.1127 107.903C28.0445 105.837 29.1055 103.57 31.3866 103.043C32.0134 102.898 34.6554 102.777 37.2584 102.773C41.9875 102.766 41.9909 102.766 42.7416 102.016C43.7264 101.03 43.769 99.4454 42.8372 98.4398L42.1817 97.7329L29.0324 97.5563C14.633 97.3628 14.6136 97.3605 13.7315 95.655C12.8513 93.9529 13.4469 92.0582 15.1101 91.269C15.9806 90.856 17.8178 90.8032 31.3539 90.8032H46.6165L47.5325 89.9848C48.7487 88.8979 48.8042 87.4401 47.6724 86.3093L46.896 85.5336H42.0836C37.6457 85.5336 37.2081 85.4874 36.4651 84.9372C34.8589 83.7485 34.7488 81.4722 36.2265 79.995C36.8648 79.3564 37.2356 79.2657 39.7594 79.132C42.8977 78.9655 43.5112 78.6576 44.0677 76.9715C44.3169 76.2157 44.2898 75.8534 43.933 75.163C43.3826 74.0988 42.6978 73.7129 41.3607 73.7129C38.6348 73.7129 37.0146 71.2071 38.2256 68.8649C38.9948 67.378 39.3385 67.3151 47.5454 67.1617L55.1592 67.0191L55.855 66.307C56.8642 65.2746 56.9481 63.6734 56.0508 62.5645C55.5075 61.8926 55.5009 61.8921 47.341 61.7496L39.175 61.6072L38.2004 60.5433C37.4411 59.7145 37.226 59.235 37.226 58.3743ZM23.8384 58.3819C23.8384 57.3441 24.0006 56.9731 24.807 56.1667L25.7753 55.1984H28.6743C31.4983 55.1984 31.5944 55.2198 32.4055 56.0309C33.0971 56.7225 33.2383 57.0976 33.2383 58.2464C33.2383 60.7758 31.9316 61.7496 28.5382 61.7496C25.2108 61.7496 23.8384 60.7664 23.8384 58.3819ZM70.9999 76.3186C73.0259 70.1892 78.1398 65.3831 84.2243 63.8906C86.3514 63.3686 90.5202 63.3732 92.7544 63.8998C94.8361 64.3907 97.9049 65.814 98.6458 66.6328C99.1231 67.1606 99.0906 67.2251 97.7571 68.3984L96.3731 69.6167L94.8404 68.7864C87.2665 64.6841 77.691 68.7609 74.6472 77.3837C73.8239 79.7153 73.7202 83.8665 74.4244 86.2652C75.7985 90.9435 79.1499 94.529 83.6241 96.1086C85.9506 96.9299 89.8525 97.0283 92.2194 96.3256C100.043 94.0028 104.541 86.3396 102.483 78.8401C102.203 77.8217 101.887 76.7927 101.781 76.5534C101.644 76.2462 102.019 75.7892 103.051 75.0015C104.437 73.9445 104.536 73.913 104.9 74.4101C105.111 74.699 105.576 75.782 105.934 76.8166C106.888 79.5766 106.873 84.9375 105.903 87.8996C104.986 90.6972 103.55 92.9912 101.271 95.2959C99.1448 97.4471 97.0942 98.7863 94.2627 99.873C92.546 100.532 91.9345 100.611 88.4969 100.62C85.2116 100.629 84.3768 100.535 82.7645 99.9779C77.8161 98.2675 74.0188 94.8191 71.77 89.9934C69.7397 85.6369 69.4744 80.9322 70.9999 76.3186ZM14.4388 70.7364C14.4388 69.3174 15.0799 68.192 16.2042 67.6381C16.9975 67.2469 18.2861 67.1736 24.4409 67.1682C31.4137 67.1619 31.7708 67.1881 32.4932 67.7563C33.3188 68.4059 34.0927 69.7099 34.0927 70.4513C34.0927 71.3486 33.1566 72.886 32.3595 73.2981C31.7162 73.6308 30.0547 73.7129 23.9666 73.7129H16.3757L15.4072 72.7446C14.6595 71.9968 14.4388 71.5389 14.4388 70.7364ZM2.39206 73.1386C0.33751 71.5227 0.982944 68.2426 3.51318 67.4402C3.96065 67.2984 5.26893 67.2127 6.42024 67.2501C8.44943 67.316 8.54429 67.3514 9.5159 68.4115C10.4317 69.4108 10.5051 69.6178 10.3701 70.8165C10.257 71.8179 10.0124 72.3153 9.33529 72.9205C8.49902 73.6673 8.29536 73.7129 5.78507 73.7129C3.54651 73.7129 3.0056 73.6215 2.39206 73.1386ZM92.0267 76.3154C94.08 74.7705 96.6508 72.9157 97.7389 72.194C98.827 71.4717 99.7666 70.9306 99.8271 70.991C99.8873 71.051 98.8779 72.5537 97.5837 74.3293C96.2896 76.1052 94.2269 79.0244 92.9994 80.8165C91.7721 82.6083 90.4174 84.3061 89.9888 84.5885C87.9883 85.9076 85.3837 84.5373 85.37 82.1583C85.3652 81.2865 85.5619 80.8636 86.3322 80.0933C86.8648 79.5606 87.5241 79.1248 87.7968 79.1248C88.0697 79.1248 89.973 77.8607 92.0267 76.3154ZM49.0869 76.2477C49.1119 75.2988 49.2896 74.8788 49.8822 74.3693C50.5828 73.7666 50.9119 73.7129 53.9177 73.7129C57.0129 73.7129 57.2285 73.7508 57.8896 74.4121C58.8909 75.4134 58.8735 77.3336 57.8544 78.292C57.1874 78.9193 56.8387 78.9912 54.0411 79.0781C50.9671 79.1733 50.9599 79.1721 50.0083 78.3215C49.192 77.5921 49.0596 77.2946 49.0869 76.2477ZM22.1294 82.3753C22.1294 81.0923 22.9051 79.8258 23.949 79.404C24.2799 79.2705 25.4862 79.1527 26.63 79.1428C29.8151 79.1151 31.2443 80.124 31.2443 82.4006C31.2443 84.5951 29.7403 85.6762 26.6868 85.6762C23.6212 85.6762 22.1294 84.5957 22.1294 82.3753ZM0.202775 95.3753C-0.451215 93.7964 0.546867 91.6019 2.19067 91.0037C2.42566 90.9182 3.68806 90.8379 4.99634 90.8258C7.33372 90.8034 7.39154 90.8201 8.34319 91.7718C9.12593 92.5545 9.31165 92.9616 9.31165 93.8945C9.31165 96.5839 8.24466 97.3546 4.52208 97.3546C1.68822 97.3546 0.866735 96.9784 0.202775 95.3753ZM49.3187 102.067C48.3581 101.107 48.3576 99.4291 49.3178 98.3931C50.0142 97.642 50.0317 97.6393 54.3246 97.6393H58.6326L59.4654 98.4721C60.0336 99.0403 60.2979 99.5899 60.2979 100.203C60.2979 100.816 60.0336 101.366 59.4654 101.934L58.6326 102.767H54.3251C50.1317 102.767 49.9993 102.748 49.3187 102.067ZM15.2933 106.294C15.2933 105.189 15.442 104.84 16.2617 104.02L17.2302 103.051H22.9249L23.8089 104.058C25.3905 105.859 24.8591 108.423 22.7206 109.309C22.1884 109.53 20.9445 109.624 19.4118 109.561C17.0519 109.464 16.9228 109.424 16.1245 108.53C15.4622 107.789 15.2933 107.334 15.2933 106.294Z" fill="#4ADE80"/>
</svg>
