<svg width="378" height="366" viewBox="0 0 378 366" fill="none" xmlns="http://www.w3.org/2000/svg">
<path d="M206.793 308.526H104.754C90.3305 308.526 78.5956 296.792 78.5956 282.368V247.903C78.5956 241.684 83.6373 236.642 89.8565 236.642C96.0758 236.642 101.118 241.684 101.118 247.903V282.368C101.118 284.372 102.748 286.004 104.754 286.004H206.793C213.012 286.004 218.054 291.046 218.054 297.265C218.054 303.484 213.012 308.526 206.793 308.526Z" fill="#065F46"/>
<path d="M302.282 254.962L256.97 299.052V347.869C256.97 353.801 264.132 356.783 268.343 352.605L366.738 254.963L268.343 157.321C264.132 153.143 256.97 156.125 256.97 162.057V210.874L302.282 254.962Z" fill="#A3E635"/>
<path d="M374.67 246.969L276.274 149.327C272.883 145.962 268.415 144.11 263.69 144.11C253.776 144.11 245.71 152.16 245.71 162.057V201.399H173.303C167.084 201.399 162.042 206.44 162.042 212.66C162.042 218.879 167.084 223.921 173.303 223.921H254.233L286.136 254.962L249.119 290.98C246.941 293.099 245.712 296.01 245.712 299.051V347.868C245.712 357.763 253.778 365.813 263.692 365.815H263.693C268.417 365.815 272.886 363.961 276.277 360.597L374.672 262.955C376.802 260.841 378.001 257.963 378.001 254.961C378 251.961 376.8 249.083 374.67 246.969ZM268.231 336.851V303.807L310.134 263.033C312.313 260.914 313.542 258.003 313.542 254.962C313.542 251.922 312.314 249.012 310.134 246.891L268.231 206.118V173.074L350.75 254.962L268.231 336.851Z" fill="#065F46"/>
<path d="M288.141 129.172C281.922 129.172 276.88 124.13 276.88 117.911V83.4461C276.88 81.4417 275.249 79.8101 273.244 79.8101H171.205C164.985 79.8101 159.944 74.7684 159.944 68.5492C159.944 62.3299 164.985 57.2882 171.205 57.2882H273.244C287.667 57.2882 299.402 69.0224 299.402 83.4461V117.911C299.402 124.13 294.36 129.172 288.141 129.172Z" fill="#065F46"/>
<path d="M75.7164 110.853L121.028 66.7632V17.9467C121.028 12.0147 113.866 9.03277 109.656 13.2107L11.261 110.853L109.656 208.496C113.866 212.674 121.028 209.692 121.028 203.76V154.942L75.7164 110.853Z" fill="#A3E635"/>
<path d="M204.695 141.896H123.765L91.8625 110.854L128.879 74.8356C131.058 72.716 132.287 69.8057 132.287 66.7647V17.9468C132.287 8.05093 124.221 0 114.307 0C109.582 0 105.114 1.85382 101.723 5.21741L3.3289 102.86C1.19823 104.974 0 107.852 0 110.853C0 113.854 1.19823 116.733 3.3289 118.847L101.724 216.489C105.114 219.853 109.583 221.706 114.308 221.706C118.902 221.706 123.282 219.978 126.643 216.838C130.283 213.436 132.289 208.791 132.289 203.76V164.418H204.696C210.915 164.418 215.957 159.376 215.957 153.157C215.957 146.937 210.915 141.896 204.695 141.896ZM109.767 192.741L27.2484 110.853L109.767 28.9649V62.0087L67.864 102.782C65.6854 104.902 64.4561 107.812 64.4561 110.853C64.4561 113.894 65.6846 116.804 67.864 118.924L109.767 159.698V192.741Z" fill="#065F46"/>
</svg>
