<svg width="168" height="169" viewBox="0 0 168 169" fill="none" xmlns="http://www.w3.org/2000/svg">
<path fill-rule="evenodd" clip-rule="evenodd" d="M54.7339 52.4378C55.2315 52.7417 55.7985 52.8981 56.3744 52.8981C56.673 52.8981 56.9716 52.8555 57.2631 52.7701C58.1162 52.516 58.8254 51.9188 59.2164 51.1154L72.6427 23.1325H92.2933L103.347 41.882L93.7436 39.5927C92.128 39.2035 90.4999 40.149 90.0129 41.7202C89.8423 42.2588 89.8138 42.8489 89.9631 43.4354L93.4806 57.1833C93.7578 58.2622 94.5879 59.1154 95.6614 59.4211L131.552 69.728C131.836 69.8133 132.128 69.8489 132.419 69.8489C132.986 69.8489 133.555 69.6925 134.038 69.4028C134.792 68.9549 135.316 68.2013 135.487 67.3481L142.442 33.4483C142.634 32.5241 142.399 31.5643 141.811 30.8338L130.727 17.1499C130.265 16.5242 129.572 16.0657 128.745 15.9217C128.418 15.8648 128.095 15.863 127.779 15.9075C127.226 15.9821 126.685 16.2025 126.216 16.5758C125.562 17.1036 125.178 17.8448 125.082 18.6233L123.388 28.262L105.316 1.38635C104.733 0.518989 103.754 0 102.709 0H62.8333C61.6745 0 60.6081 0.639849 60.0624 1.66362L39.7648 39.7918C38.9828 41.2545 39.4805 43.0746 40.8953 43.9402L54.7339 52.4378ZM122.53 38.2508C123.495 39.6851 125.448 40.0619 126.892 39.1022C127.782 38.5014 128.265 37.5274 128.278 36.5321C128.326 36.3899 128.363 36.2424 128.39 36.0895L130.101 26.3584L135.999 33.6385L130.018 62.7518L99.1201 53.8792L97.3392 46.9137L108.794 49.6437C109.632 49.9334 110.586 49.8641 111.411 49.3754C111.668 49.2225 111.896 49.0394 112.093 48.8333C112.466 48.444 112.745 47.9517 112.882 47.3865C113.092 46.496 112.9 45.6055 112.429 44.9035L96.7971 18.4011C96.2301 17.4413 95.2064 16.8513 94.0919 16.8513H70.668C69.4611 16.8513 68.3592 17.5409 67.8331 18.6286L55.0538 45.2554L46.6984 40.133L64.7227 6.28123H101.04L122.53 38.2508Z" fill="url(#paint0_linear_9_249)"/>
<path fill-rule="evenodd" clip-rule="evenodd" d="M49.7591 10.3212C40.4581 14.45 32.1844 20.1394 24.9345 27.3893C17.3292 34.9946 11.4407 43.7287 7.26925 53.5913C5.98599 56.627 4.89289 59.7054 3.98999 62.8265L6.15305 58.1431L6.59385 57.3753L7.21948 56.4777L7.94289 55.6512L8.82623 55.0025L10.2606 54.1725L11.5065 53.6624L14.6009 52.7541C18.3192 44.9929 23.2585 38.0322 29.4188 31.8718C34.0133 27.2773 39.054 23.3617 44.5389 20.1252L45.5645 18.2021L47.1392 15.2427L47.9248 13.7639L48.7122 12.2852L49.4996 10.8064L49.7591 10.3212Z" fill="url(#paint1_linear_9_249)"/>
<path fill-rule="evenodd" clip-rule="evenodd" d="M165.66 85.6782C165.66 74.4985 163.5 63.804 159.181 53.5913C156.161 46.4534 152.244 39.9055 147.426 33.9513L147.367 34.4579L147.031 36.0984L146.693 37.7407L145.76 42.289C148.744 46.5796 151.272 51.1687 153.341 56.06C157.077 64.8953 159.062 74.127 159.297 83.7515L163.191 91.1169L163.975 92.5974L165.164 94.8458C165.494 91.8278 165.66 88.7708 165.66 85.6782Z" fill="url(#paint2_linear_9_249)"/>
<path fill-rule="evenodd" clip-rule="evenodd" d="M39.7774 99.3497C39.8698 99.8918 40.1062 100.418 40.4901 100.866C41.1157 101.591 41.9884 101.961 42.8771 101.961C43.0886 101.961 43.3001 101.939 43.5098 101.897C43.5329 101.891 43.556 101.888 43.5809 101.882C44.1657 101.749 44.6758 101.461 45.0757 101.068L55.6937 91.9718C56.538 91.2466 56.9361 90.1251 56.737 89.0302L50.1376 52.2813C49.9883 51.414 49.4836 50.6604 48.7442 50.1858C48.0066 49.7095 47.1037 49.5744 46.2577 49.7877L12.7755 58.5252C11.8673 58.767 11.1137 59.3997 10.7156 60.2511L3.27017 76.3718C3.22752 76.466 3.18841 76.562 3.15464 76.6579C2.94669 77.2551 2.9147 77.9217 3.10665 78.574C3.43013 79.6848 4.31171 80.4793 5.36213 80.7388C5.80825 80.8525 6.26147 80.8632 6.69515 80.7832C6.79824 80.7654 6.89954 80.7423 7.00085 80.7121L16.5436 77.9305L0.41569 106.002C-0.103299 106.912 -0.138849 108.02 0.323268 108.958L17.9263 144.735C18.4453 145.78 19.4833 146.453 20.6475 146.489L63.8198 147.861H63.9194C65.5386 147.861 66.8965 146.624 67.0529 145.005L68.5583 128.836C68.6365 127.948 68.345 127.068 67.7425 126.414C67.1382 125.767 66.4983 125.575 65.3964 125.404L34.3581 125.71L25.6775 108.077L37.6232 89.8691L39.7774 99.3497ZM21.801 69.8827C21.6535 69.9058 21.506 69.9377 21.3584 69.984L11.8637 72.7513L15.7953 64.2377L44.5603 56.7354L50.2443 88.378L44.7931 93.0471L42.1164 81.2667C41.9191 80.4153 41.4001 79.7257 40.7122 79.3009C39.8787 78.7731 38.8816 78.6913 38.0106 78.9988C37.2855 79.2512 36.7025 79.7506 36.3363 80.3816L19.4407 106.13C18.8293 107.062 18.7582 108.247 19.2487 109.243L29.5912 130.256C30.1316 131.344 31.0771 131.954 32.4404 132.011L61.9732 131.721L61.0631 141.482L22.7288 140.259L6.69515 107.68L25.8765 74.2834C26.7439 72.7833 26.2249 70.8584 24.7177 69.9982C23.7846 69.4596 22.6968 69.4525 21.801 69.8827Z" fill="url(#paint3_linear_9_249)"/>
<path fill-rule="evenodd" clip-rule="evenodd" d="M116.825 153.878L109.651 146.937H142.067C143.11 146.937 144.084 146.425 144.665 145.56L167.016 112.668C167.67 111.708 167.741 110.464 167.194 109.434L146.997 71.2495C146.222 69.7707 144.418 69.1611 142.925 69.856L128.141 76.5638C127.332 76.9317 126.714 77.6213 126.444 78.4674C126.174 79.3116 126.273 80.2359 126.721 81.0037L142.314 107.737L131.559 122.272L110.133 122.267L116.903 116.062C118.188 114.884 118.273 112.9 117.102 111.622C116.675 111.155 116.144 110.846 115.579 110.698L102.488 106.002C101.443 105.633 100.265 105.839 99.4117 106.55L70.7605 130.491C70.094 131.053 69.6817 131.87 69.639 132.743C69.5892 133.617 69.9162 134.469 70.5259 135.094L94.7017 159.853C95.2918 160.457 96.1022 160.797 96.9465 160.797C97.0318 160.797 97.1242 160.797 97.2095 160.79L114.9 159.27C115.444 159.224 115.943 159.041 116.368 158.762C116.556 158.637 116.732 158.492 116.896 158.325C118.104 157.075 118.069 155.086 116.825 153.878ZM101.877 140.658C100.144 140.658 98.7381 142.063 98.7381 143.798C98.7381 144.856 99.2624 145.792 100.064 146.361C100.162 146.489 100.268 146.61 100.386 146.724L107.493 153.602L98.1551 154.404L77.3901 133.134L102.055 112.532L108.81 114.951L100.082 122.951C99.4259 123.476 98.9834 124.26 98.9123 125.145C98.8376 125.991 99.106 126.862 99.7245 127.535C100.343 128.218 101.196 128.559 102.04 128.559C102.142 128.559 102.241 128.554 102.341 128.545L133.143 128.552C134.145 128.552 135.075 128.083 135.672 127.279L148.602 109.804C149.342 108.795 149.418 107.438 148.787 106.351L133.903 80.8401L142.826 76.7966L160.758 110.698L140.403 140.658L101.877 140.658Z" fill="url(#paint4_linear_9_249)"/>
<path fill-rule="evenodd" clip-rule="evenodd" d="M83.2251 168.114C72.0454 168.114 61.3492 165.955 51.1364 161.634C45.0489 159.06 39.3916 155.831 34.1643 151.949L46.4797 152.34C48.7796 153.606 51.156 154.757 53.607 155.795C63.0306 159.78 72.9021 161.773 83.2251 161.773C85.2744 161.773 87.3059 161.694 89.3215 161.536L91.1059 163.365L91.5983 163.808L92.247 164.316L93.0913 164.851L94.0244 165.21L95.6222 165.647L97.0833 165.823L97.3463 165.814L97.6396 165.798L105.27 165.143C98.1443 167.124 90.7949 168.114 83.2251 168.114Z" fill="url(#paint5_linear_9_249)"/>
<defs>
<linearGradient id="paint0_linear_9_249" x1="-66.8042" y1="85.7638" x2="233.196" y2="85.7638" gradientUnits="userSpaceOnUse">
<stop stop-color="#D0E6A5"/>
<stop offset="1" stop-color="#FFDD94"/>
</linearGradient>
<linearGradient id="paint1_linear_9_249" x1="-66.8042" y1="85.7638" x2="233.196" y2="85.7638" gradientUnits="userSpaceOnUse">
<stop stop-color="#D0E6A5"/>
<stop offset="1" stop-color="#FFDD94"/>
</linearGradient>
<linearGradient id="paint2_linear_9_249" x1="-66.8042" y1="85.7638" x2="233.196" y2="85.7638" gradientUnits="userSpaceOnUse">
<stop stop-color="#D0E6A5"/>
<stop offset="1" stop-color="#FFDD94"/>
</linearGradient>
<linearGradient id="paint3_linear_9_249" x1="-66.8041" y1="85.7637" x2="233.196" y2="85.7637" gradientUnits="userSpaceOnUse">
<stop stop-color="#D0E6A5"/>
<stop offset="1" stop-color="#FFDD94"/>
</linearGradient>
<linearGradient id="paint4_linear_9_249" x1="-66.8041" y1="85.7638" x2="233.196" y2="85.7638" gradientUnits="userSpaceOnUse">
<stop stop-color="#D0E6A5"/>
<stop offset="1" stop-color="#FFDD94"/>
</linearGradient>
<linearGradient id="paint5_linear_9_249" x1="-66.8042" y1="85.7639" x2="233.196" y2="85.7639" gradientUnits="userSpaceOnUse">
<stop stop-color="#D0E6A5"/>
<stop offset="1" stop-color="#FFDD94"/>
</linearGradient>
</defs>
</svg>
