<svg width="300" height="300" viewBox="0 0 300 300" fill="none" xmlns="http://www.w3.org/2000/svg">
<path d="M58.5885 150C58.5885 99.5147 99.5147 58.5885 150 58.5885C200.485 58.5885 241.411 99.5147 241.411 150C241.411 200.485 200.485 241.411 150 241.411C99.5147 241.411 58.5885 200.485 58.5885 150ZM214.032 200.241C226.164 185.242 232.921 165.974 231.713 145.357C229.091 100.937 190.386 67.097 145.25 69.7491C100.122 72.4115 65.6637 110.568 68.2862 154.99C69.2385 171.125 74.9371 185.86 84.0053 197.975L93.5237 188.339L90.5763 180.499L95.743 173.947L93.661 167.561L97.8858 159.399L96.923 143.084L105.647 139.626L108.348 129.018L114.841 126.036L114.29 116.63L163.14 106.695L171.144 119.946L185.861 120.285L198.297 126.953L200.998 142.857L198.819 144.301L207.55 156.601L200.536 161.695L203.01 171.596L196.236 177.343L197.432 183.316L205.369 193.326L214.032 200.241ZM200.219 198.307L193.481 189.792L189.05 184.232L190.16 183.493L188.384 174.674L189.691 173.553L195.004 169.088L192.833 160.454L189.926 160.618L197.677 155.006L188.798 142.485L193.17 139.556L191.815 131.498L183.956 127.289L175.489 127.097L167.022 126.892L162.916 120.123L159.596 114.612L128.919 120.85L123.938 121.866L121.806 122.299L122.277 130.403L115.292 133.606L114.467 133.979L113.867 136.376L111.705 144.824L104.368 147.726L105.143 160.877L103.365 164.305L101.381 168.165L101.989 170.021L103.718 175.332L98.6887 181.738L99.0519 182.72L99.641 184.31L101.801 190.057L96.2522 195.676L88.5307 203.483C89.749 204.859 91.0072 206.166 92.3124 207.454L98.3741 201.324L106.36 193.229L114.404 191.717L116.978 192.334L126.507 194.593L131.203 191.194L142.49 182.727L145.78 181.411L147.48 180.741L148.354 180.388L148.316 180.151L147.285 172.164L153.875 167.441L155.045 166.601L154.72 165.696L152.342 159.01L152.942 158.864L156.47 149.328L157.116 147.61L146.272 137.975L157.049 134.841L165.78 132.311L174.426 132.502L182.481 132.683L186.803 135.012L187.145 137.01L164.867 151.834L185.623 147.497L190.065 153.781L171.645 167.143L188.568 166.148L188.824 167.138L182.331 172.606L183.047 176.172L184.022 180.975L175.013 186.818L160.71 196.081L152.294 201.545L148.02 201.15L143.472 200.738L154.622 187.331L153.19 186.191L138.679 203.658L117.894 224.353C119.74 225.13 121.608 225.837 123.513 226.475L143.317 206.75L143.839 206.228L153.71 207.115L153.896 206.988L159.191 212.007L174.86 226.899H174.869C176.824 226.289 178.749 225.592 180.656 224.834L163.925 208.94L158.642 203.921L164.77 199.951L178.414 191.111L184.427 187.232L188.838 192.791L196.25 202.127L205.358 209.416C206.71 208.168 208.048 206.891 209.326 205.575L200.219 198.307ZM154.139 130.043L147.047 132.101C148.029 131.114 148.785 130.16 149.287 129.457C149.758 128.785 150.014 128.333 150.062 128.264L148.443 127.389C148.443 127.389 147.765 128.599 146.458 130.043C145.406 131.187 143.962 132.494 142.125 133.535C141.076 134.113 139.906 134.605 138.61 134.925C137.921 135.097 137.195 135.215 136.449 135.283C136.046 135.312 135.653 135.331 135.29 135.352C131.509 135.425 129.18 134.296 127.854 133.251L127.982 133.236L127.59 126.675L133.16 125.54L142.355 123.669L152.61 121.587L156.852 120.726L157.441 121.708L161.244 127.975L154.139 130.043ZM150.427 148.996L150.664 149.188L148.778 154.274L141.922 155.872L137.285 153.562L137.275 153.574L121.971 145.981L117.649 143.835L118.396 140.868L118.975 138.639L119.192 137.808L126.47 134.468C128.062 135.799 130.843 137.268 135.4 137.149C135.617 137.149 135.852 137.146 136.097 137.13C136.263 137.116 136.422 137.106 136.588 137.092C137.492 137.019 138.337 136.871 139.133 136.67L140.045 139.735L150.427 148.996ZM143.776 167.967L133.591 165.317L131.834 164.855L119.045 161.528L110.597 159.333L110.126 151.31L115.548 149.165L115.391 148.805L124.38 153.265L134.39 158.225L134.4 158.23L141.246 161.617L146.932 160.277L148.032 163.337L148.474 164.594L143.776 167.967ZM142.146 176.99L136.891 179.102L136.017 179.436L122.234 176.431L118.078 175.536V175.525L108.942 173.541L108.332 171.665L107.333 168.621L107.825 167.689L109.396 164.644L116.478 166.481L134.345 171.137L141.849 173.092L141.919 173.839H141.92L141.999 174.392L142.146 176.99ZM129.936 185.36L125.31 188.721L114.554 186.166L111.186 186.794L111.214 186.815L111.184 186.794L111.106 186.804L111.222 186.821L111.224 186.823L111.106 186.804L106.773 187.621L106.056 185.695L104.907 182.661L105.741 181.61L107.913 178.879L129.849 183.664L129.936 185.36Z" fill="url(#paint0_linear_7_7)"/>
<path d="M36.5003 124.553C37.3401 125.535 37.7457 126.873 37.4896 128.241C37.0403 130.642 34.7299 132.224 32.3289 131.775C29.928 131.326 28.3458 129.016 28.7951 126.615C29.0511 125.246 29.9134 124.145 31.051 123.533L29.9541 117.672C26.5082 118.801 23.7682 121.725 23.0543 125.54C22.0118 131.112 25.6835 136.474 31.2548 137.516C36.8262 138.558 42.1879 134.887 43.2304 129.316C43.9443 125.5 42.4467 121.783 39.6425 119.485L36.5003 124.553Z" fill="#D0E6A5"/>
<path d="M44.3872 105.339L30.9274 99.576L28.6356 104.929L47.1258 112.845L52.1229 101.174L47.0925 99.0202L44.3872 105.339Z" fill="#D0E6A5"/>
<path d="M43.3195 76.0684C40.8579 79.6165 41.7385 84.4884 45.2868 86.9501C47.8974 88.7613 55.8662 94.2899 55.8662 94.2899L59.192 89.4962L55.353 86.8328L57.6161 83.5709L61.4553 86.2344L64.7809 81.441L54.2013 74.1011C50.6529 71.6393 45.7813 72.52 43.3195 76.0684ZM53.1201 80.4516L50.857 83.7136L48.5854 82.1376C47.6848 81.5128 47.4612 80.276 48.086 79.3753C48.711 78.4744 49.9479 78.2508 50.8485 78.8756L53.1201 80.4516Z" fill="#D0E6A5"/>
<path d="M67.4626 57.7352L70.6488 54.7443L66.9038 50.7546L61.9986 55.3591C52.7105 64.0778 72.5839 65.5043 69.4026 68.4905L66.2166 71.4813L69.9617 75.4709L74.8667 70.8667C84.1546 62.1482 64.2815 60.7212 67.4626 57.7352Z" fill="#D0E6A5"/>
<path d="M87.0567 43.3908L90.764 41.077L87.8668 36.4349L82.1595 39.9969C71.3524 46.7417 90.5685 52.0079 86.867 54.318L83.1599 56.6317L86.0571 61.2738L91.7642 57.7119C102.571 50.9672 83.3555 45.7008 87.0567 43.3908Z" fill="#D0E6A5"/>
<path d="M133.231 27.1514L132.185 21.7802L118.263 24.4906L122.107 44.2335L136.029 41.5231L134.983 36.1519L126.777 37.7495L126.424 35.9349L131.712 34.9054L130.666 29.5342L125.378 30.5637L125.025 28.749L133.231 27.1514Z" fill="#D0E6A5"/>
<path d="M155.616 30.3582L161.083 21.0916L155.009 20.9619L152.694 24.8852L150.549 20.8666L144.475 20.7368L149.541 30.2285L143.287 40.8297L149.361 40.9594L152.463 35.7015L155.338 41.0871L161.412 41.2169L155.616 30.3582Z" fill="#D0E6A5"/>
<path d="M181.762 38.0902C180.735 38.8736 179.376 39.2036 178.024 38.8713C175.652 38.2882 174.202 35.8928 174.785 33.5208C175.368 31.1487 177.763 29.6985 180.135 30.2815C181.487 30.6139 182.538 31.5364 183.085 32.7065L188.999 31.9397C188.064 28.4359 185.299 25.5364 181.529 24.6099C176.025 23.257 170.466 26.6226 169.113 32.1268C167.76 37.631 171.125 43.1899 176.63 44.5429C180.4 45.4694 184.194 44.1823 186.646 41.5113L181.762 38.0902Z" fill="#D0E6A5"/>
<path d="M210.629 35.8758L207.292 42.3914L203.748 40.5759L207.085 34.0603L201.903 31.4056L192.733 49.3069L197.915 51.9617L201.253 45.4461L204.797 47.2616L201.459 53.7772L206.641 56.432L215.812 38.5307L210.629 35.8758Z" fill="#D0E6A5"/>
<path d="M233.195 50.3894C229.881 47.6208 224.95 48.0628 222.181 51.3772C220.144 53.8156 213.926 61.2589 213.926 61.2589L218.404 64.9994L221.399 61.4136L224.446 63.9589L221.451 67.545L225.928 71.2853L234.183 61.4034C236.952 58.0891 236.51 53.1582 233.195 50.3894ZM227.955 59.7595L224.908 57.2142L226.68 55.0924C227.383 54.2511 228.635 54.1388 229.476 54.8416C230.318 55.5446 230.43 56.7964 229.727 57.6377L227.955 59.7595Z" fill="#D0E6A5"/>
<path d="M255.109 74.9106L247.356 80.7331L252.279 71.141L248.016 65.4647L231.932 77.5425L235.429 82.1985L244.45 75.4244L238.722 86.5838L242.522 91.6444L258.606 79.5666L255.109 74.9106Z" fill="#D0E6A5"/>
<path d="M262.306 113.993L262.303 113.987C262.776 113.865 263.247 113.712 263.711 113.517C264.068 113.368 264.412 113.202 264.743 113.017L261.32 104.839L258.147 106.168L259.091 108.421C257.615 108.199 256.287 107.24 255.669 105.763C254.726 103.509 255.788 100.918 258.041 99.9752C260.294 99.032 262.885 100.094 263.828 102.347C264.372 103.646 264.246 105.056 263.613 106.2L266.092 112.122C269.632 109.342 271.038 104.446 269.216 100.091C267.027 94.8631 261.014 92.3988 255.785 94.5875C250.557 96.7762 248.093 102.789 250.281 108.018C252.241 112.699 257.267 115.16 262.05 114.053C262.053 114.053 262.056 114.052 262.058 114.051C262.141 114.032 262.223 114.015 262.306 113.993Z" fill="#D0E6A5"/>
<path d="M273.271 136.77L278.669 135.879L276.358 121.885L256.513 125.163L258.825 139.157L264.224 138.265L262.861 130.016L264.685 129.715L265.563 135.03L270.962 134.138L270.084 128.823L271.908 128.522L273.271 136.77Z" fill="#D0E6A5"/>
<path d="M30.4791 176.573C29.3412 175.962 28.4792 174.861 28.2231 173.492C27.7739 171.091 29.356 168.781 31.757 168.331C34.158 167.882 36.4684 169.464 36.9176 171.865C37.1737 173.234 36.7678 174.572 35.9284 175.554L39.0703 180.622C41.8747 178.323 43.3723 174.607 42.6584 170.791C41.616 165.219 36.2542 161.548 30.6829 162.591C25.1115 163.633 21.4398 168.994 22.4823 174.566C23.1963 178.382 25.9363 181.305 29.3819 182.435L30.4791 176.573Z" fill="url(#paint1_linear_7_7)"/>
<path d="M35.4229 198.499L48.8827 192.736L46.5909 187.383L28.1007 195.3L33.0978 206.971L38.1282 204.817L35.4229 198.499Z" fill="url(#paint2_linear_7_7)"/>
<path d="M60.3235 212.134C57.8618 208.586 52.99 207.705 49.4417 210.167C46.8311 211.978 38.8623 217.507 38.8623 217.507L42.1881 222.3L46.027 219.637L48.2901 222.899L44.4509 225.562L47.7765 230.356L58.3561 223.016C61.9045 220.554 62.7852 215.683 60.3235 212.134ZM52.7861 219.78L50.523 216.518L52.7946 214.942C53.6953 214.317 54.9321 214.54 55.5569 215.441C56.182 216.342 55.9583 217.579 55.0577 218.204L52.7861 219.78Z" fill="url(#paint3_linear_7_7)"/>
<path d="M73.34 236.003L76.5263 238.994L80.2714 235.004L75.3661 230.4C66.078 221.681 65.91 241.605 62.7288 238.619L59.5427 235.628L55.7976 239.618L60.7026 244.222C69.9905 252.941 70.159 233.017 73.34 236.003Z" fill="url(#paint4_linear_7_7)"/>
<path d="M91.6035 249.324L95.3108 251.637L98.2081 246.995L92.5007 243.433C81.6937 236.688 85.4055 256.264 81.7041 253.954L77.997 251.64L75.0998 256.282L80.8069 259.844C91.6137 266.589 87.9023 247.014 91.6035 249.324Z" fill="url(#paint5_linear_7_7)"/>
<path d="M134.872 264.419L135.918 259.048L121.996 256.337L118.152 276.08L132.074 278.79L133.12 273.419L124.914 271.822L125.267 270.007L130.555 271.036L131.6 265.665L126.313 264.636L126.666 262.821L134.872 264.419Z" fill="url(#paint6_linear_7_7)"/>
<path d="M155.599 268.872L160.666 259.381L154.592 259.51L152.447 263.529L150.132 259.606L144.058 259.735L149.525 269.002L143.729 279.861L149.803 279.731L152.678 274.345L155.78 279.603L161.854 279.473L155.599 268.872Z" fill="url(#paint7_linear_7_7)"/>
<path d="M183.224 267.858C182.677 269.028 181.626 269.951 180.274 270.283C177.902 270.866 175.507 269.416 174.923 267.044C174.34 264.672 175.791 262.276 178.163 261.693C179.515 261.361 180.874 261.691 181.901 262.474L186.785 259.054C184.333 256.382 180.538 255.095 176.769 256.022C171.264 257.375 167.899 262.934 169.252 268.438C170.605 273.942 176.164 277.308 181.668 275.955C185.438 275.028 188.203 272.129 189.138 268.625L183.224 267.858Z" fill="url(#paint8_linear_7_7)"/>
<path d="M201.724 246.74L205.062 253.256L201.518 255.071L198.18 248.556L192.998 251.21L202.168 269.112L207.351 266.457L204.013 259.942L207.557 258.126L210.895 264.642L216.077 261.987L206.907 244.085L201.724 246.74Z" fill="url(#paint9_linear_7_7)"/>
<path d="M219.927 233.728C216.613 236.496 216.171 241.427 218.939 244.742C220.976 247.18 227.195 254.623 227.195 254.623L231.672 250.883L228.677 247.297L231.723 244.752L234.719 248.338L239.196 244.597L230.941 234.715C228.172 231.401 223.241 230.959 219.927 233.728ZM228.215 240.552L225.168 243.097L223.396 240.976C222.693 240.134 222.805 238.883 223.646 238.18C224.488 237.477 225.74 237.589 226.443 238.43L228.215 240.552Z" fill="url(#paint10_linear_7_7)"/>
<path d="M239.491 213.361L247.245 219.183L236.66 217.13L232.398 222.806L248.481 234.884L251.978 230.228L242.957 223.454L255.271 225.843L259.071 220.782L242.987 208.705L239.491 213.361Z" fill="url(#paint11_linear_7_7)"/>
<path d="M265.571 187.373L265.568 187.379C265.149 187.128 264.71 186.901 264.246 186.706C263.889 186.557 263.529 186.428 263.164 186.322L259.741 194.499L262.914 195.827L263.858 193.574C264.735 194.781 264.983 196.4 264.365 197.877C263.422 200.13 260.831 201.192 258.578 200.249C256.324 199.306 255.262 196.715 256.206 194.462C256.75 193.162 257.843 192.263 259.102 191.911L261.581 185.989C257.116 185.418 252.641 187.852 250.818 192.207C248.629 197.435 251.094 203.448 256.322 205.637C261.551 207.825 267.563 205.361 269.752 200.133C271.712 195.451 269.938 190.144 265.793 187.513C265.791 187.511 265.788 187.51 265.786 187.509C265.715 187.463 265.644 187.417 265.571 187.373Z" fill="url(#paint12_linear_7_7)"/>
<path d="M264.798 161.83L259.399 160.938L257.088 174.931L276.932 178.209L279.244 164.216L273.845 163.324L272.482 171.572L270.658 171.271L271.536 165.956L266.137 165.064L265.259 170.379L263.435 170.078L264.798 161.83Z" fill="url(#paint13_linear_7_7)"/>
<path fill-rule="evenodd" clip-rule="evenodd" d="M43.9338 43.9339C30.094 57.7737 19.3789 73.6665 11.7885 91.6124C3.92949 110.193 0 129.656 0 150C0 170.343 3.92949 189.806 11.7885 208.386C19.3789 226.333 30.094 242.226 43.9338 256.065C57.7748 269.907 73.6677 280.622 91.6125 288.21C110.195 296.07 129.657 300 150 300C170.344 300 189.806 296.07 208.386 288.21C226.334 280.62 242.227 269.905 256.065 256.065C269.907 242.224 280.622 226.331 288.21 208.386C296.07 189.806 300 170.343 300 150C300 129.655 296.07 110.193 288.21 91.6124C280.62 73.6659 269.905 57.7731 256.065 43.9339C242.226 30.094 226.333 19.3789 208.386 11.7885C189.806 3.9295 170.344 0 150 0C129.656 0 110.193 3.9295 91.6124 11.7885C73.6666 19.3789 57.7738 30.094 43.9338 43.9339ZM2.97108 150C2.97108 130.058 6.82235 110.981 14.5249 92.7699C21.9649 75.1797 32.4682 59.6013 46.0347 46.0347C59.6015 32.4681 75.1799 21.9648 92.7699 14.5249C110.981 6.82235 130.057 2.97108 150 2.97108C169.942 2.97108 189.019 6.82235 207.23 14.5249C224.82 21.9649 240.398 32.4681 253.965 46.0347C267.531 59.6004 278.034 75.1787 285.475 92.7699C293.178 110.981 297.029 130.057 297.029 150C297.029 169.941 293.178 189.018 285.475 207.23C278.035 224.819 267.532 240.398 253.965 253.965C240.399 267.531 224.82 278.035 207.229 285.475C189.018 293.178 169.942 297.029 150 297.029C130.058 297.029 110.982 293.178 92.7698 285.475C75.1809 278.035 59.6025 267.532 46.0347 253.965C32.4681 240.398 21.9649 224.82 14.5249 207.23C6.82235 189.018 2.97108 169.941 2.97108 150Z" fill="url(#paint14_linear_7_7)"/>
<defs>
<linearGradient id="paint0_linear_7_7" x1="-3.99512e-06" y1="150" x2="300" y2="150" gradientUnits="userSpaceOnUse">
<stop stop-color="#ED4264"/>
<stop offset="1" stop-color="#FFEDBC"/>
</linearGradient>
<linearGradient id="paint1_linear_7_7" x1="-3.62382e-05" y1="150" x2="300" y2="150" gradientUnits="userSpaceOnUse">
<stop stop-color="#ED4264"/>
<stop offset="1" stop-color="#FFEDBC"/>
</linearGradient>
<linearGradient id="paint2_linear_7_7" x1="4.20074e-06" y1="150" x2="300" y2="150" gradientUnits="userSpaceOnUse">
<stop stop-color="#ED4264"/>
<stop offset="1" stop-color="#FFEDBC"/>
</linearGradient>
<linearGradient id="paint3_linear_7_7" x1="-1.42973e-05" y1="150" x2="300" y2="150" gradientUnits="userSpaceOnUse">
<stop stop-color="#ED4264"/>
<stop offset="1" stop-color="#FFEDBC"/>
</linearGradient>
<linearGradient id="paint4_linear_7_7" x1="-3.46323e-05" y1="150" x2="300" y2="150" gradientUnits="userSpaceOnUse">
<stop stop-color="#ED4264"/>
<stop offset="1" stop-color="#FFEDBC"/>
</linearGradient>
<linearGradient id="paint5_linear_7_7" x1="-6.09894e-05" y1="150" x2="300" y2="150" gradientUnits="userSpaceOnUse">
<stop stop-color="#ED4264"/>
<stop offset="1" stop-color="#FFEDBC"/>
</linearGradient>
<linearGradient id="paint6_linear_7_7" x1="3.48316e-05" y1="150" x2="300" y2="150" gradientUnits="userSpaceOnUse">
<stop stop-color="#ED4264"/>
<stop offset="1" stop-color="#FFEDBC"/>
</linearGradient>
<linearGradient id="paint7_linear_7_7" x1="-7.43479e-05" y1="150" x2="300" y2="150" gradientUnits="userSpaceOnUse">
<stop stop-color="#ED4264"/>
<stop offset="1" stop-color="#FFEDBC"/>
</linearGradient>
<linearGradient id="paint8_linear_7_7" x1="-2.18064e-05" y1="150" x2="300" y2="150" gradientUnits="userSpaceOnUse">
<stop stop-color="#ED4264"/>
<stop offset="1" stop-color="#FFEDBC"/>
</linearGradient>
<linearGradient id="paint9_linear_7_7" x1="-5.57313e-05" y1="150" x2="300" y2="150" gradientUnits="userSpaceOnUse">
<stop stop-color="#ED4264"/>
<stop offset="1" stop-color="#FFEDBC"/>
</linearGradient>
<linearGradient id="paint10_linear_7_7" x1="1.44726e-06" y1="150" x2="300" y2="150" gradientUnits="userSpaceOnUse">
<stop stop-color="#ED4264"/>
<stop offset="1" stop-color="#FFEDBC"/>
</linearGradient>
<linearGradient id="paint11_linear_7_7" x1="8.11759e-06" y1="150" x2="300" y2="150" gradientUnits="userSpaceOnUse">
<stop stop-color="#ED4264"/>
<stop offset="1" stop-color="#FFEDBC"/>
</linearGradient>
<linearGradient id="paint12_linear_7_7" x1="-2.77069e-05" y1="150" x2="300" y2="150" gradientUnits="userSpaceOnUse">
<stop stop-color="#ED4264"/>
<stop offset="1" stop-color="#FFEDBC"/>
</linearGradient>
<linearGradient id="paint13_linear_7_7" x1="-2.93147e-05" y1="150" x2="300" y2="150" gradientUnits="userSpaceOnUse">
<stop stop-color="#ED4264"/>
<stop offset="1" stop-color="#FFEDBC"/>
</linearGradient>
<linearGradient id="paint14_linear_7_7" x1="-1.16279e-05" y1="150" x2="300" y2="150" gradientUnits="userSpaceOnUse">
<stop stop-color="#ED4264"/>
<stop offset="1" stop-color="#FFEDBC"/>
</linearGradient>
</defs>
</svg>
