<svg width="402" height="110" viewBox="0 0 402 110" fill="none" xmlns="http://www.w3.org/2000/svg">
<path d="M170.467 63.494C178.508 63.494 186.159 60.2931 191.78 54.5939L194.825 51.3929L184.441 42.5709L183.036 44.2885C179.835 47.9578 175.307 50.0657 170.467 50.0657C161.332 50.0657 153.916 42.727 153.916 33.5927C153.916 24.5364 161.332 17.1196 170.467 17.1196C175.229 17.1196 179.757 19.1495 182.88 22.8188L184.363 24.4583L194.591 15.5582L192.639 13.5283C192.249 13.138 191.936 12.7476 191.546 12.4353C186.003 6.81419 178.43 3.69135 170.467 3.69135V8.06334C177.103 8.06334 183.505 10.6397 188.267 15.324L184.676 18.3688C180.85 14.7775 175.776 12.7476 170.467 12.7476C159.693 12.7476 150.793 20.9451 149.7 31.4067H140.487V33.5927C140.487 50.0657 153.916 63.494 170.467 63.494ZM149.7 35.7787C150.793 46.2402 159.693 54.4377 170.467 54.4377C175.854 54.4377 181.006 52.4079 184.832 48.6604L188.423 51.7052C183.661 56.4676 177.181 59.122 170.467 59.122C157.116 59.122 146.108 48.8166 145.015 35.7787H149.7Z" fill="#4ADE80"/>
<path d="M216.216 5.25278H211.844V55.9991H206.848V5.25278H202.476V55.9991V60.3712H206.848H211.844H216.216H241.512V46.6306H216.216V5.25278ZM237.14 51.0026V55.9992H216.216V51.0026H237.14Z" fill="#4ADE80"/>
<path d="M264.621 10.4835L284.139 55.9991H279.064L264.621 22.4285L248.382 60.3711H253.066L264.621 33.5146L274.302 55.9991H266.026V60.3711H290.775L267.041 5.09662H262.201L247.679 38.9796H252.364L264.621 10.4835Z" fill="#4ADE80"/>
<path d="M334.104 28.1277C329.732 26.0198 324.58 24.5364 319.583 23.0531C316.929 22.2723 313.025 21.1013 310.292 20.0083C311.385 19.1495 313.493 18.1346 316.538 18.1346C320.91 18.1346 323.408 20.2425 323.643 20.9451V23.1311H336.837V18.5249C335.353 10.7959 326.844 4.78436 316.538 4.78436C305.764 4.78436 296.864 11.3424 296.083 19.696H296.005V23.0531C296.005 30.1576 305.608 32.9681 315.836 35.9348C321.847 37.7305 329.108 39.8384 331.684 42.5709H329.498V46.9429H346.127V44.7569C346.127 37.8086 341.911 32.0313 334.104 28.1277ZM336.681 42.5709C335.51 38.9796 331.528 37.0278 330.044 36.2471C326.453 34.4515 321.691 33.0462 317.085 31.719C309.668 29.533 300.377 26.8786 300.377 23.0531V20.8671C300.377 14.3871 307.638 9.07829 316.538 9.07829C324.423 9.07829 330.981 13.2161 332.387 18.6811H327.39C325.829 16.1047 321.847 13.8407 316.538 13.8407C309.746 13.8407 305.062 17.51 305.062 20.8671V22.3504L306.233 22.975C308.887 24.4584 314.586 26.0979 318.334 27.2689C323.174 28.6742 328.093 30.0795 332.152 32.0313C335.978 33.983 340.506 37.262 341.521 42.5709H336.681ZM314.352 60.8396H318.724V47.4894H316.538C312.166 47.4894 309.746 45.3815 309.434 44.6788V42.5709H296.24V46.9429C297.489 54.2035 304.984 59.9808 314.352 60.8396ZM300.69 46.9429H305.686C307.013 49.1289 310.136 51.1587 314.352 51.7052V56.3895C307.482 55.6869 301.939 51.8614 300.69 46.9429Z" fill="#4ADE80"/>
<path d="M389.769 28.1277C385.397 26.0198 380.244 24.5364 375.248 23.0531C372.593 22.2723 368.69 21.1013 365.957 20.0083C367.05 19.1495 369.158 18.1346 372.203 18.1346C376.575 18.1346 379.073 20.2425 379.308 20.9451V23.1311H392.502V18.5249C391.018 10.7959 382.508 4.78436 372.203 4.78436C361.429 4.78436 352.529 11.3424 351.748 19.696H351.67V23.0531C351.67 30.1576 361.273 32.9681 371.5 35.9348C377.512 37.7305 384.773 39.8384 387.349 42.5709H385.163V46.9429H401.792V44.7569C401.792 37.8086 397.576 32.0313 389.769 28.1277ZM392.345 42.5709C391.174 38.9796 387.193 37.0278 385.709 36.2471C382.118 34.4515 377.356 33.0462 372.75 31.719C365.333 29.533 356.042 26.8786 356.042 23.0531V20.8671C356.042 14.3871 363.303 9.07829 372.203 9.07829C380.088 9.07829 386.646 13.2161 388.052 18.6811H383.055C381.494 16.1047 377.512 13.8407 372.203 13.8407C365.411 13.8407 360.727 17.51 360.727 20.8671V22.3504L361.898 22.975C364.552 24.4584 370.251 26.0979 373.999 27.2689C378.839 28.6742 383.758 30.0795 387.817 32.0313C391.643 33.983 396.171 37.262 397.186 42.5709H392.345ZM370.017 60.8396H374.389V47.4894H372.203C367.831 47.4894 365.411 45.3815 365.099 44.6788V42.5709H351.905V46.9429C353.154 54.2035 360.648 59.9808 370.017 60.8396ZM356.355 46.9429H361.351C362.678 49.1289 365.801 51.1587 370.017 51.7052V56.3895C363.147 55.6869 357.604 51.8614 356.355 46.9429Z" fill="#4ADE80"/>
<path d="M145.986 104.056H166.242V101.489H143.054V91.5909H145.986V98.5566H166.242V95.9903H148.553V91.5909H159.689V83.5254H148.553V79.3093H166.242V76.743H145.986V83.5254H143.054V73.8101H166.242V71.2438H140.487V83.5254V95.9903V104.056H143.054H145.986ZM143.054 86.0917H157.122V89.0246H143.054V86.0917Z" fill="#4ADE80"/>
<path d="M185.26 87.7414L183.702 85.4959L173.849 71.4729H170.733L182.098 87.7414L170.687 104.01H173.849L183.702 89.9411L185.26 87.7414ZM187.047 90.2619L185.489 92.5074L177.424 104.01H180.54L187.047 94.7529L193.555 104.01H196.671L188.605 92.5074L187.047 90.2619ZM191.997 87.7414L203.362 71.4729H200.245L190.393 85.4959L188.605 82.9296L196.671 71.4729H193.509L187.047 80.6841L180.586 71.4729H177.424L185.489 82.9296L187.047 85.1751L188.835 87.7414L190.393 89.9411L200.245 104.01H203.408L191.997 87.7414Z" fill="#4ADE80"/>
<path d="M223.709 105.889C228.429 105.889 232.92 104.01 236.22 100.665L238.007 98.7857L231.912 93.6073L231.087 94.6154C229.208 96.7693 226.55 98.0066 223.709 98.0066C218.347 98.0066 213.994 93.6989 213.994 88.3371C213.994 83.0212 218.347 78.6677 223.709 78.6677C226.504 78.6677 229.162 79.8592 230.995 82.013L231.866 82.9754L237.869 77.7511L236.724 76.5596C236.495 76.3305 236.311 76.1014 236.082 75.9181C232.828 72.6185 228.383 70.7855 223.709 70.7855V73.3518C227.604 73.3518 231.362 74.8641 234.157 77.6137L232.049 79.4009C229.804 77.2929 226.825 76.1014 223.709 76.1014C217.385 76.1014 212.161 80.9132 211.519 87.054H206.111V88.3371C206.111 98.0066 213.994 105.889 223.709 105.889ZM211.519 89.6203C212.161 95.7611 217.385 100.573 223.709 100.573C226.871 100.573 229.895 99.3814 232.141 97.1817L234.249 98.969C231.454 101.764 227.65 103.323 223.709 103.323C215.872 103.323 209.411 97.2734 208.769 89.6203H211.519Z" fill="#4ADE80"/>
<path d="M245.202 103.964H248.135V104.056H250.701V91.8658H264.816V104.056H267.382V103.964H270.315V104.056H272.881V71.6104H264.816V83.8003H245.202V74.1767H250.701V71.6104H242.635V89.2995V104.056H245.202V103.964ZM267.382 74.1767H270.315V91.8658V101.398H267.382V83.8003V74.1767ZM245.202 86.3666H264.816V89.2995H245.202V86.3666ZM245.202 91.8658H248.135V101.398H245.202V91.8658Z" fill="#4ADE80"/>
<path d="M287.729 74.7724L299.186 101.489H296.207L287.729 81.7839L278.197 104.056H280.947L287.729 88.2913L293.412 101.489H288.554V104.056H303.081L289.15 71.6104H286.308L277.785 91.4992H280.534L287.729 74.7724Z" fill="#4ADE80"/>
<path d="M328.011 88.6579L314.584 71.5645H311.33L328.011 92.8282V97.5942L314.079 79.8592V79.8133H314.034L308.58 72.8477L307.572 71.5645H306.014V73.7184V104.01H308.58V77.0179L311.513 80.7299V104.01H314.079V83.9836L328.011 101.764V104.01H329.798H330.577V100.848V96.1277V91.9575V71.5645H328.011V88.6579ZM333.51 71.5645V95.6694V99.8397V104.01H336.076V103.093V98.969V71.5645H333.51Z" fill="#4ADE80"/>
<path d="M357.019 105.751C362.152 105.751 367.055 103.506 370.401 99.5647L370.721 99.1981V95.7153V93.149V90.3994V87.8331H368.155H365.406H362.839H359.586H357.019V90.3994V95.7153H362.839V95.9444C361.144 97.1818 359.127 97.8692 357.019 97.8692C351.658 97.8692 347.35 93.5614 347.35 88.1997C347.35 82.8838 351.658 78.5302 357.019 78.5302C359.815 78.5302 362.473 79.7217 364.352 81.8756L365.176 82.838L371.18 77.6137L369.897 76.2847C369.759 76.1014 369.576 75.9181 369.393 75.7806C366.139 72.4811 361.694 70.648 357.019 70.648C349.504 70.648 343.088 75.3682 340.567 82.0131H343.363C345.7 76.8346 350.924 73.2143 357.019 73.2143C360.915 73.2143 364.672 74.7266 367.468 77.4762L365.36 79.2634C363.114 77.1554 360.135 75.9639 357.019 75.9639C351.199 75.9639 346.296 80.0425 345.058 85.4959H342.263H339.651C339.513 86.3208 339.468 87.1915 339.468 88.0622C339.468 88.108 339.468 88.1539 339.468 88.1997C339.468 89.3454 339.559 90.4452 339.743 91.5451C341.346 99.6564 348.45 105.751 357.019 105.751ZM342.034 88.1997C342.034 88.1539 342.034 88.108 342.034 88.0622H344.783C344.783 88.108 344.783 88.1539 344.783 88.1997C344.783 94.9362 350.237 100.435 357.019 100.435C359.906 100.435 362.748 99.4273 364.947 97.5484L365.406 97.1359V95.7153V93.149H362.839H359.586V90.3994H362.839H365.406H368.155V93.149V95.7153V98.2358C365.314 101.398 361.281 103.185 357.019 103.185C349.87 103.185 343.913 98.19 342.4 91.5451C342.125 90.4452 342.034 89.3454 342.034 88.1997Z" fill="#4ADE80"/>
<path d="M381.537 104.056H401.792V101.489H378.604V91.5909H381.537V98.5566H401.792V95.9903H384.103V91.5909H395.239V83.5254H384.103V79.3093H401.792V76.743H381.537V83.5254H378.604V73.8101H401.792V71.2438H376.037V83.5254V95.9903V104.056H378.604H381.537ZM378.604 86.0917H392.673V89.0246H378.604V86.0917Z" fill="#4ADE80"/>
<path fill-rule="evenodd" clip-rule="evenodd" d="M16.6306 4.17795C18.4977 2.21996 19.9951 1.2515 22.3567 0.474457C23.6122 0.0611466 24.6593 -0.0430954 26.9717 0.0147246C29.7606 0.0845046 30.1136 0.161413 32.1995 1.15379C35.9919 2.95824 38.7032 6.26324 39.6354 10.2185C40.8246 15.2642 39.5587 19.8031 35.9387 23.4732C31.6823 27.7881 26.0632 28.7272 20.4204 26.0665C16.7166 24.3197 14.0571 20.6699 13.1126 16.0367C12.2427 11.7706 13.531 7.42795 16.6306 4.17795ZM80.1748 9.79924C82.0475 6.32932 86.214 3.38923 90.0738 2.81441C94.4799 2.15843 98.8768 3.53706 102.1 6.5854C104.656 9.00197 105.987 11.7877 106.462 15.7128C106.977 19.9634 109.241 23.2183 112.481 24.3689C114.014 24.9125 114.061 25.1403 113.079 27.2164C111.215 31.1587 104.622 32.0118 101.467 28.7191L100.681 27.8982L99.3602 28.7024C91.5828 33.4353 81.2803 29.188 78.9636 20.2936C78.0855 16.9216 78.5625 12.7866 80.1748 9.79924ZM53.5433 25.1532C60.3933 18.5293 60.7917 18.1903 62.118 17.8608C65.7437 16.9592 68.9545 20.1987 67.9855 23.7808C67.6598 24.9851 67.1148 25.6388 63.4023 29.278C61.0849 31.5496 57.2143 35.363 54.8008 37.7519L50.4132 42.0957H40.0743V48.3623H0.196786V46.4139C0.196786 43.8783 1.10913 40.3641 2.267 38.4408C3.47357 36.436 6.2203 33.89 8.23183 32.9113C11.5183 31.3126 11.949 31.2808 30.3287 31.276L47.2156 31.272L53.5433 25.1532ZM94.915 43.4487C98.7004 37.9892 100.53 35.4259 101.087 34.8022C101.567 34.2638 101.775 34.2284 103.106 34.4596C105.396 34.8566 109.081 36.7382 110.855 38.4164C113.571 40.9855 115.272 44.4404 115.272 47.3906V48.6469H69.3362L69.4765 46.6848C69.7801 42.4426 73.1371 37.9653 77.5193 35.9578C79.389 35.1013 81.8699 34.405 83.0534 34.405C83.3913 34.405 85.0454 36.4675 87.9529 40.5146C90.3671 43.8752 92.4212 46.6309 92.5178 46.6385C92.6141 46.6467 93.693 45.2114 94.915 43.4487ZM92.4657 40.3867C92.2706 40.3867 90.1598 37.6743 88.5317 35.3307L87.8886 34.405H92.3398C95.82 34.405 96.7462 34.4828 96.5865 34.7612C95.9332 35.8987 92.6457 40.3867 92.4657 40.3867ZM37.226 58.3743C37.226 57.0721 38.0465 55.8827 39.3379 55.3141C40.0617 54.9949 44.889 54.939 66.7068 54.9958L93.1967 55.0644L95.467 55.7216C106.386 58.8811 113.933 67.7317 115.318 79.0023C115.928 83.9712 114.872 89.6294 112.422 94.5062C109.521 100.282 104.365 104.939 98.0575 107.483C97.1418 107.852 96.4594 108.151 95.7575 108.393C92.5766 109.491 88.9963 109.43 61.5155 109.523C32.8115 109.619 30.2162 109.701 29.4443 108.556C29.3205 108.371 29.2436 108.156 29.1127 107.903C28.0445 105.837 29.1055 103.57 31.3866 103.043C32.0134 102.898 34.6554 102.777 37.2584 102.773C41.9875 102.766 41.9909 102.766 42.7416 102.016C43.7264 101.03 43.769 99.4454 42.8372 98.4398L42.1817 97.7329L29.0324 97.5563C14.633 97.3628 14.6136 97.3605 13.7315 95.655C12.8513 93.9529 13.4469 92.0582 15.1101 91.269C15.9806 90.856 17.8178 90.8032 31.3539 90.8032H46.6165L47.5325 89.9848C48.7487 88.8979 48.8042 87.4401 47.6724 86.3093L46.896 85.5336H42.0836C37.6457 85.5336 37.2081 85.4874 36.4651 84.9372C34.8589 83.7485 34.7488 81.4722 36.2265 79.995C36.8648 79.3564 37.2356 79.2657 39.7594 79.132C42.8977 78.9655 43.5112 78.6576 44.0677 76.9715C44.3169 76.2157 44.2898 75.8534 43.933 75.163C43.3826 74.0988 42.6978 73.7129 41.3607 73.7129C38.6348 73.7129 37.0146 71.2071 38.2256 68.8649C38.9948 67.378 39.3385 67.3151 47.5454 67.1617L55.1592 67.0191L55.855 66.307C56.8642 65.2746 56.9481 63.6734 56.0508 62.5645C55.5075 61.8926 55.5009 61.8921 47.341 61.7496L39.175 61.6072L38.2004 60.5433C37.4411 59.7145 37.226 59.235 37.226 58.3743ZM23.8384 58.3819C23.8384 57.3441 24.0006 56.9731 24.807 56.1667L25.7753 55.1984H28.6743C31.4983 55.1984 31.5944 55.2198 32.4055 56.0309C33.0971 56.7225 33.2383 57.0976 33.2383 58.2464C33.2383 60.7758 31.9316 61.7496 28.5382 61.7496C25.2108 61.7496 23.8384 60.7664 23.8384 58.3819ZM70.9999 76.3186C73.0259 70.1892 78.1398 65.3831 84.2243 63.8906C86.3514 63.3686 90.5202 63.3732 92.7544 63.8998C94.8361 64.3907 97.9049 65.814 98.6458 66.6328C99.1231 67.1606 99.0906 67.2251 97.7571 68.3984L96.3731 69.6167L94.8404 68.7864C87.2665 64.6841 77.691 68.7609 74.6472 77.3837C73.8239 79.7153 73.7202 83.8665 74.4244 86.2652C75.7985 90.9435 79.1499 94.529 83.6241 96.1086C85.9506 96.9299 89.8525 97.0283 92.2194 96.3256C100.043 94.0028 104.541 86.3396 102.483 78.8401C102.203 77.8217 101.887 76.7927 101.781 76.5534C101.644 76.2462 102.019 75.7892 103.051 75.0015C104.437 73.9445 104.536 73.913 104.9 74.4101C105.111 74.699 105.576 75.782 105.934 76.8166C106.888 79.5766 106.873 84.9375 105.903 87.8996C104.986 90.6972 103.55 92.9912 101.271 95.2959C99.1448 97.4471 97.0942 98.7863 94.2627 99.873C92.546 100.532 91.9345 100.611 88.4969 100.62C85.2116 100.629 84.3768 100.535 82.7645 99.9779C77.8161 98.2675 74.0188 94.8191 71.77 89.9934C69.7397 85.6369 69.4744 80.9322 70.9999 76.3186ZM14.4388 70.7364C14.4388 69.3174 15.0799 68.192 16.2042 67.6381C16.9975 67.2469 18.2861 67.1736 24.4409 67.1682C31.4137 67.1619 31.7708 67.1881 32.4932 67.7563C33.3188 68.4059 34.0927 69.7099 34.0927 70.4513C34.0927 71.3486 33.1566 72.886 32.3595 73.2981C31.7162 73.6308 30.0547 73.7129 23.9666 73.7129H16.3757L15.4072 72.7446C14.6595 71.9968 14.4388 71.5389 14.4388 70.7364ZM2.39206 73.1386C0.33751 71.5227 0.982944 68.2426 3.51318 67.4402C3.96065 67.2984 5.26893 67.2127 6.42024 67.2501C8.44943 67.316 8.54429 67.3514 9.5159 68.4115C10.4317 69.4108 10.5051 69.6178 10.3701 70.8165C10.257 71.8179 10.0124 72.3153 9.33529 72.9205C8.49902 73.6673 8.29536 73.7129 5.78507 73.7129C3.54651 73.7129 3.0056 73.6215 2.39206 73.1386ZM92.0267 76.3154C94.08 74.7705 96.6508 72.9157 97.7389 72.194C98.827 71.4717 99.7666 70.9306 99.8271 70.991C99.8873 71.051 98.8779 72.5537 97.5837 74.3293C96.2896 76.1052 94.2269 79.0244 92.9994 80.8165C91.7721 82.6083 90.4174 84.3061 89.9888 84.5885C87.9883 85.9076 85.3837 84.5373 85.37 82.1583C85.3652 81.2865 85.5619 80.8636 86.3322 80.0933C86.8648 79.5606 87.5241 79.1248 87.7968 79.1248C88.0697 79.1248 89.973 77.8607 92.0267 76.3154ZM49.0869 76.2477C49.1119 75.2988 49.2896 74.8788 49.8822 74.3693C50.5828 73.7666 50.9119 73.7129 53.9177 73.7129C57.0129 73.7129 57.2285 73.7508 57.8896 74.4121C58.8909 75.4134 58.8735 77.3336 57.8544 78.292C57.1874 78.9193 56.8387 78.9912 54.0411 79.0781C50.9671 79.1733 50.9599 79.1721 50.0083 78.3215C49.192 77.5921 49.0596 77.2946 49.0869 76.2477ZM22.1294 82.3753C22.1294 81.0923 22.9051 79.8258 23.949 79.404C24.2799 79.2705 25.4862 79.1527 26.63 79.1428C29.8151 79.1151 31.2443 80.124 31.2443 82.4006C31.2443 84.5951 29.7403 85.6762 26.6868 85.6762C23.6212 85.6762 22.1294 84.5957 22.1294 82.3753ZM0.202775 95.3753C-0.451215 93.7964 0.546867 91.6019 2.19067 91.0037C2.42566 90.9182 3.68806 90.8379 4.99634 90.8258C7.33372 90.8034 7.39154 90.8201 8.34319 91.7718C9.12593 92.5545 9.31165 92.9616 9.31165 93.8945C9.31165 96.5839 8.24466 97.3546 4.52208 97.3546C1.68822 97.3546 0.866735 96.9784 0.202775 95.3753ZM49.3187 102.067C48.3581 101.107 48.3576 99.4291 49.3178 98.3931C50.0142 97.642 50.0317 97.6393 54.3246 97.6393H58.6326L59.4654 98.4721C60.0336 99.0403 60.2979 99.5899 60.2979 100.203C60.2979 100.816 60.0336 101.366 59.4654 101.934L58.6326 102.767H54.3251C50.1317 102.767 49.9993 102.748 49.3187 102.067ZM15.2933 106.294C15.2933 105.189 15.442 104.84 16.2617 104.02L17.2302 103.051H22.9249L23.8089 104.058C25.3905 105.859 24.8591 108.423 22.7206 109.309C22.1884 109.53 20.9445 109.624 19.4118 109.561C17.0519 109.464 16.9228 109.424 16.1245 108.53C15.4622 107.789 15.2933 107.334 15.2933 106.294Z" fill="#4ADE80"/>
</svg>
