<svg width="1200" height="366" viewBox="0 0 1200 366" fill="none" xmlns="http://www.w3.org/2000/svg">
<path d="M206.793 308.526H104.754C90.3305 308.526 78.5956 296.792 78.5956 282.368V247.903C78.5956 241.684 83.6373 236.642 89.8565 236.642C96.0758 236.642 101.118 241.684 101.118 247.903V282.368C101.118 284.372 102.748 286.004 104.754 286.004H206.793C213.012 286.004 218.054 291.046 218.054 297.265C218.054 303.484 213.012 308.526 206.793 308.526Z" fill="#065F46"/>
<path d="M302.282 254.962L256.97 299.052V347.869C256.97 353.801 264.132 356.783 268.343 352.605L366.738 254.963L268.343 157.321C264.132 153.143 256.97 156.125 256.97 162.057V210.874L302.282 254.962Z" fill="#A3E635"/>
<path d="M374.67 246.969L276.274 149.327C272.883 145.962 268.415 144.11 263.69 144.11C253.776 144.11 245.71 152.16 245.71 162.057V201.399H173.303C167.084 201.399 162.042 206.44 162.042 212.66C162.042 218.879 167.084 223.921 173.303 223.921H254.233L286.136 254.962L249.119 290.98C246.941 293.099 245.712 296.01 245.712 299.051V347.868C245.712 357.763 253.778 365.813 263.692 365.815H263.693C268.417 365.815 272.886 363.961 276.277 360.597L374.672 262.955C376.802 260.841 378.001 257.963 378.001 254.961C378 251.961 376.8 249.083 374.67 246.969ZM268.231 336.851V303.807L310.134 263.033C312.313 260.914 313.542 258.003 313.542 254.962C313.542 251.922 312.314 249.012 310.134 246.891L268.231 206.118V173.074L350.75 254.962L268.231 336.851Z" fill="#065F46"/>
<path d="M288.141 129.172C281.922 129.172 276.88 124.13 276.88 117.911V83.4461C276.88 81.4417 275.249 79.8101 273.244 79.8101H171.205C164.985 79.8101 159.944 74.7684 159.944 68.5492C159.944 62.3299 164.985 57.2882 171.205 57.2882H273.244C287.667 57.2882 299.402 69.0224 299.402 83.4461V117.911C299.402 124.13 294.36 129.172 288.141 129.172Z" fill="#065F46"/>
<path d="M75.7164 110.853L121.028 66.7632V17.9467C121.028 12.0147 113.866 9.03277 109.656 13.2107L11.261 110.853L109.656 208.496C113.866 212.674 121.028 209.692 121.028 203.76V154.942L75.7164 110.853Z" fill="#A3E635"/>
<path d="M204.695 141.896H123.765L91.8625 110.854L128.879 74.8356C131.058 72.716 132.287 69.8057 132.287 66.7647V17.9468C132.287 8.05093 124.221 0 114.307 0C109.582 0 105.114 1.85382 101.723 5.21741L3.3289 102.86C1.19823 104.974 0 107.852 0 110.853C0 113.854 1.19823 116.733 3.3289 118.847L101.724 216.489C105.114 219.853 109.583 221.706 114.308 221.706C118.902 221.706 123.282 219.978 126.643 216.838C130.283 213.436 132.289 208.791 132.289 203.76V164.418H204.696C210.915 164.418 215.957 159.376 215.957 153.157C215.957 146.937 210.915 141.896 204.695 141.896ZM109.767 192.741L27.2484 110.853L109.767 28.9649V62.0087L67.864 102.782C65.6854 104.902 64.4561 107.812 64.4561 110.853C64.4561 113.894 65.6846 116.804 67.864 118.924L109.767 159.698V192.741Z" fill="#065F46"/>
<path d="M525.418 208.38C548.866 208.38 571.175 199.046 587.566 182.428L596.444 173.094L566.167 147.37L562.069 152.378C552.736 163.078 539.532 169.224 525.418 169.224C498.783 169.224 477.156 147.825 477.156 121.19C477.156 94.7825 498.783 73.1558 525.418 73.1558C539.304 73.1558 552.508 79.0748 561.614 89.7743L565.939 94.5549L595.762 68.6028L590.07 62.6839C588.932 61.5457 588.021 60.4074 586.883 59.4968C570.72 43.106 548.638 34 525.418 34V46.7484C544.768 46.7484 563.435 54.2609 577.322 67.9199L566.85 76.7982C555.695 66.3263 540.898 60.4074 525.418 60.4074C494.002 60.4074 468.05 84.3107 464.863 114.816H438V121.19C438 169.224 477.156 208.38 525.418 208.38ZM464.863 127.564C468.05 158.069 494.002 181.972 525.418 181.972C541.126 181.972 556.15 176.054 567.305 165.126L577.777 174.005C563.891 187.891 544.996 195.631 525.418 195.631C486.49 195.631 454.391 165.582 451.204 127.564H464.863Z" fill="#A3E635"/>
<path d="M658.821 38.5532H646.072V186.526H631.503V38.5532H618.754V186.526V199.274H631.503H646.072H658.821H732.579V159.208H658.821V38.5532ZM719.831 171.956V186.526H658.821V171.956H719.831Z" fill="#A3E635"/>
<path d="M799.963 53.8054L856.876 186.525H842.079L799.963 88.6359L752.612 199.274H766.271L799.963 120.962L828.192 186.525H804.061V199.274H876.226L807.021 38.0975H792.906L750.563 136.898H764.222L799.963 53.8054Z" fill="#A3E635"/>
<path d="M1002.57 105.255C989.824 99.108 974.799 94.7827 960.229 90.4573C952.489 88.1808 941.107 84.766 933.139 81.5789C936.326 79.0748 942.473 76.1153 951.351 76.1153C964.099 76.1153 971.384 82.2619 972.067 84.3108V90.6849H1010.54V77.2536C1006.21 54.7163 981.401 37.1871 951.351 37.1871C919.935 37.1871 893.983 56.3098 891.707 80.6683H891.479V90.4573C891.479 111.173 919.48 119.369 949.302 128.02C966.831 133.256 988.003 139.402 995.515 147.37H989.141V160.118H1037.63V153.744C1037.63 133.483 1025.34 116.637 1002.57 105.255ZM1010.08 147.37C1006.67 136.898 995.06 131.207 990.735 128.93C980.263 123.694 966.376 119.597 952.945 115.727C931.318 109.352 904.228 101.612 904.228 90.4573V84.0831C904.228 65.1882 925.399 49.7079 951.351 49.7079C974.344 49.7079 993.466 61.7734 997.564 77.7089H982.994C978.441 70.1964 966.831 63.5947 951.351 63.5947C931.546 63.5947 917.886 74.2942 917.886 84.0831V88.4084L921.301 90.2297C929.041 94.555 945.66 99.3357 956.587 102.75C970.701 106.848 985.043 110.946 996.881 116.637C1008.04 122.328 1021.24 131.89 1024.2 147.37H1010.08ZM944.977 200.64H957.725V161.712H951.351C938.603 161.712 931.546 155.565 930.635 153.516V147.37H892.162V160.118C895.804 181.29 917.659 198.136 944.977 200.64ZM905.138 160.118H919.708C923.578 166.492 932.684 172.411 944.977 174.005V187.664C924.944 185.615 908.781 174.46 905.138 160.118Z" fill="#A3E635"/>
<path d="M1164.89 105.255C1152.14 99.108 1137.11 94.7827 1122.54 90.4573C1114.8 88.1808 1103.42 84.766 1095.45 81.5789C1098.64 79.0748 1104.79 76.1153 1113.67 76.1153C1126.41 76.1153 1133.7 82.2619 1134.38 84.3108V90.6849H1172.85V77.2536C1168.53 54.7163 1143.71 37.1871 1113.67 37.1871C1082.25 37.1871 1056.3 56.3098 1054.02 80.6683H1053.79V90.4573C1053.79 111.173 1081.79 119.369 1111.62 128.02C1129.15 133.256 1150.32 139.402 1157.83 147.37H1151.46V160.118H1199.94V153.744C1199.94 133.483 1187.65 116.637 1164.89 105.255ZM1172.4 147.37C1168.98 136.898 1157.37 131.207 1153.05 128.93C1142.58 123.694 1128.69 119.597 1115.26 115.727C1093.63 109.352 1066.54 101.612 1066.54 90.4573V84.0831C1066.54 65.1882 1087.71 49.7079 1113.67 49.7079C1136.66 49.7079 1155.78 61.7734 1159.88 77.7089H1145.31C1140.76 70.1964 1129.15 63.5947 1113.67 63.5947C1093.86 63.5947 1080.2 74.2942 1080.2 84.0831V88.4084L1083.62 90.2297C1091.36 94.555 1107.97 99.3357 1118.9 102.75C1133.02 106.848 1147.36 110.946 1159.2 116.637C1170.35 122.328 1183.55 131.89 1186.51 147.37H1172.4ZM1107.29 200.64H1120.04V161.712H1113.67C1100.92 161.712 1093.86 155.565 1092.95 153.516V147.37H1054.48V160.118C1058.12 181.29 1079.97 198.136 1107.29 200.64ZM1067.45 160.118H1082.02C1085.89 166.492 1095 172.411 1107.29 174.005V187.664C1087.26 185.615 1071.09 174.46 1067.45 160.118Z" fill="#A3E635"/>
<path d="M454.035 326.655H513.099V319.172H445.483V290.308H454.035V310.62H513.099V303.136H461.518V290.308H493.99V266.79H461.518V254.496H513.099V247.013H454.035V266.79H445.483V238.461H513.099V230.978H438V266.79V303.136V326.655H445.483H454.035ZM445.483 274.273H486.507V282.825H445.483V274.273Z" fill="#22C55E"/>
<path d="M568.555 279.083L564.011 272.536L535.281 231.646H526.195L559.334 279.083L526.061 326.521H535.281L564.011 285.497L568.555 279.083ZM573.766 286.433L569.223 292.981L545.704 326.521H554.791L573.766 299.528L592.741 326.521H601.828L578.309 292.981L573.766 286.433ZM588.198 279.083L621.337 231.646H612.251L583.521 272.536L578.309 265.052L601.828 231.646H592.607L573.766 258.505L554.924 231.646H545.704L569.223 265.052L573.766 271.6L578.977 279.083L583.521 285.497L612.251 326.521H621.471L588.198 279.083Z" fill="#22C55E"/>
<path d="M680.668 332C694.432 332 707.527 326.521 717.148 316.766L722.36 311.288L704.587 296.188L702.182 299.128C696.703 305.408 688.953 309.016 680.668 309.016C665.033 309.016 652.339 296.455 652.339 280.821C652.339 265.32 665.033 252.625 680.668 252.625C688.819 252.625 696.57 256.099 701.915 262.38L704.454 265.186L721.959 249.953L718.618 246.478C717.95 245.81 717.415 245.142 716.747 244.608C707.26 234.986 694.298 229.641 680.668 229.641V237.124C692.026 237.124 702.984 241.534 711.135 249.552L704.988 254.763C698.44 248.616 689.755 245.142 680.668 245.142C662.227 245.142 646.994 259.173 645.123 277.079H629.355V280.821C629.355 309.016 652.339 332 680.668 332ZM645.123 284.562C646.994 302.468 662.227 316.499 680.668 316.499C689.888 316.499 698.708 313.025 705.255 306.611L711.402 311.822C703.251 319.974 692.16 324.517 680.668 324.517C657.818 324.517 638.976 306.878 637.105 284.562H645.123Z" fill="#22C55E"/>
<path d="M743.339 326.388H751.892V326.655H759.375V291.11H800.532V326.655H808.015V326.388H816.567V326.655H824.05V232.047H800.532V267.592H743.339V239.53H759.375V232.047H735.856V283.627V326.655H743.339V326.388ZM808.015 239.53H816.567V291.11V318.905H808.015V267.592V239.53ZM743.339 275.075H800.532V283.627H743.339V275.075ZM743.339 291.11H751.892V318.905H743.339V291.11Z" fill="#22C55E"/>
<path d="M867.346 241.267L900.752 319.172H892.067L867.346 261.712L839.551 326.655H847.569L867.346 280.687L883.915 319.172H869.751V326.655H912.111L871.488 232.047H863.203L838.348 290.041H846.366L867.346 241.267Z" fill="#22C55E"/>
<path d="M984.804 281.756L945.651 231.913H936.164L984.804 293.916V307.813L944.181 256.099V255.966H944.048L928.146 235.654L925.206 231.913H920.663V238.193V326.521H928.146V247.815L936.698 258.638V326.521H944.181V268.126L984.804 319.973V326.521H990.016H992.287V317.301V303.537V291.377V231.913H984.804V281.756ZM1000.84 231.913V302.201V314.361V326.521H1008.32V323.849V311.822V231.913H1000.84Z" fill="#22C55E"/>
<path d="M1069.39 331.599C1084.36 331.599 1098.65 325.051 1108.41 313.559L1109.34 312.49V302.335V294.852V286.834V279.351H1101.86H1093.84H1086.36H1076.87H1069.39V286.834V302.335H1086.36V303.003C1081.42 306.611 1075.54 308.615 1069.39 308.615C1053.76 308.615 1041.19 296.054 1041.19 280.42C1041.19 264.919 1053.76 252.224 1069.39 252.224C1077.54 252.224 1085.29 255.699 1090.77 261.979L1093.18 264.785L1110.68 249.552L1106.94 245.677C1106.54 245.142 1106 244.608 1105.47 244.207C1095.98 234.586 1083.02 229.24 1069.39 229.24C1047.48 229.24 1028.77 243.004 1021.42 262.38H1029.57C1036.38 247.28 1051.62 236.724 1069.39 236.724C1080.75 236.724 1091.71 241.133 1099.86 249.151L1093.71 254.362C1087.16 248.216 1078.48 244.741 1069.39 244.741C1052.42 244.741 1038.12 256.634 1034.51 272.536H1026.36H1018.75C1018.34 274.941 1018.21 277.48 1018.21 280.019C1018.21 280.153 1018.21 280.286 1018.21 280.42C1018.21 283.761 1018.48 286.968 1019.01 290.175C1023.69 313.827 1044.4 331.599 1069.39 331.599ZM1025.69 280.42C1025.69 280.286 1025.69 280.153 1025.69 280.019H1033.71C1033.71 280.153 1033.71 280.286 1033.71 280.42C1033.71 300.063 1049.61 316.098 1069.39 316.098C1077.81 316.098 1086.09 313.159 1092.51 307.68L1093.84 306.477V302.335V294.852H1086.36H1076.87V286.834H1086.36H1093.84H1101.86V294.852V302.335V309.684C1093.58 318.905 1081.82 324.116 1069.39 324.116C1048.54 324.116 1031.17 309.551 1026.76 290.175C1025.96 286.968 1025.69 283.761 1025.69 280.42Z" fill="#22C55E"/>
<path d="M1140.88 326.655H1199.94V319.172H1132.33V290.308H1140.88V310.62H1199.94V303.136H1148.36V290.308H1180.84V266.79H1148.36V254.496H1199.94V247.013H1140.88V266.79H1132.33V238.461H1199.94V230.978H1124.85V266.79V303.136V326.655H1132.33H1140.88ZM1132.33 274.273H1173.35V282.825H1132.33V274.273Z" fill="#22C55E"/>
</svg>
