<svg width="196" height="233" viewBox="0 0 196 233" fill="none" xmlns="http://www.w3.org/2000/svg">
<path fill-rule="evenodd" clip-rule="evenodd" d="M86.5999 76.9508C92.7546 77.2547 102.338 79.8943 102.817 81.5813C103.565 84.2155 101.957 94.0913 104.646 99.4108C105.792 101.678 110.145 101.475 111.831 102.214C117.474 104.685 134.18 109.371 137.624 115.272C139.004 117.636 147.484 146.969 151.99 161.934C152.498 163.621 153.072 165.181 153.696 166.627L153.925 165.504C155.762 156.459 156.681 150.983 156.681 149.077C156.681 146.099 154.306 133.532 156.681 130.336C159.032 127.172 164.698 124.585 167.248 124.534L167.324 124.533C168.998 124.533 170.45 124.01 171.681 122.963L173.486 122.055C182.668 117.446 188.032 114.918 189.579 114.47C192.047 113.756 196.248 115.277 194.148 117.561C192.747 119.083 189.228 121.776 183.591 125.64L181.465 127.329L181.722 127.464C184.469 128.91 186.084 130.128 186.568 131.117C187.066 132.136 186.827 133.342 185.851 134.734L185.999 134.878C187.234 136.09 187.851 136.904 187.851 137.318V139.341C189.08 141.14 189.387 142.642 188.772 143.844C188.158 145.046 187.184 146.088 185.851 146.969C184.868 149.555 183.698 151.396 182.34 152.491C180.982 153.586 178.635 154.497 175.299 155.225L172.281 162.446L169.835 172.589L168.602 183.908L168.96 184.167C170.619 185.375 171.681 186.271 171.681 187.197C171.681 188.639 164.989 222.557 154.577 224.075C152.325 224.403 140.647 222.793 136.813 219.672L136.869 220.009C137.771 225.46 137.581 228.291 136.297 228.502C120.518 231.09 75.7042 231.889 1.85632 230.901C1.41696 191.691 3.40366 165.577 7.81644 152.561C19.1023 119.27 31.5456 107.9 35.8988 106.926C39.7121 106.073 52.935 100.808 56.6314 99.4108C59.0442 98.4987 59.5611 95.7639 62.3107 95.7639L62.533 95.765C65.192 95.7917 67.5501 96.2675 68.8749 94.8994C72.3516 91.3092 71.3797 86.3396 72.822 81.5813C73.6167 78.9595 79.0473 76.578 86.5999 76.9508Z" fill="white"/>
<path fill-rule="evenodd" clip-rule="evenodd" d="M69.6909 86.3517C70.0521 85.6357 71.0111 85.7284 71.6438 86.0533C73.5417 87.4412 71.556 90.1315 71.031 91.8253C69.6805 95.1105 67.335 98.3211 64.0972 99.8566C64.3655 103.122 64.6695 106.381 64.7817 109.657C68.9214 114.794 75.9011 116.669 82.0969 118.11C91.8281 120.803 102.811 115.287 106.095 105.664C102.357 103.54 101.147 97.9764 102.263 94.0952C102.36 93.8225 102.782 93.702 102.932 94.0064C103.956 96.1125 103.819 98.6819 104.983 100.763C116.152 101.832 130.567 106.048 137.884 115.084C141.127 119.605 142.412 125.485 144.009 130.724C147.417 141.526 150.132 152.546 153.474 163.359L153.868 161.313C154.948 155.677 155.929 149.965 155.2 144.234L155.186 143.959C154.948 139.399 153.522 130.924 157.057 127.845C160.255 125.401 164.888 123.436 168.901 124.563C176.042 121.384 182.206 116.03 189.812 113.945C192.153 113.463 195.52 114.034 194.967 117.211C193.434 122.767 187.012 124.924 182.622 127.789C185.436 128.551 188.867 131.975 186.668 134.96C186.649 135.013 186.632 135.053 186.615 135.084C188.398 135.875 188.648 137.862 188.211 139.565C188.166 140.015 188.048 139.628 188.312 140.036C190.324 141.934 189.435 147.225 186.404 147.404C186.603 149.911 184.993 152.345 182.954 153.713C180.757 155.186 177.58 155.249 175.76 157.266C171.489 164.8 170.016 173.694 169.55 182.322C172.366 183.376 174.892 186.529 172.334 189.204C172.283 189.21 172.233 189.215 172.182 189.22C170.699 193.178 170.126 197.399 169.342 201.533C168.135 208.588 164.991 215.065 160.976 220.942C156.333 228.721 143.847 227.488 137.557 222.467C137.582 223.784 137.799 225.094 137.377 226.366C136.755 227.74 135.238 227.146 135.087 225.794C131.762 227.665 130.979 221.49 134.675 222.469C134.391 218.005 134.226 213.535 134.092 209.063C129.908 210.418 129.727 203.473 134.008 204.862L134.003 202.942C133.971 188.219 134.134 173.445 136.076 158.838C136.256 157.745 136.56 156.689 136.737 155.602C136.756 155.49 136.932 155.522 136.932 155.63C137.233 176.08 135.897 196.574 137.291 217.031C138.451 217.385 138.914 218.717 139.773 219.493C141.681 221.255 144.278 222.113 146.819 222.412C153.932 223.41 157.003 221.236 160.171 215.051C158.742 216.006 156.812 214.319 157.683 212.808L157.71 212.762C158.614 211.16 161.168 212.12 160.845 213.914C164.03 208.812 165.697 203.059 166.928 197.221L167.094 196.524C167.693 194.046 168.469 191.206 169.906 188.964C161.143 186.73 152.57 179.922 151.198 170.582C148.973 177.575 145.959 184.411 143.086 191.213C142.199 193.578 141.829 196.12 140.557 198.314C140.261 198.821 139.511 198.69 139.344 198.155C138.2 193.039 141.666 188.173 143.466 183.568C144.935 180.965 149.153 169.079 151.769 169.051C148.83 156.165 144.91 143.376 141.178 130.651C137.568 113.468 130.212 110.155 114.63 104.745C117.44 119.074 130.273 132.944 123.444 147.973L123.278 148.362C122.58 150.019 122 151.689 122.487 153.508C122.961 155.273 124.038 156.805 124.9 158.392C129.719 167.358 126.402 177.829 124.539 187.165C122.185 198.115 119.86 209.074 117.427 220.007C116.948 222.188 116.637 224.435 115.913 226.548C115.539 227.639 113.673 227.535 113.794 226.263C114.024 223.794 114.717 221.387 115.224 218.963C118.253 203.268 122.352 187.758 124.958 171.995C126.635 160.326 120.035 158.532 120.281 150.993C121.178 147.137 123.553 143.695 123.417 139.586C123.944 127.007 114.786 116.63 113.655 104.396L111.658 103.684C110.66 103.326 109.664 102.966 108.67 102.597C113.9 139.187 112.312 176.577 109.698 213.347C109.163 215.044 109.672 226.896 107.432 225.845C107.319 226.507 106.968 227.158 106.203 227.155C99.2584 227.218 92.3119 227.328 85.3676 227.411C82.0272 227.103 77.436 228.379 74.5948 226.451C71.3145 225.514 70.9374 216.627 70.0604 213.459L69.7185 211.156C64.1444 173.512 59.1562 135.092 63.1629 97.076C57.5884 97.2904 56.4379 103.309 56.0244 107.691C54.9907 117.363 48.7439 125.692 48.4443 135.475C48.419 137.849 48.8669 140.148 49.8152 142.327C52.3314 147.667 56.6831 153.839 53.4307 159.802C49.5841 164.444 49.9171 165.666 51.3286 171.403C55.2998 190.368 61.8947 208.6 68.1683 226.885C66.8052 233.992 58.6063 207.608 57.835 205.618C54.2056 207.444 52.2231 201.385 56.3859 200.954C53.7121 192.001 51.2514 182.98 49.2028 173.861L49.1485 173.604C48.2436 169.39 46.4636 164.456 49.4694 160.719C57.22 152.878 44.3489 144.114 45.9725 134.615C44.5705 135.655 42.4483 134.561 42.4802 132.815C42.4167 130.848 45.0571 129.841 46.3276 131.341C47.634 123.635 52.1789 116.907 53.5543 109.223L53.6164 108.862C54.0824 106.147 54.2138 103.289 55.5472 100.814C53.7322 101.993 51.7993 102.947 49.8112 103.788C53.3658 106.758 46.4825 109.469 47.0521 104.88C27.5588 110.522 23.1529 118.39 15.9957 136.458C17.3326 135.159 19.6228 136.84 18.8225 138.498C18.1841 140.243 15.3989 139.733 15.4 137.872L15.0738 138.65C10.7338 149.032 6.78365 159.665 4.79856 170.775C8.69264 170.225 7.70117 176.451 4.173 174.696C2.75708 184.576 2.73469 194.597 2.90771 204.557C6.19229 202.834 6.29117 208.689 2.9394 207.02C3.06194 215.182 3.24152 223.344 3.37673 231.507C3.40419 233.244 0.72532 233.235 0.683066 231.507C0.370179 218.965 -0.200031 206.4 0.071025 193.855C-0.183975 172.08 6.07335 151.093 15.3966 131.588C23.646 109.129 35.0409 106.574 56.0056 100.044C57.9408 97.1707 62.0753 94.4528 65.4486 96.2573C67.3359 93.2096 68.2944 89.5989 69.6909 86.3517ZM33.7718 164.627C33.85 164.35 34.2451 164.42 34.2577 164.692C34.4331 168.216 34.2768 171.762 34.0359 175.3C33.8899 177.46 33.7106 179.618 33.5584 181.763C33.1549 187.423 32.8296 193.09 32.5824 198.76C32.669 198.724 32.7577 198.692 32.8507 198.667C33.2775 198.551 33.7044 198.551 34.131 198.667C34.5115 198.773 34.8443 198.959 35.1308 199.228L35.1915 199.286C35.426 199.504 35.5929 199.762 35.6901 200.06C35.8286 200.325 35.8986 200.608 35.8985 200.912L35.897 200.988C35.8951 201.423 35.7873 201.827 35.5676 202.203C35.3542 202.564 35.0669 202.852 34.7056 203.067C34.3296 203.285 33.9258 203.393 33.4908 203.395C33.4444 203.399 33.3977 203.403 33.3514 203.406C33.0279 203.418 32.726 203.351 32.447 203.205L32.4049 203.192C32.2993 206.069 32.2127 208.947 32.1493 211.826C32.0922 214.334 32.0162 216.843 31.9655 219.352L31.9419 220.607L31.896 223.38C31.881 224.521 31.8883 225.613 31.5007 226.689L31.4542 226.813C31.1753 227.531 30.9579 228.531 30.2117 228.93C29.6162 229.249 28.8134 229.131 28.4711 228.51C28.1838 227.99 28.4329 227.241 28.8577 226.891C28.8493 226.868 28.8366 226.846 28.826 226.823C28.7606 226.633 28.661 226.453 28.6021 226.261C28.416 225.652 28.4669 225.003 28.4648 224.371C28.4648 223.256 28.5026 222.14 28.5324 221.026C28.5979 218.654 28.6739 216.285 28.7667 213.916C29.0807 205.968 29.672 198.02 30.3492 190.095L30.579 187.42C30.8852 183.863 31.2021 180.302 31.6507 176.763C31.6716 176.594 31.6929 176.425 31.7162 176.255C31.4753 176.135 31.2514 175.968 31.0737 175.782C30.362 175.034 29.9302 173.917 29.5254 172.954L29.4324 172.734C28.9929 171.707 28.5873 170.667 28.3782 169.564L28.3581 169.463C28.2627 168.993 28.0744 168.16 28.5725 167.932C28.8324 167.814 28.997 167.899 29.0817 168.159C29.0925 168.192 29.0836 168.231 29.0648 168.26C29.2697 168.575 29.5908 168.869 29.7936 169.16L30.4878 170.153L30.831 170.652C31.2662 171.293 31.731 171.906 32.2106 172.51C32.5885 169.856 33.0514 167.212 33.7718 164.627ZM62.238 223.782C63.1063 223.101 64.5197 223.471 64.5197 224.727C64.5197 225.988 63.1042 226.352 62.238 225.671L62.1949 225.639L62.1535 225.606C61.6818 225.237 61.666 224.277 62.1179 223.877L62.1535 223.847C62.1808 223.824 62.2085 223.803 62.238 223.782ZM24.4119 221.328L24.4865 221.33C24.8795 221.33 25.245 221.429 25.5851 221.628C25.733 221.74 25.8788 221.854 26.0267 221.968C26.2971 222.239 26.483 222.56 26.5865 222.93L26.6649 223.509C26.6753 223.809 26.614 224.088 26.4767 224.348C26.388 224.619 26.238 224.853 26.0267 225.05C25.8281 225.263 25.5957 225.413 25.3255 225.5C25.0871 225.626 24.8329 225.69 24.5611 225.69L24.4865 225.688C24.0917 225.688 23.726 225.589 23.3858 225.39C23.238 225.278 23.0922 225.164 22.9443 225.05C22.676 224.779 22.488 224.458 22.3846 224.088C22.3591 223.896 22.3339 223.701 22.3063 223.509C22.2959 223.209 22.3591 222.93 22.4943 222.67C22.583 222.399 22.733 222.165 22.9443 221.968C23.1431 221.755 23.3753 221.605 23.6457 221.518C23.8839 221.392 24.1399 221.329 24.4119 221.328ZM123.309 217.31L123.863 217.384C124.393 217.505 124.82 217.896 125.105 218.342C125.257 218.58 125.339 218.838 125.352 219.115C125.413 219.39 125.401 219.667 125.314 219.944C125.251 220.214 125.126 220.451 124.942 220.652C124.879 220.751 124.805 220.842 124.721 220.922C124.547 221.212 124.285 221.402 124.015 221.596C123.787 221.742 123.539 221.82 123.273 221.833C123.098 221.88 122.92 221.88 122.743 221.833C122.479 221.82 122.232 221.742 122.003 221.596C121.868 221.493 121.733 221.387 121.6 221.284C121.482 221.146 121.372 221.005 121.268 220.857C121.199 220.694 121.131 220.533 121.063 220.373C120.939 219.986 121 219.644 121.068 219.257C121.078 219.191 121.095 219.132 121.118 219.068L121.164 218.946C121.286 218.625 121.351 218.516 121.566 218.236L121.648 218.126C121.689 218.071 121.731 218.018 121.78 217.97C121.915 217.83 122.107 217.714 122.259 217.593C122.584 217.405 122.935 217.312 123.309 217.31ZM51.5809 215.957L51.6513 215.958C51.9577 215.96 52.2452 216.036 52.5112 216.19L52.8577 216.458C53.0689 216.672 53.2147 216.921 53.2971 217.211C53.3161 217.363 53.3375 217.515 53.3584 217.665C53.3668 217.9 53.3184 218.12 53.2105 218.325C53.1431 218.536 53.0246 218.718 52.8577 218.874C52.7037 219.039 52.5196 219.157 52.3084 219.227C52.124 219.323 51.9256 219.374 51.7149 219.374L51.6513 219.373C51.3429 219.373 51.0556 219.295 50.7894 219.14L50.4429 218.874C50.2316 218.661 50.0858 218.409 50.0034 218.119C49.9844 217.968 49.9633 217.817 49.9422 217.665C49.9337 217.431 49.9823 217.211 50.0901 217.008C50.1598 216.797 50.276 216.613 50.4429 216.458C50.5971 216.292 50.7809 216.173 50.9922 216.106C51.1766 216.009 51.3713 215.959 51.5809 215.957ZM37.638 215.258C38.0794 215.254 38.5275 215.378 38.8887 215.634C39.2394 215.883 39.5054 216.152 39.6768 216.556C39.7233 216.666 39.7695 216.773 39.8099 216.883C39.9916 217.367 40.0254 217.853 39.774 218.327C39.531 218.785 39.0071 218.986 38.5378 219.123C38.1409 219.242 37.6909 219.261 37.2958 219.119C37.0993 219.05 36.9071 218.976 36.7296 218.868C36.3979 218.663 36.2183 218.42 35.9965 218.119C35.8232 217.824 35.7366 217.502 35.7366 217.16C35.7366 216.815 35.8232 216.497 35.9965 216.199C36.3364 215.617 36.9662 215.262 37.638 215.258ZM15.2436 215.666C15.8015 215.666 16.2915 215.924 16.6276 216.359C16.9675 216.801 17.0922 217.35 16.9422 217.898C16.7837 218.477 16.3044 218.984 15.7105 219.13C15.2713 219.238 14.9119 219.234 14.4746 219.159C14.1049 219.096 13.822 218.876 13.5387 218.648C13.2154 218.384 13.1161 217.902 13.1689 217.513C13.2196 217.124 13.3994 216.871 13.672 216.64L13.6739 216.634L13.5725 216.712C13.6107 216.678 13.6485 216.642 13.6868 216.606C13.6992 216.585 13.7098 216.562 13.7203 216.539C13.8767 216.273 14.088 216.063 14.352 215.907C14.6288 215.746 14.9246 215.666 15.2436 215.666ZM145.298 209.264C145.604 209.182 145.913 209.182 146.219 209.264C146.445 209.317 146.641 209.421 146.809 209.575C146.978 209.685 147.116 209.826 147.221 210.001L147.254 210.061C147.495 210.471 147.533 210.94 147.429 211.397C147.301 211.961 146.781 212.475 146.219 212.608L146.2 212.611L146.181 212.616C145.953 212.688 145.722 212.699 145.494 212.646C145.264 212.635 145.051 212.568 144.854 212.441C144.605 212.28 144.396 212.073 144.235 211.824C144.108 211.625 144.041 211.412 144.03 211.181C143.99 211.029 143.99 210.877 144.03 210.725C144.041 210.494 144.108 210.281 144.235 210.082L144.505 209.733L144.533 209.71C144.749 209.494 145.004 209.346 145.298 209.264ZM124.027 198.079C126.797 198.079 126.793 202.378 124.027 202.378C121.258 202.378 121.262 198.079 124.027 198.079ZM22.623 197.536C22.9148 197.471 23.2064 197.483 23.4958 197.574C23.6711 197.648 23.8444 197.722 24.0176 197.794L24.4613 198.137C24.5437 198.206 24.5838 198.282 24.6599 198.382L24.7549 198.506C24.8924 198.69 24.8956 198.729 25.0465 199.121C25.1479 199.498 25.1479 199.874 25.0465 200.25C24.9977 200.432 24.924 200.603 24.8289 200.762C24.742 200.914 24.638 201.047 24.5209 201.17L24.4613 201.231C24.2627 201.444 24.0282 201.594 23.7578 201.683C23.5866 201.783 23.4028 201.831 23.2064 201.831C22.9148 201.896 22.623 201.884 22.3338 201.793C22.1585 201.719 21.9852 201.645 21.8118 201.573L21.3683 201.231L21.0261 200.787L20.9169 200.527L20.8063 200.265L20.7282 199.684C20.7176 199.381 20.7789 199.102 20.916 198.84C20.9688 198.656 21.062 198.494 21.197 198.358C21.2944 198.194 21.4252 198.063 21.5902 197.965C21.7252 197.83 21.888 197.737 22.0718 197.684C22.243 197.585 22.4268 197.536 22.623 197.536ZM159.613 194.465C159.844 194.457 160.059 194.505 160.258 194.611C160.327 194.635 160.395 194.664 160.461 194.698C160.716 194.848 160.919 195.051 161.069 195.305C161.192 195.499 161.259 195.708 161.27 195.934C161.316 196.138 161.311 196.343 161.256 196.547L161.238 196.609C161.192 196.776 161.122 196.93 161.029 197.071C161.02 197.088 161.01 197.105 160.997 197.12C160.856 197.344 160.668 197.528 160.435 197.665C160.177 197.813 159.901 197.889 159.601 197.891C159.003 197.891 158.487 197.568 158.173 197.071C158.128 197.001 158.103 196.913 158.071 196.841C158.044 196.773 157.999 196.687 157.976 196.609C157.896 196.308 157.896 196.008 157.976 195.708C158.029 195.488 158.128 195.296 158.278 195.133C158.398 194.949 158.557 194.804 158.754 194.698C158.997 194.556 159.259 194.48 159.537 194.467L159.613 194.465ZM42.6724 192.363C42.9649 192.283 43.2558 192.276 43.5464 192.344L43.6191 192.363C43.8513 192.417 44.0522 192.523 44.2252 192.68C44.4175 192.806 44.5719 192.973 44.6837 193.18C44.8444 193.457 44.9247 193.757 44.9266 194.078C44.9247 194.4 44.8444 194.7 44.6837 194.977C44.5252 195.245 44.3118 195.457 44.0437 195.615L43.8113 195.727C43.617 195.85 43.4099 195.915 43.1858 195.926C43.036 195.966 42.8858 195.966 42.7381 195.926C42.5858 195.926 42.4442 195.888 42.3135 195.812C42.1698 195.772 42.047 195.7 41.9414 195.594C41.7576 195.475 41.6142 195.319 41.5085 195.123L41.3372 194.719L41.2782 194.271L41.3372 193.825L41.4304 193.605C41.5147 193.303 41.667 193.041 41.8886 192.819C42.1104 192.599 42.3724 192.447 42.6724 192.363ZM147.444 188.797C147.753 188.7 148.059 188.687 148.366 188.755C148.572 188.755 148.767 188.808 148.947 188.913C149.143 188.968 149.312 189.065 149.456 189.209C149.707 189.372 149.904 189.587 150.049 189.856L150.282 190.408C150.421 190.765 150.37 191.291 150.286 191.65C150.216 191.946 150.081 192.204 149.88 192.424C149.779 192.595 149.644 192.73 149.472 192.832C149.277 193.01 149.051 193.137 148.795 193.212L148.725 193.231L148.699 193.237C148.695 193.239 148.691 193.239 148.687 193.239C148.685 193.242 148.68 193.242 148.678 193.242C148.577 193.267 148.473 193.282 148.366 193.286C148.059 193.354 147.753 193.341 147.444 193.244C147.263 193.168 147.079 193.089 146.895 193.011C146.739 192.893 146.584 192.772 146.428 192.652C146.308 192.496 146.187 192.339 146.067 192.185C145.898 191.921 145.807 191.633 145.794 191.327C145.739 191.122 145.739 190.919 145.794 190.714C145.794 190.505 145.847 190.312 145.951 190.133C146.044 189.845 146.202 189.598 146.428 189.389C146.584 189.268 146.739 189.148 146.895 189.029C147.079 188.951 147.263 188.873 147.444 188.797ZM12.6979 181.231C13.0167 181.144 13.3359 181.144 13.655 181.231L14.0836 181.41C14.2949 181.524 14.462 181.678 14.5888 181.875C14.7493 182.048 14.8569 182.254 14.9118 182.488C15.0367 182.809 15.0219 183.319 14.9226 183.646C14.8106 184.018 14.6374 184.314 14.369 184.593C13.9233 185.054 13.2386 185.187 12.6324 185.048C12.4653 185.01 12.3069 184.936 12.1632 184.845C11.705 184.562 11.3965 184.067 11.3986 183.52C11.3986 183.46 11.4028 183.401 11.4113 183.342C11.3817 183.222 11.3709 183.097 11.3754 182.966L11.4388 182.488L11.4428 182.475C11.5275 182.173 11.6796 181.911 11.9012 181.689C12.1062 181.486 12.3452 181.339 12.6183 181.251L12.6874 181.231H12.6979ZM172.118 133.772C171.541 129.039 169.371 123.946 162.753 126.726L162.261 126.91C160.624 127.53 158.715 128.345 157.718 129.777C157.032 130.764 157.264 132.677 157.169 133.829C156.738 137.574 156.969 141.314 157.419 145.043C157.999 153.784 156.162 162.841 152.504 170.786C156.165 176.711 161.064 182.238 167.747 184.707C168.03 177.97 169.348 171.357 170.751 164.783L170.807 164.497C171.368 161.532 171.649 158.49 173.595 156.025C177.554 151.725 182.998 154.159 185.603 147.252C185.056 146.975 185.358 146.028 186.018 146.21C188.303 146.616 188.674 142.378 187.11 141.357C185.481 140.363 187.121 138.53 186.427 137.206C186.041 136.636 185.206 136.617 184.828 135.959C183.825 133.539 188.843 131.989 182.942 129.261C181.734 128.831 180.384 129.098 179.166 129.093C177.374 129.26 175.95 130.523 174.311 130.921C176.096 135.543 171.593 139.993 167.53 136.302C165.318 138.393 162.845 143.159 168.221 140.937C170.852 139.18 173.117 136.91 176.171 135.828L176.235 135.808C177.369 135.436 182.33 133.025 182.084 135.112C180.226 136.906 177.161 136.885 175.009 138.342C172.025 139.722 170.117 143.067 166.545 143.02C165.722 148.022 171.396 144.979 173.508 143.6L174.094 143.282C177.075 141.671 180.1 140.179 183.575 140.159C184.534 140.153 184.53 141.632 183.575 141.645C179.046 141.673 175.359 144.505 171.565 146.611C171.191 149.531 175.465 148.253 177.087 147.822C178.788 147.583 181.519 145.743 183.007 146.715C183.589 148.211 181.028 148.1 180.136 148.554C184.207 150.51 180.64 151.742 179.549 148.736L179.229 148.845C176.502 149.761 169.891 151.648 170.678 147.028C169.68 147.47 168.463 147.734 167.361 147.489C164.611 151.557 160.225 149.983 166.6 147.21C165.163 146.541 164.684 143.96 166.064 143C161.045 142.693 164.771 137.426 166.848 135.671C166.652 135.472 166.462 135.27 166.285 135.065C165.087 135.636 163.828 135.983 162.482 136.105C161.194 136.221 160.907 134.028 162.178 133.848C163.541 133.656 164.796 133.292 165.996 132.607C167.814 131.822 168.435 135.197 170.255 135.317C171.248 135.513 171.919 134.643 172.118 133.772ZM129.869 177.329C130.309 177.329 130.699 177.513 131.018 177.805C131.337 178.096 131.475 178.534 131.494 178.952C131.502 179.176 131.456 179.385 131.354 179.58C131.289 179.781 131.177 179.954 131.018 180.102C130.722 180.396 130.285 180.578 129.869 180.578C129.43 180.578 129.039 180.394 128.72 180.102C128.401 179.808 128.263 179.373 128.244 178.952C128.236 178.73 128.283 178.521 128.384 178.327C128.443 178.146 128.539 177.986 128.673 177.849L128.72 177.805C129.016 177.509 129.453 177.329 129.869 177.329ZM143.184 167.306L143.255 167.307C143.627 167.309 143.971 167.402 144.292 167.588C144.432 167.696 144.571 167.801 144.709 167.909C144.964 168.167 145.139 168.469 145.237 168.818C145.336 169.182 145.336 169.547 145.237 169.911C145.203 170.12 145.125 170.323 145.002 170.498C144.82 170.8 144.58 171.044 144.275 171.223C143.96 171.407 143.62 171.498 143.255 171.5C142.89 171.498 142.549 171.407 142.234 171.223C141.93 171.044 141.689 170.8 141.51 170.498C141.385 170.323 141.307 170.12 141.273 169.911C141.174 169.547 141.174 169.182 141.273 168.818C141.363 168.494 141.521 168.21 141.748 167.965L141.801 167.909C141.987 167.709 142.207 167.567 142.463 167.484C142.687 167.366 142.928 167.307 143.184 167.306ZM41.5653 167.419C41.7218 167.376 41.8761 167.376 42.0324 167.419C42.2648 167.429 42.4822 167.499 42.6831 167.626C42.8014 167.719 42.9197 167.81 43.038 167.901L43.1412 168.025C43.3617 168.293 43.3672 168.339 43.5364 168.748C43.6063 168.977 43.6169 169.205 43.5662 169.433C43.5662 169.587 43.5261 169.731 43.4498 169.864C43.4078 170.01 43.3359 170.137 43.2282 170.243C43.1519 170.371 43.0507 170.475 42.9216 170.551C42.7571 170.701 42.5627 170.805 42.3387 170.858L41.8843 170.919C41.8254 170.91 41.7641 170.902 41.7049 170.896C41.6336 170.893 41.5644 170.885 41.4966 170.872L41.428 170.857L41.3655 170.841C41.2828 170.817 41.2022 170.784 41.124 170.743C40.9761 170.701 40.8472 170.627 40.7371 170.517C40.5472 170.395 40.3951 170.23 40.2852 170.025L40.2556 169.957C40.2155 169.885 40.1817 169.811 40.1561 169.731C40.0845 169.604 40.0486 169.469 40.0465 169.323C40.0045 169.129 40.0073 168.937 40.0576 168.745L40.0761 168.68L40.2387 168.294C40.3233 168.163 40.412 168.03 40.5259 167.922C40.5945 167.861 40.7622 167.73 40.8567 167.664L40.9146 167.626C41.1155 167.499 41.3331 167.429 41.5653 167.419ZM16.0951 164.397C16.3993 163.198 17.9711 162.82 18.8267 163.676C19.6822 164.532 19.3042 166.104 18.1065 166.409L17.969 166.442C16.8113 166.736 15.7676 165.69 16.0613 164.532L16.0951 164.397ZM161.103 154.622C161.094 154.503 161.246 154.461 161.322 154.531C162.341 155.444 162.989 156.539 164.225 157.247C165.468 157.957 166.748 157.9 168.043 158.358C168.482 158.515 168.484 159.102 168.043 159.256C165.592 160.113 161.289 157.211 161.103 154.622ZM45.9513 154.436C46.2241 154.351 46.4987 154.338 46.7712 154.4C46.9572 154.4 47.1302 154.446 47.2886 154.539C47.464 154.588 47.6142 154.677 47.7429 154.803C47.8973 154.894 48.0198 155.019 48.1126 155.173C48.2945 155.372 48.417 155.604 48.4802 155.871L48.552 156.418L48.4802 156.966C48.4105 157.128 48.3408 157.293 48.2731 157.456L48.0844 157.712C47.9314 157.916 47.9069 157.918 47.5358 158.193C47.2994 158.343 47.0438 158.426 46.7712 158.437C46.5893 158.487 46.4076 158.487 46.2241 158.437C46.0403 158.437 45.8668 158.39 45.7065 158.297C45.533 158.248 45.3811 158.16 45.252 158.033C45.0283 157.887 44.8529 157.695 44.7238 157.456C44.6541 157.293 44.5846 157.128 44.517 156.966L44.4429 156.418L44.517 155.871L44.521 155.854C44.6182 155.511 44.7917 155.213 45.0408 154.962L45.4508 154.645C45.6112 154.541 45.7781 154.489 45.9513 154.436ZM144.573 154.846C145.158 154.685 145.801 154.854 146.229 155.283C146.658 155.712 146.827 156.352 146.667 156.938C146.508 157.509 146.05 157.971 145.477 158.126C145.306 158.172 145.133 158.198 144.958 158.189C144.664 158.187 144.389 158.113 144.134 157.965L143.804 157.709C143.643 157.562 143.532 157.386 143.466 157.183C143.362 156.989 143.316 156.78 143.324 156.553L143.323 156.513C143.316 156.433 143.327 156.352 143.352 156.274C143.352 156.192 143.365 156.112 143.386 156.033C143.54 155.463 144.005 155.002 144.573 154.846ZM18.4127 149.122C18.6007 149.116 18.776 149.154 18.9387 149.241C19.1098 149.296 19.2556 149.389 19.3782 149.524C19.5134 149.646 19.6063 149.794 19.6613 149.963C19.7479 150.126 19.7859 150.302 19.7796 150.49C19.7796 150.737 19.7162 150.967 19.5937 151.179C19.5218 151.272 19.45 151.365 19.3782 151.456C19.2091 151.627 19.0084 151.743 18.776 151.809L18.6408 151.855C18.4422 151.927 18.2479 151.931 18.0408 151.904C17.8232 151.874 17.6223 151.815 17.4451 151.68C17.2716 151.578 17.1345 151.441 17.0331 151.267L16.9169 150.993C16.8915 150.9 16.881 150.76 16.8746 150.663C16.8746 150.648 16.8746 150.636 16.8725 150.621C16.8725 150.538 16.8979 150.338 16.9188 150.255C16.9655 150.082 17.0603 149.917 17.1683 149.777C17.2613 149.632 17.388 149.517 17.5444 149.433L17.5583 149.422L17.5739 149.412C17.6223 149.378 17.6732 149.344 17.7239 149.308C17.9352 149.186 18.1655 149.122 18.4127 149.122ZM127.509 147.622C127.847 147.622 128.162 147.708 128.454 147.877C128.464 147.881 128.475 147.886 128.483 147.89C128.762 148.055 128.984 148.277 129.149 148.556C129.318 148.845 129.402 149.158 129.402 149.492C129.402 149.828 129.318 150.139 129.149 150.428C128.984 150.708 128.762 150.929 128.483 151.094C128.475 151.1 128.464 151.105 128.454 151.109C128.162 151.278 127.847 151.363 127.509 151.365C127.173 151.363 126.859 151.278 126.567 151.109C125.997 150.775 125.639 150.152 125.639 149.492C125.639 148.832 125.997 148.209 126.567 147.877C126.859 147.708 127.173 147.622 127.509 147.622ZM39.7735 145.178L39.8311 145.177C40.055 145.168 40.2639 145.214 40.4562 145.318C40.6569 145.383 40.8323 145.496 40.9804 145.654L41.2888 145.912L41.3783 145.984C41.3931 145.997 41.4076 146.009 41.4217 146.022C41.6289 146.231 41.7705 146.476 41.8508 146.759C41.8761 146.922 41.897 147.083 41.9142 147.245C41.9604 147.668 41.7113 148.102 41.4367 148.402C41.2888 148.56 41.1132 148.672 40.9106 148.74C40.7163 148.841 40.505 148.888 40.2808 148.879C39.8224 148.839 39.3874 148.742 39.0578 148.387C39.0196 148.344 38.9837 148.3 38.9458 148.256L38.6818 147.951C38.4811 147.749 38.3414 147.51 38.2656 147.235C38.2442 147.089 38.2254 146.945 38.2064 146.802C38.1872 146.368 38.3985 145.963 38.6818 145.654C38.9433 145.368 39.3869 145.194 39.7735 145.178ZM29.1093 140.727C31.3062 140.727 31.302 144.137 29.1093 144.137C26.914 144.137 26.9182 140.727 29.1093 140.727ZM139.577 135.948L139.646 135.949C140.01 135.951 140.35 136.042 140.665 136.226L141.074 136.541C141.324 136.794 141.497 137.09 141.594 137.433C141.617 137.612 141.641 137.792 141.666 137.969C141.677 138.248 141.617 138.508 141.491 138.749C141.411 138.999 141.271 139.216 141.074 139.4C140.891 139.597 140.675 139.736 140.424 139.817C140.183 139.943 139.923 140.003 139.646 139.992C139.281 139.99 138.941 139.899 138.626 139.715C138.489 139.609 138.354 139.504 138.216 139.4C137.986 139.166 137.821 138.896 137.722 138.586L137.699 138.508L137.625 137.969C137.614 137.692 137.673 137.433 137.8 137.192C137.88 136.94 138.02 136.725 138.216 136.541C138.4 136.344 138.618 136.204 138.867 136.124C139.088 136.008 139.324 135.948 139.577 135.948ZM129.681 129.566C129.877 129.56 130.059 129.6 130.23 129.689C130.406 129.746 130.558 129.845 130.687 129.982C130.959 130.2 131.126 130.635 131.126 130.988C131.126 131.341 130.959 131.777 130.687 131.994C130.509 132.17 130.3 132.292 130.059 132.36L129.681 132.411C129.313 132.428 128.939 132.235 128.677 131.994C128.625 131.946 128.574 131.897 128.521 131.851C128.283 131.631 128.179 131.303 128.164 130.988C128.158 130.822 128.194 130.665 128.27 130.519C128.318 130.367 128.403 130.238 128.521 130.126C128.574 130.08 128.625 130.031 128.677 129.982C128.963 129.718 129.296 129.585 129.681 129.566ZM192.381 118.198C193.769 116.506 192.961 115.302 190.875 115.72C187.281 116.207 183.899 118.479 180.734 120.108C177.279 121.933 173.719 123.439 170.196 125.154C171.649 126.046 172.731 127.445 173.557 129.04C175.206 127.787 177.314 127.188 179.371 127.11C183.104 123.534 189.286 122.715 192.381 118.198ZM28.3699 123.813C28.7463 123.815 29.099 123.904 29.4295 124.08L29.5 124.12L29.9521 124.47C30.1718 124.673 30.326 124.914 30.4169 125.191C30.5563 125.457 30.6197 125.747 30.6091 126.056C30.6197 126.364 30.5563 126.652 30.4169 126.918C30.326 127.197 30.1718 127.436 29.9521 127.639C29.8275 127.801 29.6669 127.928 29.4746 128.021C29.2948 128.095 29.1176 128.171 28.938 128.247C28.7373 128.311 28.5049 128.319 28.2873 128.33C27.8922 128.328 27.5248 128.228 27.1822 128.03L26.7387 127.687C26.5253 127.488 26.373 127.254 26.2843 126.981C26.1586 126.741 26.0949 126.485 26.0949 126.211L26.0965 126.136C26.0965 126.119 26.0965 126.1 26.0988 126.081C26.1239 125.882 26.1516 125.684 26.1787 125.485C26.2486 125.193 26.3817 124.937 26.5803 124.722C26.631 124.62 26.6986 124.538 26.7854 124.47C27.0641 124.191 27.3934 124.001 27.7739 123.893C27.9725 123.868 28.1711 123.84 28.3699 123.813ZM126.397 118.213L126.461 118.214C126.746 118.214 127.01 118.286 127.256 118.428C127.363 118.511 127.469 118.593 127.575 118.675C127.771 118.872 127.906 119.104 127.98 119.37L128.037 119.789C128.044 120.007 127.999 120.207 127.9 120.396C127.837 120.59 127.729 120.759 127.575 120.903C127.433 121.057 127.264 121.165 127.068 121.228C126.882 121.328 126.679 121.372 126.461 121.364C126.178 121.364 125.912 121.292 125.667 121.148C125.561 121.068 125.453 120.985 125.348 120.903C125.17 120.723 125.041 120.512 124.964 120.273L124.944 120.207L124.887 119.789C124.879 119.571 124.923 119.37 125.022 119.182C125.086 118.986 125.196 118.817 125.348 118.675C125.491 118.521 125.661 118.413 125.855 118.35C126.024 118.26 126.205 118.215 126.397 118.213ZM40.7185 115.924L40.7922 115.925C41.2126 115.928 41.6035 116.033 41.9668 116.245C42.1232 116.365 42.2797 116.486 42.4359 116.608C42.7253 116.898 42.9239 117.24 43.0361 117.635L43.1183 118.252C43.1309 118.574 43.0633 118.872 42.9176 119.149C42.8248 119.438 42.664 119.687 42.4359 119.899C42.2269 120.125 41.9774 120.286 41.688 120.379C41.4112 120.524 41.1133 120.592 40.7922 120.579C40.3718 120.579 39.9809 120.474 39.6176 120.262C39.4614 120.142 39.3051 120.019 39.1466 119.899C38.8591 119.607 38.6605 119.265 38.5485 118.872L38.4661 118.252C38.4535 117.933 38.5211 117.633 38.6668 117.356C38.7598 117.069 38.9204 116.817 39.1466 116.608C39.3579 116.38 39.607 116.219 39.8964 116.126C40.1519 115.992 40.4254 115.925 40.7185 115.924ZM118.947 110.113C119.139 110.063 119.331 110.063 119.523 110.113C119.81 110.126 120.079 110.213 120.328 110.371L120.766 110.709C120.772 110.716 120.778 110.722 120.785 110.731C121.049 110.997 121.232 111.312 121.334 111.673L121.41 112.242C121.42 112.536 121.359 112.81 121.226 113.064C121.147 113.308 121.016 113.52 120.835 113.703L120.766 113.772C120.569 113.983 120.339 114.133 120.07 114.22C119.901 114.319 119.717 114.368 119.523 114.368C119.236 114.433 118.947 114.421 118.659 114.33C118.488 114.256 118.315 114.184 118.142 114.112L118.086 114.08C117.434 113.723 117.03 112.975 117.03 112.242C117.03 111.508 117.434 110.758 118.086 110.401C118.106 110.392 118.122 110.382 118.142 110.371C118.391 110.213 118.659 110.126 118.947 110.113Z" fill="black"/>
<path fill-rule="evenodd" clip-rule="evenodd" d="M121.87 28.7614C114.437 9.19945 101.039 -5.12312 78.4524 3.87279C77.8044 3.43149 76.9589 3.31314 76.1487 3.82989C63.8447 11.5588 54.9844 23.95 51.1446 37.9226C48.8077 38.3671 46.537 39.1423 44.5089 40.4136C40.101 43.1765 37.1354 47.5731 34.3556 51.855C33.5196 53.1423 34.2937 55.2736 35.8646 55.5659C36.547 55.6931 37.2233 55.7688 37.8958 55.7887C37.732 56.3832 37.5165 56.9576 37.2421 57.4845C36.2485 59.3918 38.1256 61.4167 39.8849 60.8953C40.0801 60.9987 40.2846 61.0836 40.4965 61.1475C40.5206 62.2279 41.0756 63.6741 42.1739 63.8925C43.9503 64.2737 46.311 62.9137 45.8918 60.9262C46.4284 61.0206 46.9632 61.0325 47.4844 60.967C47.5427 62.0019 47.5245 63.0819 47.6673 64.0366C48.1342 68.5358 52.6279 71.5582 56.9132 70.1894C57.176 71.5913 57.4847 73.5611 58.8649 74.3216C60.4786 78.8502 63.265 84.0183 67.8288 86.0817C67.4225 87.123 67.6429 88.3899 68.8665 89.0867C77.2203 93.8512 87.247 95.4633 96.6915 93.692C100.466 93.4671 104.144 92.6139 107.673 90.7961C110.248 89.4705 112.614 87.7871 114.924 86.0517C117.235 84.3157 119.706 82.6253 121.551 80.3712C123.555 77.9232 124.488 75.0429 125.093 71.9773C127.867 58.0622 126.909 44.399 121.87 31.1436C115.633 14.7354 128.105 45.1705 121.87 28.7614Z" fill="white"/>
<path fill-rule="evenodd" clip-rule="evenodd" d="M85.9372 0.0608351C89.741 -0.207791 93.6142 0.433657 97.2366 1.58108C103.014 3.41053 108.32 6.63911 112.679 10.8422C117.171 15.1739 120.494 20.5145 122.514 26.413C124.951 33.5267 125.315 41.1222 126.001 48.548C126.348 52.2998 126.918 55.9944 127.512 59.7099L127.606 60.2967C128.185 63.9167 128.512 67.578 127.711 71.1923C126.379 77.1993 122.388 82.2983 117.65 86.066C107.918 93.8061 92.767 98.5249 81.4353 91.4026C79.6822 90.3006 81.3434 87.4827 83.0549 88.631C84.2593 89.4394 85.5353 90.1481 86.9037 90.6373C92.621 92.6813 98.9001 91.9532 104.551 90.0519C110.119 88.1783 115.462 85.0125 119.571 80.788C123.887 76.3507 126.279 70.8697 125.933 64.6332C125.727 60.9225 124.882 57.2805 124.413 53.6001C123.997 50.3404 123.748 47.063 123.461 43.7901L123.356 42.6128C122.747 35.9446 121.873 29.0934 118.84 23.0405C116.289 17.9483 112.554 13.418 108.062 9.91927C103.36 6.25636 97.743 3.69458 91.8499 2.73907C84.9199 1.61553 78.2861 3.65865 72.5052 7.46211C67.3782 10.8353 62.9703 15.3429 59.5904 20.4576C57.9514 22.9376 56.5551 25.586 55.3494 28.3021C54.2132 30.8611 53.4299 33.5432 52.5161 36.1808C53.268 36.1584 54.0324 36.1874 54.8086 36.2732C58.7897 36.7145 62.4989 38.7785 64.8603 42.0331C67.746 46.0101 66.966 50.8919 68.0931 55.4147C68.1803 55.7658 68.032 56.1095 67.7314 56.3037C66.0225 57.4086 63.7353 57.4454 62.0813 56.2012C60.6457 55.1214 59.9718 53.1691 60.553 51.4633C60.6288 51.241 60.9525 51.2803 60.9615 51.5187C61.0708 54.4216 63.763 56.6571 66.4019 55.2757C65.2699 51.3756 65.8657 47.0199 63.5504 43.4971C59.4525 37.2623 50.9722 37.0047 45.0159 40.5194C41.8812 42.3689 39.4 45.1498 37.5525 48.2604L37.0202 49.1634C36.312 50.3699 35.562 51.7348 35.4151 53.0635C35.3303 53.8303 35.6132 54.5507 36.4925 54.1644C37.2039 53.852 37.7546 53.1231 38.1772 52.4964C38.8978 51.4276 40.5537 52.351 39.9585 53.4891L39.9383 53.5263C39.072 55.0617 38.5387 56.7535 38.4407 58.5163L38.4159 59.0045C38.3995 59.3603 38.3878 59.8659 38.463 59.8844C38.5532 59.9066 39.1801 59.1827 39.2844 59.0825C39.7872 58.5994 40.3051 58.2046 41.005 58.0759C41.9251 57.9072 42.8534 59.046 42.0547 59.7926L42.0214 59.8227C41.3086 60.4426 41.3403 61.6788 42.1277 62.2585C43.2389 63.0767 44.6071 61.7412 44.7684 60.6417L44.7738 60.6011C44.9164 59.4131 46.5658 59.371 46.6553 60.6011C46.8499 63.2704 43.6731 65.5078 41.256 64.1611C40.3002 63.6289 39.6926 62.6543 39.5022 61.6098C39.1972 61.7711 38.868 61.8829 38.5201 61.9138C37.3872 62.0142 36.5819 61.2174 36.3987 60.1479C36.1853 58.902 36.3119 57.568 36.64 56.2741C36.0248 56.4225 35.3777 56.3658 34.7272 55.9903C32.7592 54.8542 33.3244 52.3273 34.0674 50.6213C37.2396 43.3395 43.8117 36.732 51.9539 36.2074C51.9985 34.9226 52.1726 33.708 52.4574 32.4215C55.2423 19.8379 64.2643 8.18578 76.0097 2.7397C79.1483 1.28434 82.4768 0.305367 85.9372 0.0608351ZM55.1357 50.3275L55.2473 50.3023C56.5163 50.0288 59.8557 49.7075 59.4532 51.8437C59.4342 51.9441 59.2882 51.9319 59.2622 51.8437C58.868 50.5006 56.1899 51.5747 55.408 51.898C54.3301 52.3436 53.2668 53.0009 52.3867 53.7649C50.4597 55.438 49.168 57.7958 48.9716 60.3565C48.7768 62.8967 49.5135 65.6405 51.3451 67.4779C52.243 68.3785 53.3892 68.9899 54.6766 69.035C55.8333 69.0751 57.1113 68.1743 58.1786 68.7019C58.389 68.8059 58.5557 69.0914 58.5367 69.3264C58.5008 69.7713 58.3018 70.1177 58.0056 70.3863C59.7925 73.6439 61.2549 77.0918 63.5342 80.0541C64.678 81.5403 65.9742 82.9167 67.4418 84.088C68.1394 84.6449 68.8979 85.1339 69.68 85.5636C70.5965 86.0677 71.3896 86.383 72.0437 87.2369C72.6014 87.965 72.0435 89.3728 71.124 89.4983C68.9587 89.7934 66.8545 88.0421 65.2649 86.7303C63.6768 85.4195 62.3042 83.8026 61.1699 82.0871C58.9918 78.7928 57.5017 74.9065 56.9059 70.9747C56.2142 71.1941 55.4355 71.2611 54.8497 71.2624C53.2909 71.266 51.8025 70.7051 50.5776 69.7571C46.0932 66.2874 45.5949 59.1634 48.7594 54.671C50.2738 52.5213 52.5749 50.933 55.1357 50.3275ZM55.1638 58.59C56.2037 58.4987 57.2427 58.6629 58.22 59.0176L58.6229 59.1637C59.474 59.475 60.3799 59.8411 60.9946 60.4793C61.9337 61.4549 60.9986 63.1453 59.6609 62.7714C58.1818 62.358 56.9797 61.1119 55.501 60.5892C54.1793 60.1221 52.6823 60.1883 51.5093 60.9927C51.3544 61.099 51.1508 60.8893 51.252 60.735C52.1492 59.3682 53.5658 58.7302 55.1638 58.59Z" fill="black"/>
<path fill-rule="evenodd" clip-rule="evenodd" d="M97.8486 68.962C99.0305 67.0172 101.55 71.7814 101.817 72.6006C102.054 73.3263 102.211 74.0697 102.29 74.8217C103.207 75.0271 104.158 75.0275 105.097 74.8474C106.492 74.5796 107.345 73.8292 108.558 73.1848C109.396 72.7396 110.451 73.2617 110.887 74.0002C111.399 74.8694 111.073 75.7715 110.399 76.4195C109.121 77.6482 106.606 77.9305 104.938 77.6042C103.983 77.4173 103.107 77.0587 102.333 76.5376C102.328 76.6349 102.324 76.7321 102.317 76.8292L102.302 76.9977C102.174 78.3605 101.799 80.0741 100.741 80.9608C99.0059 82.4154 96.8642 79.618 98.5504 78.165L98.6027 78.1214C99.6508 77.2742 99.8795 75.0011 99.8231 73.7491C99.7861 72.932 99.6373 72.1043 99.3794 71.3261L99.3263 71.1711C99.2487 70.9512 98.4022 68.8658 98.0963 69.1313L98.0817 69.1463C97.9556 69.297 97.7518 69.1215 97.8486 68.962ZM107.285 57.9876C108.88 58.9577 111.311 61.2199 109.595 63.6249C107.575 65.7454 104.666 63.3141 103.233 62.2144C101.904 61.3622 100.41 63.554 101.643 64.5492C112.001 72.2202 116.204 58.2413 108.092 56.847C107.199 56.6934 106.867 57.6875 107.285 57.9876ZM90.2491 49.0207C91.8082 48.7441 93.4054 49.1319 94.6956 50.0445L94.7934 50.1148C96.0364 51.0243 97.4271 52.6211 96.7139 54.1886C96.4276 54.818 95.5703 54.9168 95.0263 54.6314C94.1206 54.1563 93.9564 52.9873 93.1483 52.3404C92.4856 51.8101 91.5932 51.4884 90.7396 51.566C88.7345 51.7482 87.5011 53.7266 86.8783 55.4316C86.7987 55.6497 86.4786 55.7345 86.3535 55.5003C84.885 52.7544 87.4844 49.5115 90.2491 49.0207ZM115.223 47.9845C118.21 47.7382 121.706 50.8358 120.919 53.9896C120.542 55.5028 118.298 55.4595 117.899 53.9896C117.68 53.1807 117.702 52.4651 117.12 51.7934C116.639 51.2388 115.957 50.9167 115.223 50.9662C114.414 51.0207 113.668 51.425 113.102 51.9934C112.59 52.5065 112.284 53.2574 111.753 53.7116C111.623 53.8232 111.448 53.8304 111.319 53.7116C110.406 52.8698 110.954 51.1173 111.533 50.2385C112.361 48.981 113.71 48.1094 115.223 47.9845ZM84.5616 43.4273C86.4776 41.7306 89.959 40.092 92.5426 40.927C94.028 41.407 94.6756 43.8014 93.0173 44.5603C91.0971 45.4391 88.8833 45.0815 86.9288 45.9924C86.108 46.3752 85.3361 46.8535 84.7646 47.555C84.3144 48.1078 83.8564 48.8353 83.2052 49.154C83.0341 49.2379 82.8023 49.2401 82.6652 49.0845C81.2379 47.4694 83.3153 44.5307 84.5616 43.4273ZM111.93 40.8428C113.114 40.5103 114.428 40.5171 115.631 40.7259C116.833 40.9347 118.054 41.4333 119.036 42.1606L119.15 42.2457C120.222 43.0537 121.501 44.2292 121.432 45.6605C121.375 46.8557 120.118 47.6641 119.033 47.0377C118.148 46.5268 117.732 45.5035 116.983 44.8221C116.365 44.2597 115.639 43.8163 114.865 43.5056C114.005 43.1605 113.143 42.9988 112.22 42.9833C111.509 42.9715 110.794 43.2048 110.096 43.2794C110.153 43.3974 109.602 43.3424 109.286 43.2378C109.052 43.1381 109.051 42.8419 109.132 42.6498C109.534 41.6981 110.998 41.104 111.93 40.8428Z" fill="black"/>
<path fill-rule="evenodd" clip-rule="evenodd" d="M116.014 83.2136C115.276 82.9722 114.552 82.6913 113.825 82.4206C110.104 80.5512 105.611 80.2122 101.709 81.7865C99.7941 82.5592 98.0085 83.9476 96.087 84.8574C95.6307 85.0278 95.1705 85.1825 94.7053 85.3123C94.4201 85.2129 94.1349 85.1073 93.8518 85.0016C91.8137 84.2331 89.8967 83.2852 88.0354 82.2424C87.8368 81.9628 87.6308 81.691 87.4094 81.43C88.7563 81.2387 90.075 80.9208 91.268 80.5928C94.9314 79.5889 98.3835 77.9531 102.034 76.9048C105.434 75.9262 109.122 75.3915 112.536 76.6068C114.157 77.1837 115.583 78.194 117.159 78.8745C117.974 79.2254 118.953 79.5699 119.905 79.6206C119.291 81.0937 118.513 82.4696 117.45 83.6151C116.964 83.5116 116.483 83.3657 116.014 83.2136ZM123.941 71.6755C123.615 71.9467 122.268 72.8217 121.832 73.3433C121.719 73.3004 121.607 73.2564 121.495 73.2112C121.303 72.9753 121.02 72.8718 120.732 72.8781C118.719 71.9414 116.926 70.6177 115.327 68.958C114.191 67.7808 113.026 66.5486 111.507 65.8659C109.718 65.0586 107.958 65.4305 106.078 65.5531C104.077 65.6863 102.102 65.1177 100.103 65.3904C98.6413 65.5912 97.2722 66.2104 96.0891 67.0833C93.6744 68.865 92.0096 71.3674 89.9687 73.5253C87.6532 75.9727 84.8053 77.5367 81.6384 78.3356C81.6004 78.3102 81.5603 78.2849 81.5201 78.2616C79.1856 76.1481 77.0772 73.762 75.2117 71.2194C73.3905 68.7361 68.5884 57.5577 67.4286 56.5771C66.9469 56.1692 66.4187 55.9938 65.9138 56.0086C64.999 56.0297 64.1539 56.6659 63.7758 57.6677C63.1335 59.3711 63.4546 61.5734 63.5053 63.3551C63.5687 65.5362 63.7124 67.7152 63.9405 69.8858C64.1666 72.031 64.4666 74.1699 64.8405 76.294C65.0286 77.3676 65.2377 78.4392 65.468 79.5065C65.5398 79.8425 65.6307 80.1426 65.7405 80.4216C65.8525 80.9479 65.9729 81.472 66.1018 81.992C66.9427 85.3968 68.2694 88.8059 70.8025 91.3188C73.4391 93.9375 77.0222 95.6769 80.3497 97.2324C83.5187 98.714 86.8398 100.031 90.2476 101.062C93.2074 102.404 96.3765 103.465 99.5582 104.023C103.061 104.638 106.743 104.676 110.126 103.459C111.788 102.861 113.36 102.026 114.786 100.986C116.808 99.9356 118.627 98.4921 120.117 96.5815C122.784 93.1573 124.058 89.002 124.615 84.7172C124.757 83.6205 125.294 79.4174 125.336 78.7629C125.472 76.6496 125.608 74.5363 125.744 72.4229C125.808 71.4255 124.585 71.1408 123.941 71.6755Z" fill="black"/>
</svg>
