<svg width="168" height="238" viewBox="0 0 168 238" fill="none" xmlns="http://www.w3.org/2000/svg">
<path fill-rule="evenodd" clip-rule="evenodd" d="M147.371 134.721C144.438 120.823 134.038 110.037 120.05 104.665C117.361 103.143 114.755 96.6156 111.142 95.4201C110.562 95.2285 111.477 96.7536 111.142 96.8446C109.947 97.1695 108.608 97.2034 107.288 96.0303C104.93 93.9335 104.19 87.8079 102.757 85.0394C95.1951 70.438 76.3157 76.1511 73.7864 92.2925C72.0229 93.4425 69.5298 94.4555 67.6101 95.3821C65.6333 96.3363 63.8945 98.6475 61.8573 99.4738C60.0397 100.211 57.0447 99.6888 55.2131 100.332C46.789 103.288 39.6541 107.018 34.0603 114.576C32.8817 116.17 31.553 118.129 30.4804 119.74C24.9507 126.108 21.1098 133.245 17.5724 140.903C7.67531 163.381 4.98334 188.268 2.56813 212.486C2.62306 216.723 -0.187645 228.473 3.96947 230.504C3.72102 230.762 3.81102 231.28 4.272 231.275C14.8128 231.169 25.329 232.112 35.7063 233.947C40.7131 234.832 45.6931 236.046 50.7931 236.246C61.38 236.173 71.9288 234.398 82.5016 236.078C95.212 236.078 110.659 235.707 124.799 235.163C138.014 234.655 151.3 235.803 164.352 233.555C165.385 233.391 165.89 232.131 165.673 231.227C164.142 225.645 163.39 219.901 162.531 214.188C162.702 210.523 162.396 206.698 161.041 203.285C157.5 180.244 152.96 157.353 147.371 134.721Z" fill="white"/>
<path fill-rule="evenodd" clip-rule="evenodd" d="M143.106 165.007C142.827 166.362 142.436 167.717 141.916 169C141.416 170.238 140.661 171.348 140.142 172.571C140.072 172.736 139.958 172.861 139.821 172.956L139.863 173.289L139.903 173.622C140.162 175.868 140.454 178.108 140.706 180.354L140.829 181.478C141.325 186.168 142.109 190.834 142.717 195.511C143.313 200.091 143.919 204.671 144.568 209.245C145.238 213.96 145.92 218.669 146.716 223.365C147.053 225.349 147.404 227.33 147.769 229.31L148.052 230.826C150.959 231.525 151.753 235.579 148.793 237.075C147.45 237.752 145.724 237.589 144.616 236.526C143.466 235.418 143.418 233.421 143.151 231.92L142.894 230.526C140.969 220.043 139.298 209.438 138.517 198.806C138.316 196.061 138.147 193.313 138.038 190.564C137.933 187.977 137.983 185.391 137.943 182.804L137.93 182.099C137.869 179.341 137.919 176.587 137.991 173.829C137.999 173.493 138.014 173.157 138.031 172.819C137.934 172.705 137.864 172.569 137.835 172.438L137.797 172.265C137.702 171.819 137.809 171.297 138.152 170.978C138.299 169.099 138.494 167.222 138.547 165.345C138.551 165.191 138.773 165.195 138.786 165.345C138.91 166.943 139.159 168.545 139.409 170.145C141.012 168.856 142.197 166.73 142.897 164.95C142.947 164.821 143.136 164.868 143.106 165.007ZM105.166 90.3116C105.433 91.529 105.959 92.6219 106.664 93.6385C107 94.1246 107.383 94.5769 107.841 94.9552C108.234 95.2783 108.682 95.4897 109.1 95.771C109.709 95.6757 110.345 95.9062 110.771 96.3541L110.704 95.6991C110.683 95.4878 111.033 95.4455 111.074 95.6503C112.922 104.975 114.608 114.307 116.067 123.699L116.706 127.847L117.308 131.741C118.307 138.23 119.274 144.716 120.002 151.252C120.971 159.975 121.787 168.721 122.383 177.479C122.98 186.299 123.348 195.124 123.61 203.961C123.675 206.189 123.745 208.414 123.813 210.642L124.264 207.979C124.714 205.315 125.156 202.649 125.535 199.973C126.893 190.397 127.979 180.753 128.509 171.094C128.995 162.255 128.833 153.241 126.585 144.631C126.018 142.464 125.325 140.332 124.489 138.254C123.678 136.234 122.571 134.361 121.698 132.371C120.684 130.054 120.38 127.869 120.902 125.375C121.358 123.202 122.159 121.158 122.302 118.922C122.571 114.771 121.221 110.751 119.313 107.118C118.81 106.161 118.28 105.216 117.726 104.28C116.051 101.45 114.162 98.7233 112.202 96.1091C112.096 95.9697 112.32 95.8154 112.434 95.9295C114.221 97.6964 116.175 99.4337 117.783 101.363C118.565 102.302 119.328 103.259 120.05 104.242C127.977 105.567 134.788 110.506 139.445 117.029C144.728 124.43 147.401 133.338 149.379 142.111C151.578 151.861 153.433 161.7 155.408 171.498C157.453 181.636 159.487 191.775 161.545 201.911C162.568 206.943 163.59 211.976 164.611 217.01C165.128 219.559 165.671 222.101 166.24 224.642C166.531 225.944 166.844 227.244 167.114 228.55C167.418 230.023 167.135 230.965 166.138 232.048C165.771 232.449 165.19 232.443 164.733 232.229L164.591 232.162L164.453 232.096C163.888 231.818 163.445 231.53 163.094 230.912C162.707 230.234 162.646 229.482 162.513 228.727C162.268 227.338 162.025 225.95 161.78 224.559C161.414 222.48 161.016 220.406 160.61 218.333L158.577 207.972C158.035 205.209 157.492 202.447 156.946 199.686C154.996 189.811 153.044 179.939 151.092 170.067C149.218 160.588 147.559 151.043 145.426 141.619L145.304 141.088L145.181 140.558C143.273 132.433 140.607 124.575 135.771 117.69C132.048 112.396 126.879 107.668 120.79 105.275C121.219 105.893 121.631 106.522 122.024 107.165C124.491 111.197 126.293 115.985 125.871 120.786C125.664 123.132 124.772 125.438 124.856 127.803C124.935 129.904 126.234 131.749 127.132 133.577C129.171 137.72 130.645 142.122 131.596 146.639C133.504 155.708 133.498 165.039 132.84 174.245C132.126 184.253 130.77 194.258 129.226 204.168C128.433 209.251 127.379 214.292 126.572 219.367C126.173 221.869 125.63 224.365 125.154 226.855L124.928 228.044C124.801 228.704 124.669 229.362 124.517 230.013L124.424 230.403V230.473C124.419 230.953 124.288 231.35 124.077 231.667C123.788 232.595 123.429 233.5 122.951 234.368C122.706 234.812 122.351 235.061 121.964 235.152C121.576 236.042 120.695 236.727 119.643 236.723L105.806 236.67C97.7699 236.638 89.7332 236.585 81.6966 236.541C79.6687 236.53 77.6426 236.492 75.6166 236.439C73.7173 236.387 71.8961 236.158 70.018 235.922C67.8966 235.655 66.7475 234.153 67.0644 232.033C67.1342 231.565 67.21 231.101 67.282 230.636C66.8595 230.775 66.3567 230.71 66.0165 230.378L65.6977 230.066C65.2556 229.628 64.8602 229.199 64.5799 228.615C64.2905 228.015 64.0558 227.381 63.8001 226.768C63.2487 225.449 62.7123 224.126 62.1903 222.797C61.1447 220.138 60.0989 217.469 59.1269 214.782C57.2025 209.462 55.4994 204.062 54.0187 198.601C51.3778 188.858 49.4677 178.927 48.2635 168.907L47.9756 166.518L47.8919 165.813C47.4352 161.929 47.0509 157.985 47.2325 154.11C47.3447 151.683 47.7206 149.238 48.6271 146.972C49.4635 144.882 50.7544 143.094 51.9818 141.226L52.1223 141.01L52.2635 140.79C53.337 139.093 54.1911 137.318 54.2339 135.258C54.2773 133.166 53.6683 131.131 52.9873 129.173L52.8176 128.69L52.7037 128.371C51.255 124.324 49.6064 120.335 50.1501 115.932C50.9532 109.447 54.8825 104.221 59.8264 100.19C55.4297 101.061 51.0778 102.781 47.237 104.963C42.7008 107.541 38.617 110.944 35.0952 114.784C28.4403 122.042 23.6889 130.749 19.7996 139.74C15.7283 149.15 12.7093 159.009 10.4342 168.998C8.14613 179.043 6.61443 189.249 5.56845 199.495C5.04683 204.595 4.63676 209.708 4.29683 214.822C4.12359 217.443 3.9926 220.068 3.78979 222.685C3.58697 225.299 3.49591 227.953 2.85789 230.498C2.56 231.684 0.550844 231.804 0.335562 230.498C-0.142214 227.581 -0.00868807 224.565 0.124655 221.611L0.136759 221.343C0.267956 218.401 0.439083 215.461 0.641688 212.521C1.05598 206.512 1.60929 200.512 2.33183 194.531C4.86493 173.535 9.53627 152.65 18.6989 133.484C23.013 124.458 28.5503 115.687 36.2532 109.168C39.9206 106.068 44.0551 103.593 48.5107 101.801C52.4954 100.197 56.5433 99.4379 60.7771 99.44C62.9004 97.8126 65.1799 96.3945 67.4572 95.1832C67.5945 95.1095 67.7382 95.287 67.6243 95.4011C67.5651 95.4582 67.5079 95.5171 67.4489 95.5723C67.7067 95.5892 67.9727 95.7097 68.2114 95.9612C69.0482 96.8381 69.7539 97.9352 70.3854 99.0742C71.3466 100.275 72.2635 101.515 73.2229 102.703C74.7586 104.605 76.3304 106.48 77.9215 108.34C80.5935 111.466 83.3525 114.532 86.2296 117.475L86.7102 117.965C88.2016 119.476 89.7123 121.285 91.4762 122.481L91.5704 122.544C92.3146 123.029 92.8423 123.117 93.4769 122.393C94.0539 121.733 94.5341 120.968 95.0277 120.241L95.1419 120.074C97.6623 116.411 99.9989 112.613 102.114 108.704C103.078 106.924 103.995 105.119 104.865 103.294L105.124 102.746C105.598 101.74 106.111 100.753 106.502 99.7167C106.592 99.4738 106.681 99.2308 106.768 98.9898C105.437 98.117 104.406 96.2275 104.032 94.748C103.643 93.2115 103.84 91.6346 104.533 90.2294C104.664 89.9652 105.103 90.0305 105.166 90.3116ZM39.5069 152.751C39.3227 158.593 39.2109 164.441 38.9361 170.278L38.8412 172.271C39.2699 172.749 39.5213 173.3 39.3206 174.057C39.2426 174.347 39.0121 174.609 38.7248 174.706L38.6352 176.559C38.2275 184.896 37.7496 193.215 36.8762 201.531C35.784 211.938 34.5206 222.327 33.2595 232.715C33.0799 234.186 32.0572 235.353 30.4664 235.138C28.8567 234.92 28.2039 233.518 28.4152 232.058C29.2454 226.328 30.0438 220.594 30.7433 214.846L31.5398 208.296C32.5385 200.109 33.5607 191.923 34.7384 183.762C35.2307 180.351 35.7419 176.942 36.2551 173.533L36.0757 173.3C35.3424 172.347 34.584 171.415 33.834 170.477C32.3933 168.668 30.9715 166.873 29.6511 164.98C29.5854 164.884 29.7187 164.745 29.8135 164.817C31.6642 166.184 33.4159 167.647 35.1778 169.133L36.7201 170.439C37.6074 164.548 38.4863 158.656 39.2699 152.751C39.2891 152.603 39.5109 152.592 39.5069 152.751ZM66.1285 96.8446C65.0149 97.8948 63.8764 98.9222 62.7544 99.9663L62.3434 100.351L61.9343 100.737C59.9624 102.607 58.0731 104.555 56.4989 106.791C53.6088 110.897 51.887 115.904 53.0889 120.917C54.0863 125.07 56.3743 128.835 56.9891 133.091C57.2973 135.224 57.1475 137.367 56.3445 139.381C55.5248 141.435 54.2149 143.196 53.0382 145.049C50.4818 149.078 50.1332 153.499 50.387 158.166C50.6532 163.04 51.2128 167.915 51.9039 172.745C53.3022 182.53 55.4107 192.214 58.2015 201.698C59.5982 206.447 61.248 211.094 62.8898 215.761C63.7072 218.084 64.6602 220.351 65.6424 222.608C66.16 223.796 66.6905 224.978 67.2292 226.157C67.0304 224.492 67.0304 222.782 66.9332 221.127C66.7938 218.756 66.6163 216.389 66.4537 214.019C66.1222 209.211 65.8264 204.399 65.5623 199.586C64.6264 182.425 63.9377 165.248 63.9882 148.059C64.0137 139.463 64.1891 130.868 64.5588 122.28C64.7321 118.237 65.0678 114.197 65.3711 110.158L65.4356 109.293C65.7039 105.669 66.025 102.035 66.5762 98.4424C66.413 98.074 66.2713 97.701 66.1662 97.3183L66.1285 97.1743L66.156 97.1786C66.1306 97.0663 66.1222 96.9545 66.1285 96.8446ZM75.7581 82.0754C75.7812 81.9761 75.9227 81.9846 75.9481 82.0754C76.5755 84.1889 76.3537 86.5138 75.8131 88.64C75.5215 89.7918 75.1074 90.9099 74.6067 91.9878L74.4315 92.365C74.0025 93.283 73.5195 94.2288 72.684 94.8008C72.3356 95.0397 71.7122 95.0545 71.3636 94.8008L71.1858 94.6659C71.1565 94.643 71.1276 94.6198 71.0995 94.5958C70.7743 94.3232 70.6136 93.7208 70.7636 93.3235C71.1502 92.2985 72.0272 91.546 72.6333 90.633C73.1701 89.8214 73.6455 88.9655 74.0403 88.0757C74.8917 86.1503 75.2741 84.1065 75.7581 82.0754Z" fill="black"/>
<path fill-rule="evenodd" clip-rule="evenodd" d="M125.676 20.1763C125.207 18.9916 124.377 17.5027 122.99 17.4433C121.917 14.1621 119.25 10.8204 115.54 10.9092C104.649 -0.231941 90.9387 0.293265 76.6042 2.65172C69.0417 4.05488 61.3627 6.80243 55.7223 12.2244C48.9668 18.6076 46.3363 29.7456 51.6264 37.8172C47.0544 40.2683 46.9657 46.0846 48.9209 50.2818C46.5706 51.9078 46.4278 55.8541 49.0743 57.0943C48.9336 57.6709 49.0331 58.2669 49.3014 58.7792C47.9893 59.8719 46.2814 60.679 44.8695 61.3729C44.2454 61.6795 43.8854 62.1804 43.7358 62.745C39.0998 65.7876 27.5396 73.2233 27.6774 79.1413C27.6093 82.2287 29.8986 84.2606 32.6806 85.0697C31.0253 88.3801 29.7689 92.2467 31.3534 95.8177C31.7914 96.8966 35.0728 100.068 35.238 100.126C35.5268 100.374 40.2345 98.2116 42.5225 97.1088C42.9662 99.9959 46.0521 101.508 48.7122 100.519C51.2345 99.7585 52.785 97.6224 54.3759 95.6792C56.4875 100.287 62.7002 100.34 66.7156 98.3537C70.3217 96.6872 73.0629 93.6327 74.59 89.9521C82.6988 93.9231 92.186 95.0807 100.996 93.4945C101.561 94.4955 102.813 95.1678 103.928 94.7806C108.612 93.3717 113.792 93.2927 117.763 90.0647C126.04 84.1213 126.737 73.1641 126.16 63.8239C125.648 54.5112 126.096 45.1209 124.404 35.9087C125.138 33.1965 126.36 30.7987 127.49 28.2507C128.718 25.5788 128.692 21.6069 125.676 20.1763Z" fill="white"/>
<path fill-rule="evenodd" clip-rule="evenodd" d="M48.7201 59.7057C49.2079 59.5831 49.4699 60.2389 49.0558 60.5024C46.4268 62.1753 43.711 63.6693 41.1713 65.4895C38.7558 67.2197 36.5247 69.1908 34.4442 71.3099L34.2136 71.5459C32.3327 73.4817 30.2496 75.9443 30.2285 78.7999C30.2122 81.0195 31.9229 83.4422 34.3096 83.1505C35.2087 83.0406 36.0352 84.1819 35.7215 85.0047L35.3914 85.8719C34.0634 89.3813 32.7123 93.3577 33.7613 97.0499L33.7998 97.1816C34.0535 98.027 34.321 98.7742 35.3019 98.7573C36.2122 98.7412 37.1596 98.4341 38.0118 98.141C39.7803 97.5325 41.383 96.5178 42.7434 95.2417C43.9466 94.113 45.4839 95.2597 45.3219 96.6941L45.3162 96.7399C45.0946 98.3496 47.6579 99.0969 48.8232 98.8667C51.1241 98.4115 52.7646 96.1052 54.0713 94.347C54.6994 93.5022 56.225 93.1696 56.7768 94.347C57.8703 96.6793 60.1243 98.4225 62.7612 98.4956C64.1308 98.5334 65.4449 98.1435 66.605 97.4203C67.0785 97.1249 67.5019 96.7737 67.8903 96.3756L67.9867 96.2752C68.5613 95.6658 68.9579 95.3418 69.6918 94.9439C70.415 94.5518 71.3505 95.0379 71.3461 95.8933C71.3401 97.0012 71.0156 97.7377 70.2519 98.5413C69.62 99.2068 68.8691 99.791 68.0798 100.258C66.4936 101.195 64.6079 101.723 62.7612 101.662C59.8503 101.565 57.0719 100.114 55.2709 97.8569C53.432 100.056 51.151 102.077 48.1867 102.023C45.9675 101.982 43.8994 100.827 42.9086 99.0362C41.5098 100.001 39.9745 100.755 38.3321 101.248L38.1857 101.291C35.861 101.968 33.1856 102.237 31.6892 99.9284C30.2843 97.7608 30.1795 94.7589 30.5015 92.2813C30.789 90.068 31.4697 87.9661 32.2514 85.893C30.0263 85.2283 28.2992 83.1374 27.706 80.8836C26.8085 77.4753 28.5496 74.17 30.7019 71.6376C33.04 68.8867 35.9828 66.5599 38.9475 64.5234C41.9044 62.4925 45.2169 60.584 48.7201 59.7057ZM124.749 33.0476C124.754 32.9529 124.91 32.9197 124.924 33.0237C125.945 40.4374 126.536 47.8362 127.026 55.3008C127.274 59.0825 127.556 62.8604 127.865 66.6375C128.161 70.2594 128.653 73.9776 128.542 77.6143C128.368 83.309 125.603 87.9392 121.071 91.2714C116.728 94.4647 111.34 96.0435 106.054 96.7105C102.984 97.0979 99.8713 97.1165 96.798 96.7525C95.2018 96.5635 93.6077 96.3119 92.0443 95.9341L91.3683 95.7649C90.1372 95.4504 88.7625 95.0234 88.5869 93.5645C88.5018 92.858 88.877 92.3368 89.4829 91.9822C90.2728 91.5197 91.1785 91.7919 91.9925 92.0027C93.3643 92.3577 94.7506 92.6625 96.1526 92.8732C99.1638 93.3263 102.259 93.3532 105.286 93.0395C110.377 92.5116 115.747 90.8597 119.673 87.4481C121.379 85.9656 122.862 84.1592 123.642 82.0132C124.645 79.2542 124.497 76.2444 124.463 73.3552C124.385 66.6374 124.454 59.9197 124.361 53.2013C124.267 46.4624 124.349 39.7765 124.749 33.0476ZM73.5516 1.6526C79.5005 0.117777 85.5379 -0.281041 91.6486 0.180971C97.4114 0.616352 103.976 1.90622 108.683 5.45205C108.911 5.62409 108.774 5.94978 108.492 5.90476C105.345 5.40301 102.278 4.4904 99.1448 3.88658C96.1313 3.30578 93.0635 2.86977 89.995 2.76874C79.6171 2.42657 68.0695 4.77911 59.7012 11.2517C55.7773 14.2865 52.7828 18.3672 51.591 23.2226C50.3688 28.2026 51.0301 33.5883 53.4844 38.0932C53.8378 38.7418 53.6921 39.7679 52.9547 40.1133C50.7174 41.1612 49.1238 43.4826 49.1585 45.9878C49.1752 47.2028 49.5939 48.368 50.2668 49.3723C50.9783 50.4344 52.0615 51.1775 52.8573 52.1693C53.1707 52.5599 53.1827 53.0978 52.9345 53.4575C53.3999 53.6615 53.9019 53.771 54.3599 54.0119C54.7482 54.2163 54.7592 54.8543 54.3599 55.0555C53.35 55.5643 52.2582 55.0243 51.5766 54.204C51.455 54.0575 51.3497 53.9052 51.2538 53.7496C50.4375 53.5765 49.7061 53.1667 49.0674 52.6062C47.8505 53.3351 47.6838 54.9579 48.7292 56.1979C49.263 56.8309 50.0215 57.2217 50.7881 57.5025L50.8801 57.5357C51.6261 57.8008 52.3093 57.9487 52.794 58.5458C53.1136 57.8792 53.4806 57.2508 53.8896 56.6783C55.3767 54.5971 57.6626 52.7508 60.3751 52.9852C62.4998 53.1684 64.3406 54.6901 64.776 56.7897C64.8081 56.945 64.574 57.0663 64.5043 56.9042C63.485 54.5263 60.2595 54.439 58.3383 55.6782C56.0788 57.1356 54.8439 59.8821 54.3485 62.4401C53.8609 64.9598 54.1427 68.0244 56.0278 69.9409C56.7992 70.7253 57.8485 71.2676 58.9438 71.4105C59.4791 71.4806 59.9514 71.4116 60.4633 71.3085L60.8026 71.2376C61.038 71.1889 61.272 71.1496 61.5189 71.1714L61.8867 71.2209L62.0957 71.3187C62.277 71.4002 62.2606 71.3778 62.0466 71.2515C62.6716 71.2004 62.9946 71.6624 63.0288 72.169C63.0487 72.1817 63.0679 72.1954 63.084 72.2151C65.4557 75.1186 67.2166 78.456 69.7334 81.2645L70.4702 82.0872C72.3642 84.1949 74.5266 86.4801 77.0996 87.5735L77.4058 87.7002C78.1544 88.0165 78.9061 88.4495 79.0015 89.3522C79.0871 90.1608 78.4499 90.7693 77.7153 90.958C76.0425 91.3873 74.1356 89.9 72.9104 88.9242C70.2759 86.8266 68.0619 84.1526 66.2333 81.3391L66.0526 81.0589C64.5495 78.7105 63.1368 76.0322 62.6978 73.245L62.6186 73.3734C62.6127 73.3825 62.608 73.3894 62.605 73.3936C62.5154 73.5153 62.4168 73.618 62.3023 73.7165C61.9947 73.9822 61.6195 74.1373 61.2297 74.2426C60.4981 74.4402 59.6959 74.4791 58.9438 74.4021C57.4161 74.2459 55.9881 73.6643 54.7805 72.717C51.1036 69.8323 50.6695 64.4644 52.1566 60.1096C50.9363 60.401 49.5464 59.5795 48.5935 58.8755C47.5009 58.0677 46.5998 56.9017 46.3845 55.53C46.1707 54.1689 47.0382 52.3665 48.3248 51.8413C46.9898 50.2378 46.2126 47.9622 46.1323 46.1402C45.9928 42.9707 47.676 39.9751 50.2602 38.2458C47.83 33.0358 47.3619 26.9914 48.9981 21.4595C52.2451 10.4822 63.122 4.34351 73.5516 1.6526ZM64.2937 85.0564L64.3241 84.96C64.583 84.111 64.9172 82.4224 66.185 83.0653C67.3962 83.6792 66.623 85.4966 66.1994 86.3814C65.6925 87.44 64.8173 88.2888 63.6418 88.5162C62.6856 88.7011 61.6356 88.4636 60.9667 87.7245C60.7717 87.5091 60.6616 87.2728 60.5461 87.012C60.5011 86.9106 60.4808 86.841 60.4723 86.7958C60.4613 86.8455 60.4301 86.9194 60.3502 87.0065C59.8165 87.5898 59.3125 88.2689 58.9252 88.959C58.8335 89.1221 58.5445 89.0078 58.6176 88.8292C59.0687 87.7255 58.9928 86.0189 59.9982 85.2206C60.8844 84.5169 61.7171 85.0707 62.1859 85.8902L62.2098 85.9329C62.8949 87.1773 63.9868 85.9954 64.2937 85.0564ZM54.6538 81.0686L54.7463 80.9401C55.6939 79.6445 57.2919 78.0861 58.891 79.291C59.3995 79.6741 59.4183 80.3137 58.891 80.6939L58.6914 80.8364C57.9929 81.3318 57.2973 81.7997 56.7842 82.5102C56.2267 83.2827 55.726 84.1006 54.9764 84.7066C53.6507 85.7781 51.5082 85.9895 50.3579 84.5449L50.2447 84.4016C50.1485 84.2776 50.038 84.1283 49.9484 83.9793L49.8786 84.0761C49.8718 84.0858 49.8654 84.095 49.8595 84.1038L49.8434 84.1283C49.3706 84.8841 48.7734 85.5065 48.0295 85.9977C46.6157 86.9308 45.0225 87.0606 43.423 86.5667C43.2665 86.5181 43.3085 86.3082 43.46 86.2943C45.3553 86.1171 47.2019 84.7702 47.9729 83.0357L48.0599 82.841C48.3719 82.151 48.7214 81.4953 49.4921 81.2244C50.2423 80.9606 51.0299 81.2392 51.5443 81.8069C51.9745 82.2813 52.0852 83.2246 52.8612 83.0166C53.7109 82.7888 54.1892 81.7242 54.6538 81.0686ZM49.2253 69.5451C49.645 69.226 50.3025 69.5684 50.4181 70.0308C50.9418 72.1244 48.7666 74.5915 46.6763 74.6564C46.1382 74.6729 45.6206 74.5427 45.144 74.2935C44.7743 74.1003 44.3367 73.6066 43.9309 73.5248C43.4067 73.4194 42.9424 74.1177 42.5733 74.4761C42.1155 74.921 41.6625 75.334 41.1496 75.7132C40.9446 75.8647 40.6267 75.6102 40.7133 75.3775L40.8868 74.9149C41.5149 73.2681 42.5967 70.8641 44.6211 71.5474C45.613 71.8822 46.3596 73.0112 47.4041 72.1172C48.2405 71.4014 48.3185 70.2343 49.2253 69.5451ZM58.1574 61.1166C60.0446 58.9494 64.481 60.0941 65.3223 62.7307C65.5082 63.313 65.3143 64.0698 64.8596 64.482C64.2607 65.0249 63.4063 65.1893 62.6791 64.7635C62.0534 64.3972 61.7965 63.7978 61.3365 63.2836C60.662 62.5301 59.7444 62.1119 58.799 61.8122C58.5626 61.9365 58.3427 62.0998 58.1453 62.2968C58.0444 62.3976 57.8536 62.2594 57.9432 62.1406C58.0648 61.9791 58.2136 61.8272 58.3828 61.6871L58.3015 61.6632C58.0526 61.5939 57.9987 61.2992 58.1574 61.1166ZM70.423 37.1887C70.846 37.1894 71.3386 37.5867 71.2846 38.0506L71.2682 38.1794C71.1465 39.0626 70.8628 39.5627 69.9791 39.9731C69.2293 40.3207 68.4417 40.5129 67.6199 40.589C67.3089 40.6177 66.9798 40.6194 66.6462 40.5947L66.5759 41.0001C66.4363 41.8109 66.3073 42.6223 66.283 43.4487C66.2378 44.9808 66.8093 46.2434 67.4222 47.6113C68.5987 50.2388 68.731 52.8616 67.45 55.4853C67.2627 55.8689 66.7322 56.1817 66.3041 56.1429C65.7491 56.0926 65.481 55.9319 65.1582 55.4853C64.8871 55.1103 64.9491 54.5803 65.1368 54.1882L65.1582 54.1452C65.8036 52.8942 66.0071 51.4809 65.6775 50.1058C65.3678 48.8134 64.6662 47.6519 64.3529 46.3635C63.8424 44.2648 64.386 42.183 65.4483 40.3825C64.6465 40.1515 63.905 39.7397 63.4102 39.1118L63.4123 39.111C63.2234 38.9091 63.3265 38.4875 63.658 38.5129L64.0329 38.5431C65.1052 38.6328 66.0923 38.7261 67.1767 38.427C67.7325 38.2736 68.2124 38.0177 68.6896 37.708L68.7918 37.6408C69.3889 37.2439 69.7199 37.1879 70.423 37.1887ZM72.9894 21.6772C75.6775 21.5244 77.9725 23.2991 79.0882 25.6615C80.3001 28.2264 79.7916 31.1693 78.722 33.6928L78.4181 34.3991C77.8862 35.6227 77.1878 37.0779 76.0984 37.7345C74.8747 38.4721 73.8169 37.6168 74.1777 36.2572C74.3928 35.4475 74.9748 34.8229 75.4458 34.1546C75.8852 33.5305 76.2953 32.8846 76.6549 32.2109C77.3592 30.8895 77.8851 29.4172 77.8794 27.9033C77.8694 25.1401 76.0445 21.9735 72.9894 22.014C72.7711 22.0166 72.7747 21.6892 72.9894 21.6772ZM86.585 17.2186C86.4175 17.0914 86.5673 16.8084 86.7547 16.9278C89.8719 18.9111 92.1995 22.6366 92.6681 26.2965C92.9281 28.3272 92.7296 30.4973 91.865 32.3714C91.3692 33.4467 90.5182 34.4732 89.3284 34.7681C88.2344 35.0388 87.1069 34.4138 86.7674 33.3457C86.6357 32.9312 86.8622 32.4977 87.2043 32.2714C88.3134 31.5378 89.2064 30.6121 89.7289 29.3668C90.2725 28.0721 90.4893 26.6981 90.4958 25.3015C90.5119 22.0308 89.2071 19.212 86.585 17.2186ZM124.664 18.6361C124.52 18.4761 124.701 18.2403 124.892 18.3405C127.146 19.5261 128.578 21.7973 128.988 24.2847C129.39 26.7199 128.849 30.0351 126.965 31.7963C125.902 32.7905 123.997 31.4683 124.881 30.1877C125.504 29.2846 126.178 28.5409 126.535 27.4738C126.853 26.5216 126.965 25.5615 126.948 24.5609C126.91 22.3781 126.131 20.2635 124.664 18.6361ZM97.111 15.5867C100.961 15.4033 103.295 19.8004 103.829 23.0778C104.159 25.1028 103.911 27.1884 102.794 28.9447L102.728 29.047C101.805 30.45 100.129 32.0654 98.3224 31.401C97.5578 31.1201 97.3544 30.3007 97.868 29.6792C98.6539 28.7277 99.8687 28.3398 100.608 27.3239C101.437 26.1845 101.708 24.757 101.66 23.3714L101.654 23.2183C101.525 20.6696 100.31 15.7777 97.111 15.8642C96.9316 15.8689 96.9338 15.595 97.111 15.5867ZM109.155 14.8561C112.879 14.38 115.147 18.763 115.846 21.7823C116.283 23.6699 116.379 25.7756 115.82 27.649L115.778 27.7824C115.323 29.1806 113.981 31.5762 112.229 30.8617C111.749 30.666 111.26 30.1328 111.489 29.5579C111.783 28.823 112.206 28.6324 112.771 28.1621C113.206 27.8001 113.509 27.2804 113.733 26.7685C114.328 25.4042 114.461 23.8104 114.38 22.3403L114.368 22.1663C114.158 19.2947 112.602 15.0152 109.155 15.0939C108.997 15.0975 109.008 14.8747 109.155 14.8561ZM115.973 10.7356C118.046 9.94601 119.744 11.9287 120.935 13.3437C122.428 15.1167 123.782 17.0267 124.547 19.2338C125.229 21.2004 125.349 23.387 124.735 25.389C124.431 26.3802 123.957 27.2993 123.311 28.1084L123.228 28.2104C122.556 29.0312 121.906 29.5355 120.804 29.2417C120.355 29.1218 120.166 28.6782 120.243 28.2542C120.409 27.3484 120.876 27.1131 121.48 26.4808C122.013 25.923 122.409 25.2361 122.675 24.514C123.223 23.0242 123.252 21.4101 122.884 19.8752C122.472 18.157 121.661 16.5704 120.723 15.0835L120.52 14.7651C119.526 13.1931 118.109 10.7724 116.012 11.0275C115.833 11.0495 115.831 10.7897 115.973 10.7356Z" fill="black"/>
<path fill-rule="evenodd" clip-rule="evenodd" d="M110.605 72.3531C111.33 71.0736 113.493 71.2816 113.824 72.7739C114.495 75.7992 110.889 78.5928 108.15 78.6626C105.428 78.7317 102.374 76.4142 102.768 73.487C102.865 72.7629 103.832 72.8509 104.162 73.3048L104.29 73.479C105.185 74.682 106.366 75.9272 108.027 75.6339C108.716 75.5126 109.341 75.0823 109.757 74.5283C110.259 73.8598 110.204 73.0616 110.605 72.3531ZM93.2987 50.2204C93.6676 50.1187 94.0398 50.158 94.3667 50.2971C95.0964 50.4309 95.7059 51.0396 95.9201 51.7345C95.937 51.7947 95.9559 51.8541 95.9767 51.9129L96.0093 52.0006L95.9218 51.7778C95.9622 51.9972 96.1407 52.2278 96.2049 52.448C96.2839 52.7188 96.3031 53.0263 96.2765 53.3243C96.5085 53.3266 96.7405 53.3344 96.972 53.3545L97.1958 53.3746C98.4471 53.4909 99.8209 53.7043 100.563 54.786C100.979 55.3938 100.588 56.4882 99.8229 56.6053C98.6446 56.7856 97.6297 56.1333 96.4555 56.0027C95.3455 55.8791 94.1839 55.9499 93.0883 56.1505C90.8263 56.5642 88.7477 57.4814 86.5433 58.0569L86.2432 58.1331L86.2436 58.1317C85.8659 58.223 85.437 57.6975 85.8108 57.3902C87.5767 55.9389 89.8377 54.7627 92.0651 54.0465C91.7406 53.5301 91.6403 52.85 91.8621 52.2956C91.8964 52.1808 91.9391 52.0691 91.984 51.9577L92.0778 51.7286C92.0869 51.6206 92.1076 51.5139 92.1376 51.4092L92.1424 51.3773L92.1452 51.3792C92.311 50.8401 92.7441 50.3734 93.2987 50.2204ZM115.829 50.3038C116.312 49.8204 116.991 49.8919 117.495 50.2723L117.562 50.3248C118.037 50.5359 118.43 50.9973 118.688 51.4248C118.957 51.8689 119.135 52.3212 119.142 52.81C120.311 52.8138 121.431 53.1647 122.289 54.109C122.566 54.4138 122.756 54.8838 122.603 55.297L122.512 55.5428C122.224 56.3232 120.928 56.7724 120.488 55.8547L120.467 55.8099C119.999 54.7202 118.203 54.8345 117.248 54.9459C116.583 55.0239 115.925 55.1894 115.283 55.3748C115.056 55.4401 114.832 55.511 114.608 55.5833L114.384 55.6561C114.264 55.6947 113.641 56.0331 114.029 55.953C114.133 55.9315 114.211 56.0832 114.105 56.1341C113.643 56.355 113.15 55.9152 113.181 55.4189C113.235 54.5575 114.602 54.0852 115.26 53.7882L115.299 53.7702C115.552 53.6535 115.816 53.5417 116.089 53.4379C115.935 53.2097 115.809 52.9561 115.703 52.6838C115.604 52.4268 115.537 52.177 115.5 51.9038C115.464 51.7702 115.464 51.6366 115.5 51.5028L115.506 51.4646C115.487 51.3762 115.478 51.2849 115.48 51.193L115.476 51.1573H115.48C115.493 50.8354 115.62 50.5129 115.829 50.3038ZM108.112 59.4775C109.968 60.0511 113.029 61.6136 112.062 64.0253C110.712 66.2402 107.131 64.6124 105.396 63.8968C103.837 63.3802 103.025 65.5658 104.533 66.2246C116.989 71.1543 116.943 58.1438 108.564 58.3349C107.641 58.3558 107.612 59.2868 108.112 59.4775ZM91.6322 42.513L91.9487 42.4206C93.5935 41.944 95.2724 41.121 96.7327 42.4051C97.3061 42.9094 97.4242 43.9573 97.0139 44.5863C96.0792 46.0194 94.6931 45.8005 93.1836 45.9226C92.0343 46.0156 90.9021 46.3534 89.8293 46.7754C88.9525 47.1206 88.1394 47.6065 87.3716 48.1484C86.6174 48.6812 86.1021 49.5141 85.3285 49.9937C85.0449 50.1695 84.7175 49.9886 84.6156 49.7035C84.2548 48.6922 84.8645 47.4323 85.3804 46.5706C86.0102 45.5194 86.9668 44.6596 87.9955 44.0091C89.1219 43.2966 90.3675 42.8852 91.6322 42.513ZM115.598 41.4248C118.378 41.4239 121.053 42.9708 122.608 45.2384C123.136 46.0088 122.749 47.15 121.991 47.5937C121.14 48.0916 120.23 47.733 119.669 47.0195L119.636 46.9763C118.744 45.7883 117.595 44.8527 116.232 44.2436C115.567 43.9462 114.832 43.705 114.113 43.5827L113.881 43.5428C113.555 43.4882 113.177 43.4361 112.882 43.4871C112.724 43.5078 112.58 43.56 112.446 43.6395C112.51 43.7799 112.344 43.9489 112.191 43.8648C111.5 43.4852 111.585 42.8081 112.156 42.2818C112.963 41.5372 114.555 41.425 115.598 41.4248Z" fill="black"/>
<path fill-rule="evenodd" clip-rule="evenodd" d="M109.418 67.7015C107.069 66.6428 102.85 67.5666 101.318 67.9339C97.7572 68.7882 94.1749 70.6344 93.0679 73.5267C91.8204 76.7864 94.3095 77.8125 94.6756 77.6449C97.1407 77.8186 100.076 76.2683 102.659 75.8682C104.756 75.5407 106.969 75.2547 108.933 74.14C110.368 74.9294 113.608 75.3561 116.223 76.0464C118.45 76.634 119.415 77.9082 121.479 77.6372C123.954 77.3126 122.941 72.1064 120.183 69.9974C117.165 67.6892 112.06 66.7531 109.418 67.7015ZM114.07 89.962C112.015 90.4633 111.877 85.9563 111.647 84.364C111.467 83.12 110.452 79.9119 107.88 80.0503C105.307 80.1887 104.34 82.8765 104.471 84.5483C104.555 85.6323 105.554 91.1236 102.367 91.8183C100.334 91.8111 97.9834 91.6739 95.8467 91.2798C93.3317 90.71 90.0615 88.715 89.1976 92.6438C88.8868 94.0578 99.9651 98.2588 104.881 98.6388C109.867 99.6495 115.7 98.0953 119.249 94.2799C120.057 93.4119 122.331 89.8091 122.493 88.9263C122.834 87.0718 122.046 85.8783 119.752 86.532C118.131 87.3977 115.392 89.6396 114.07 89.962Z" fill="black"/>
</svg>
