<svg width="161" height="246" viewBox="0 0 161 246" fill="none" xmlns="http://www.w3.org/2000/svg">
<path fill-rule="evenodd" clip-rule="evenodd" d="M3.6905 222.016C3.05797 227.817 1.62515 234.207 4.35642 239.68C2.63627 239.757 4.0317 240.254 4.96001 240.426C5.49008 240.836 6.20247 240.999 6.8724 240.942C10.3507 241.677 13.9414 241.944 17.4732 242.36C61.5685 246.024 105.959 245.051 150.137 243.472C151.574 243.409 152.538 242.365 152.648 240.959C154.267 220.263 155.073 199.503 155.032 178.744C154.312 171.449 159.824 174.296 156.884 164.683C154.52 154.543 151.022 144.674 146.561 135.27C143.477 129.15 140.572 122.711 135.872 117.636C134.386 117.431 133.122 115.955 131.867 115.131C130.596 114.883 129.653 113.803 128.365 113.471C125.91 112.832 120.416 111.473 118.325 113.108C118.242 113.085 118.158 113.066 118.076 113.042C117.667 113.496 117.104 113.156 116.799 112.748C115.754 111.936 111.188 111.853 110.67 110.608C107.968 108.156 107.245 102.996 107.245 99.9777C106.235 98.8421 106.165 99.053 104.794 98.4527C103.449 96.7562 101.825 95.2785 100.012 94.1135C89.8097 87.412 75.0047 94.4736 72.6163 106.122C68.8408 109.112 64.9545 112.15 60.3301 113.709C58.0733 112.547 55.5024 112.177 53.1073 112.174C51.3218 112.109 48.8547 111.076 47.6944 112.956C28.1739 119.349 16.3928 137.942 8.01557 155.558C6.84135 158.067 5.43663 160.693 5.79599 163.551C6.04296 166.973 9.75578 169.01 9.05416 172.637C8.03437 182.614 6.8743 192.581 5.81268 202.555C5.10515 209.042 4.39782 215.529 3.6905 222.016Z" fill="white"/>
<path fill-rule="evenodd" clip-rule="evenodd" d="M146.497 174.421C145.235 174.878 143.465 175.324 142.563 176.357C142.459 175.394 142.354 174.432 142.248 173.469C144.893 173.407 147.543 173.384 150.189 173.31C148.94 173.615 147.706 173.983 146.497 174.421ZM140.686 234.962C139.776 234.97 138.863 235.034 137.953 235.069C136.202 235.137 134.45 235.204 132.698 235.27C129.124 235.404 125.55 235.533 121.975 235.658C114.897 235.904 107.818 236.131 100.738 236.34C86.5786 236.756 72.4121 237.009 58.2546 237.485C54.3269 237.617 50.3995 237.72 46.4754 237.934C44.4419 238.044 42.399 238.14 40.3753 238.375C38.668 238.574 36.985 238.909 35.2873 239.159C35.4012 236.946 35.5079 234.733 35.6188 232.52C35.7238 230.426 35.8218 228.332 35.9192 226.238C42.5465 226.585 49.1815 226.725 55.8176 226.784C62.8372 226.847 69.8547 227.021 76.8747 227.035C90.7721 227.062 104.671 226.887 118.568 226.748C122.498 226.708 126.429 226.669 130.36 226.629C132.325 226.61 134.29 226.59 136.255 226.57C137.237 226.56 138.223 226.581 139.203 226.541C140.25 226.497 140.885 226.199 141.644 225.495C142.049 225.12 142.066 224.355 141.644 223.982C141.035 223.444 140.469 223.031 139.625 222.97C138.795 222.911 137.93 222.993 137.098 223.004C135.273 223.028 133.448 223.052 131.623 223.076C128.113 223.122 124.604 223.168 121.094 223.214C114.075 223.306 107.056 223.401 100.037 223.508C93.1586 223.613 86.2791 223.691 79.4015 223.864C72.3791 224.041 65.365 224.36 58.3444 224.586C50.8715 224.826 43.4023 225.113 35.9462 225.674C36.1254 221.792 36.2904 217.91 36.4457 214.027C51.2503 214.833 66.065 215.407 80.8943 215.432C96.3438 215.459 111.793 215.195 127.236 214.791C129.413 214.734 131.589 214.677 133.765 214.609C134.888 214.573 136.011 214.541 137.134 214.5C137.96 214.47 138.808 214.435 139.555 214.04C141.028 213.26 141.282 210.984 139.534 210.362C138.579 210.021 137.565 210.354 137.333 211.216C137.262 211.223 137.193 211.228 137.134 211.231C136.292 211.262 135.449 211.286 134.607 211.313C132.782 211.37 130.957 211.43 129.132 211.487C125.762 211.593 122.393 211.69 119.023 211.779C112.143 211.962 105.262 212.11 98.38 212.225C84.7554 212.452 71.1318 212.662 57.5088 212.973C50.4935 213.134 43.4803 213.342 36.4657 213.52C36.6333 209.3 36.7915 205.079 36.9341 200.858C36.9508 200.364 36.969 199.869 36.9869 199.374C37.9922 199.595 39.0215 199.717 40.0455 199.862C41.8224 200.114 43.6049 200.3 45.3895 200.488C48.752 200.843 52.1255 201.061 55.5005 201.247C62.3813 201.627 69.264 201.895 76.1519 202.105C89.7772 202.52 103.419 202.61 117.05 202.564C124.452 202.538 131.899 202.636 139.297 202.313C139.753 202.438 140.223 202.425 140.677 202.276C141.05 208.875 141.444 215.472 141.831 222.069C142.093 226.52 142.323 230.987 142.644 235.439C142.017 235.13 141.44 234.955 140.686 234.962ZM12.4188 167.926C11.1208 167.291 9.68927 166.711 8.54335 165.811C7.29075 164.827 6.98314 163.672 7.36807 162.128C7.3968 162.013 7.43061 161.898 7.46061 161.783C16.6911 161.805 25.8981 161.399 35.1246 161.18C44.4986 160.957 53.8691 160.77 63.2456 160.717C81.9451 160.612 100.642 161.034 119.333 161.559C126.064 161.748 132.795 161.935 139.527 162.118C139.373 163.76 139.432 165.442 139.397 167.073C139.367 168.504 139.375 169.938 139.396 171.372C135.875 171.364 132.354 171.287 128.832 171.248C120.113 171.149 111.399 171.4 102.683 171.599C85.2498 171.998 67.8124 172.312 50.383 172.838C45.6491 172.98 40.8848 173.055 36.1292 173.258C35.9657 172.484 35.7842 171.714 35.5795 170.95C35.2541 169.735 34.8869 168.486 33.9141 167.642C33.8674 167.602 33.8027 167.619 33.7818 167.677C33.4123 168.702 33.5057 169.745 33.6138 170.818C33.6994 171.666 33.7573 172.516 33.8002 173.368C30.8431 173.523 27.8921 173.742 24.9565 174.07C24.1172 173.655 23.2774 173.241 22.4363 172.829C19.0976 171.194 15.7579 169.561 12.4188 167.926ZM119.58 198.43C112.693 198.486 105.806 198.492 98.9188 198.447C85.2863 198.36 71.6583 198.025 58.0288 197.754C54.2355 197.679 50.4472 197.604 46.6533 197.604C44.6891 197.604 42.7184 197.617 40.7564 197.702C39.5215 197.756 38.2695 197.764 37.0404 197.912C37.1887 193.94 37.3431 189.963 37.3383 185.989C50.341 187.959 63.4833 188.5 76.6144 188.888C89.9177 189.28 103.224 189.484 116.533 189.503C120.316 189.509 124.098 189.501 127.88 189.478C129.701 189.468 131.522 189.454 133.343 189.437C134.322 189.427 135.306 189.447 136.284 189.406C137.319 189.362 137.943 189.117 138.666 188.381C139.035 188.005 139.054 187.355 138.666 186.98C137.376 185.736 135.859 186.006 134.183 186.027C132.503 186.048 130.822 186.066 129.141 186.081C125.779 186.112 122.417 186.131 119.055 186.14C112.471 186.156 105.887 186.131 99.3035 186.064C85.9979 185.928 72.6952 185.632 59.3927 185.32C52.0385 185.148 44.6857 185.195 37.3374 185.552C37.3347 184.892 37.3286 184.232 37.3157 183.572C37.2673 181.073 37.0239 178.574 36.6432 176.103C40.2445 176.09 43.8455 176.013 47.4305 175.967C56.1481 175.856 64.8637 175.68 73.5802 175.505C82.2265 175.332 90.8729 175.158 99.5192 174.985C108.16 174.811 116.828 174.799 125.458 174.332C130.116 174.08 134.775 173.738 139.436 173.558C139.445 173.986 139.454 174.414 139.463 174.842C139.576 180.093 139.781 185.339 140.045 190.584C140.173 193.105 140.307 195.625 140.445 198.145C140.378 198.138 140.31 198.134 140.24 198.134C133.358 198.088 126.463 198.374 119.58 198.43ZM10.6009 152.827C11.3893 150.797 12.2458 148.782 13.1716 146.793C17.102 147.903 21.2946 148.476 25.351 148.857C29.6693 149.263 33.996 149.491 38.3321 149.579C46.8804 149.754 55.4287 149.348 63.9679 148.995C81.5319 148.27 99.0941 147.74 116.675 147.706C121.584 147.696 126.494 147.719 131.403 147.774C133.857 147.802 136.312 147.835 138.766 147.877C140.028 147.899 141.291 147.923 142.553 147.949C143.112 147.96 143.677 148.002 144.236 147.985C144.983 147.962 145.528 147.738 146.221 147.467C147.017 147.157 147.486 145.826 146.493 145.385C145.501 144.944 144.705 144.686 143.605 144.662C142.413 144.636 141.22 144.613 140.029 144.591C137.855 144.551 135.681 144.518 133.507 144.491C129.089 144.435 124.67 144.412 120.252 144.413C111.555 144.414 102.858 144.517 94.1636 144.721C76.7086 145.132 59.2928 146.349 41.8442 146.871C37.0349 147.016 32.2165 147.044 27.407 146.899C22.7486 146.76 18.1 146.367 13.4473 146.202C15.0544 142.813 16.8728 139.512 18.9246 136.374C26.6809 136.647 34.4205 136.445 42.1784 136.209C46.2493 136.085 50.3203 135.959 54.3907 135.819C56.4261 135.75 58.4615 135.68 60.4968 135.61C61.4794 135.576 62.462 135.543 63.4446 135.509C64.5031 135.473 65.6171 135.541 66.6451 135.263C66.8312 135.212 66.9791 135.105 67.0905 134.967C69.8268 136.375 72.721 137.486 75.6971 138.309C82.1572 140.096 89.1054 140.767 95.7867 140.217C101.149 139.776 106.492 138.448 111.207 135.848C121.853 136.829 132.648 136.368 143.318 136.298C144.337 136.292 144.761 135.357 144.59 134.587C148.014 141.969 150.283 149.972 152.406 157.756C153.725 162.593 154.898 167.461 156.015 172.346C155.969 172.35 155.922 172.355 155.876 172.359C156.006 171.824 155.714 171.193 154.982 171.176C150.664 171.077 146.332 171.325 142.013 171.365C141.891 170.284 141.77 169.203 141.642 168.123C141.467 166.651 141.258 165.183 141.08 163.711C141.016 163.177 140.956 162.662 140.883 162.155C144.303 162.248 147.722 162.342 151.142 162.433C153.362 162.491 153.358 159.053 151.142 158.985C132.349 158.409 113.555 157.828 94.7547 157.508C75.9434 157.189 57.0673 156.992 38.2704 157.957C28.0271 158.482 17.8091 159.185 7.69321 160.918C8.47892 158.176 9.57497 155.467 10.6009 152.827ZM26.5979 126.698C26.9382 126.954 27.0472 127.115 27.556 127.204C28.1076 127.301 28.6748 127.331 29.2317 127.386C30.4233 127.503 31.6178 127.546 32.8134 127.603C35.2007 127.716 37.5878 127.836 39.9768 127.909C44.7191 128.053 49.5631 128.257 54.3033 128.046C55.4629 127.994 55.9905 127.038 55.885 126.166C56.7741 127.268 57.7461 128.302 58.7813 129.244C60.4457 130.759 62.2423 132.102 64.1363 133.288C62.9076 133.333 61.6565 133.487 60.4968 133.537C58.5316 133.621 56.5664 133.705 54.6012 133.79C50.4599 133.968 46.3191 134.159 42.1784 134.352C34.5151 134.711 26.878 135.157 19.2438 135.888C21.4241 132.61 23.8664 129.518 26.5979 126.698ZM151.324 142.62C148.086 133.729 143.912 124.493 136.399 118.386C132.538 115.247 128.236 113.076 123.364 112.047C123.215 112.016 123.155 112.229 123.301 112.277C131.726 115.042 137.961 122.358 142.178 129.856C142.943 131.215 143.651 132.607 144.32 134.019C144.102 133.753 143.769 133.576 143.318 133.584C133.355 133.751 123.275 133.582 113.335 134.556C113.589 134.387 113.843 134.218 114.091 134.04C116.807 132.104 119.25 129.735 121.27 127.052C122.486 127.361 123.767 127.436 125.008 127.554C126.665 127.712 128.333 127.784 129.995 127.873C131.654 127.962 133.319 127.971 134.981 128.011C136.122 128.039 138.354 128.228 138.355 126.481C138.357 124.732 136.123 124.917 134.981 124.94C133.319 124.973 131.654 124.978 129.995 125.056C128.403 125.13 126.803 125.19 125.216 125.333C124.248 125.42 123.252 125.477 122.279 125.631C123.863 123.267 125.123 120.693 125.965 117.977C126.05 117.704 126.077 117.449 126.063 117.212C126.421 116.835 126.648 116.319 126.648 115.846C126.648 114.721 125.772 114.062 124.748 113.945C120.695 113.481 116.23 112.821 112.964 110.155C111.49 108.952 110.304 107.53 109.188 106C107.934 104.279 107.464 102.112 107.459 100.007C107.459 99.8885 107.263 99.8528 107.245 99.9777C106.632 104.247 107.517 109.12 110.579 112.319C113.587 115.459 117.672 116.635 121.817 117.323C120.108 122.206 117.287 126.496 113.326 129.869C108.913 133.628 103.326 135.639 97.63 136.397C91.4851 137.216 85.0446 136.818 79.0017 135.482C73.1805 134.194 67.486 131.892 62.7481 128.217C60.3578 126.363 58.1589 124.178 56.2429 121.839C54.6616 119.909 53.4491 117.756 52.0917 115.689C57.156 117.078 63.279 115.18 67.521 112.5C70.0197 110.921 72.2086 108.951 74.0069 106.606C74.8938 105.45 75.6829 104.23 76.3336 102.925C76.6721 102.246 76.9763 101.547 77.2562 100.843C77.4293 100.407 77.5989 99.9599 77.5989 99.4812C77.5979 99.1287 77.5091 98.8002 77.3325 98.4959C76.9695 98.1106 76.8973 97.999 77.1157 98.1605C76.7593 97.4305 75.729 97.2451 75.0698 97.6239C74.8241 97.7653 74.2463 98.039 73.9622 98.4959C73.7701 98.8049 73.6668 99.1743 73.5438 99.5133C73.3497 100.048 73.1541 100.577 72.9102 101.093C72.3441 102.29 71.665 103.432 70.8905 104.506C69.4748 106.469 67.6552 108.244 65.6731 109.63C63.5923 111.084 61.3497 112.273 58.9174 113.015C56.3484 113.799 53.8055 114.034 51.155 114.321C51.1267 114.281 51.0992 114.242 51.0709 114.203C51.0198 114.132 50.9093 114.155 50.9048 114.248C50.9027 114.292 50.9038 114.336 50.9025 114.381C50.5246 114.558 50.4933 115.091 50.9143 115.295C51.0705 117.748 52.1285 120.164 53.2814 122.286C53.7616 123.17 54.3041 124.027 54.8919 124.854C54.718 124.788 54.5226 124.746 54.3033 124.738C49.5614 124.556 44.7187 124.79 39.9768 124.964C37.6577 125.048 35.3412 125.178 33.024 125.303C31.8297 125.367 30.6324 125.407 29.4424 125.531C28.8472 125.593 28.2485 125.642 27.6565 125.731C27.6136 125.737 27.5737 125.744 27.5361 125.751C29.0006 124.308 30.5443 122.941 32.1741 121.666C37.5204 117.482 43.6607 114.073 50.2121 112.219C50.2742 112.202 50.2651 112.095 50.1965 112.102C37.1659 113.435 26.3116 121.65 18.7186 131.964C14.5055 137.687 11.3101 144.023 8.56046 150.556C7.17455 153.849 5.86321 157.201 4.76504 160.602C4.20687 162.33 3.95525 164.164 4.75469 165.86C5.36779 167.161 6.49913 168.128 7.68497 168.896C7.76377 168.947 7.8449 168.994 7.92455 169.044C6.7123 173.269 5.90018 177.605 5.12103 181.927C4.27469 186.622 3.53631 191.337 2.90208 196.065C1.63448 205.517 0.663493 214.989 0.239479 224.518C0.122225 227.154 0.0438449 229.792 0.00961954 232.43C-0.00749314 233.75 2.47601e-05 235.069 0.0180705 236.389C0.0385635 237.866 -0.161296 239.532 0.590183 240.85C1.59434 242.611 3.54455 242.005 4.4023 240.801C4.41476 240.817 4.42765 240.834 4.44032 240.85C4.51807 240.697 4.58314 240.544 4.6387 240.392C4.73103 240.189 4.79124 239.976 4.81321 239.76C4.97483 238.942 4.91399 238.111 4.90744 237.223C4.89793 235.972 4.90511 234.722 4.9087 233.472C4.91568 231.111 4.94251 228.751 5.00969 226.391C5.14427 221.673 5.40708 216.958 5.76645 212.251C6.48054 202.901 7.53392 193.594 8.43539 184.262C8.89427 179.51 9.44779 174.747 9.54328 169.97C10.656 170.556 11.8043 171.087 12.9149 171.653C14.9756 172.702 17.0361 173.752 19.0966 174.801C21.095 175.819 23.0963 176.83 25.0985 177.841C27.1174 178.859 29.1227 180.206 31.3941 180.457C32.6082 180.591 33.0477 178.955 32.3323 178.191C31.3981 177.193 30.1575 176.573 28.9104 175.992C30.5674 176.053 32.2265 176.085 33.8864 176.098C33.9092 178.187 33.8355 180.281 33.7307 182.366C33.4729 187.479 33.1146 192.584 32.7753 197.692C32.0701 208.311 31.3875 218.936 30.8549 229.564C30.7246 232.168 30.594 234.771 30.4634 237.374C30.4 238.64 30.3119 239.907 30.276 241.174C30.2359 242.595 30.2707 244.376 31.5855 245.254C32.5142 245.873 33.5137 245.581 34.2109 244.729C35.1432 243.59 35.1417 241.939 35.2167 240.54C35.2341 240.217 35.2495 239.894 35.2662 239.571C36.6901 239.755 38.1037 240.011 39.5338 240.15C41.2805 240.32 43.0383 240.421 44.7926 240.466C48.37 240.558 51.9417 240.591 55.5202 240.591C62.6019 240.591 69.6829 240.47 76.7636 240.356C90.9252 240.127 105.085 239.73 119.242 239.291C123.167 239.169 127.091 239.041 131.016 238.908C133.048 238.838 135.08 238.768 137.113 238.695C139.036 238.627 141.138 238.876 142.831 237.877C142.88 238.485 142.93 239.093 142.983 239.701C143.085 240.852 143.894 241.841 145.122 241.841C146.277 241.841 147.269 240.861 147.261 239.701C146.83 229.2 145.897 218.699 145.158 208.216C144.479 198.587 143.843 188.945 142.872 179.34C143.147 179.518 143.484 179.628 143.881 179.63C145.149 179.635 146.415 178.848 147.601 178.43C148.799 178.008 150.016 177.643 151.249 177.343C151.979 177.166 152.712 177.017 153.448 176.891C153.359 178.394 153.381 179.91 153.354 181.407C153.311 183.709 153.239 186.01 153.183 188.312C153.073 192.846 153.034 197.381 152.948 201.916C152.773 211.057 152.486 220.194 151.997 229.325C151.863 231.834 151.712 234.342 151.545 236.849C151.456 238.172 151.363 239.495 151.266 240.817C151.17 242.117 150.946 243.498 151.435 244.744C151.451 244.735 151.466 244.726 151.482 244.717C151.823 245.791 153.323 246.304 154.031 245.083C155.135 243.18 154.881 240.452 155.008 238.311C155.144 236.013 155.266 233.714 155.374 231.415C155.59 226.816 155.74 222.216 155.828 217.612C156.002 208.403 155.972 199.181 155.409 189.986C155.255 187.472 155.04 184.962 154.818 182.453C154.653 180.573 154.561 178.641 154.268 176.759C155.702 176.548 157.147 176.425 158.607 176.389C160.019 176.353 160.93 175.079 160.63 173.73C158.286 163.167 155.024 152.782 151.324 142.62Z" fill="black"/>
<path fill-rule="evenodd" clip-rule="evenodd" d="M139.198 53.7998C137.265 43.2536 132.498 33.2189 125.177 25.3674C124.332 24.4352 123.573 22.9646 122.284 22.7296C120.99 20.0917 118.523 18.227 116.551 16.0968C112.248 11.804 108.13 7.00701 102.579 4.29623C76.8319 -6.29707 52.0551 23.9083 46.7972 46.6244C41.5749 64.8929 47.2787 90.0939 69.9101 90.8332C73.1119 95.0695 77.5299 98.0018 82.0682 100.621C88.2657 104.59 95.0263 106.202 102.196 103.992C109.337 105.859 116.739 99.869 121.03 94.6157C124.422 90.5466 126.747 85.5805 129.849 81.3685C133.512 81.277 136.677 78.1744 137.168 74.5377C140.589 68.2485 140.433 60.7122 139.198 53.7998Z" fill="white"/>
<path fill-rule="evenodd" clip-rule="evenodd" d="M83.1158 0.70703C87.8007 -0.387976 92.7137 -0.160986 97.3542 1.04244C106.552 3.42795 114.12 9.6313 120.394 16.5477C126.515 23.294 131.562 31.0278 135.249 39.359L135.436 39.7828C138.043 45.7216 140.309 51.8945 140.406 58.4338C140.49 64.0618 139.922 69.9251 138.104 75.2782C136.485 80.0469 133.507 84.8521 128.383 85.9953C125.428 93.5084 119.648 100.015 112.367 103.496C107.851 105.655 102.891 106.619 97.898 106.14C92.8037 105.651 88.0453 103.203 84.064 100.08C83.9548 99.9943 84.0953 99.8284 84.2079 99.8931C89.0013 102.656 94.6705 103.644 100.161 103.463C109.184 103.164 117.455 98.2923 122.209 90.6345C123.391 88.7285 124.445 86.7181 125.286 84.6268C125.236 84.4548 125.208 84.2804 125.208 84.1105C125.208 83.39 125.55 82.8394 126.06 82.4837C126.296 81.7446 126.505 80.9971 126.68 80.2411C127.076 78.5287 127.297 76.7917 127.43 75.0406C127.539 73.618 127.479 72.1088 127.621 70.6498C127.569 69.4808 127.497 68.3129 127.391 67.1475C127.051 63.3923 126.361 59.6463 125.034 56.107C123.689 52.5221 121.566 49.3607 118.886 46.6396C113.14 40.8034 105.984 36.5421 100.396 30.5467L100.103 30.2295L100.084 30.2232C99.3902 30.9343 98.6972 31.6455 98.0024 32.3553L94.8278 35.5946C88.3483 42.2133 81.9213 48.8962 76.2845 56.2613C73.0388 60.5025 70.1227 64.9482 67.6101 69.6626C66.4202 71.8955 65.3413 74.1839 64.3662 76.5185L63.9824 77.4478C63.5258 78.56 63.0324 79.805 62.7583 81.0609C63.5738 81.8702 64.1702 83.0595 64.8298 83.978C65.5779 85.0197 66.4407 86.0114 67.3284 86.9369C68.227 87.8738 69.2125 88.7718 70.2587 89.5414L70.3844 89.6321C71.5848 90.4843 72.9627 91.0729 73.1427 92.6951C73.2209 93.3996 72.5913 93.9662 72.0084 94.1856C70.4127 94.7852 68.7598 93.0627 67.6963 92.0719C67.0331 91.4539 66.4234 90.7879 65.858 90.0847C65.3077 90.1636 64.7537 90.2031 64.2055 90.138C63.356 90.037 62.5147 89.8884 61.6872 89.6707C54.8235 87.8679 49.7432 82.1678 47.0022 75.8194C43.3223 67.2965 43.4079 57.4719 44.9377 48.4591C47.7329 31.9886 56.7798 16.6069 70.4406 6.86895C74.2665 4.14168 78.5089 1.78365 83.1158 0.70703ZM90.5108 2.91036C81.6858 2.44517 73.6398 6.99766 67.1846 12.6646C55.4309 22.9827 48.1912 38.09 46.7347 53.6038C45.9608 61.8464 46.5399 70.731 50.8363 78.0135C52.5032 80.839 54.6501 83.301 57.1842 85.3769C59.5722 87.3334 62.2941 88.4609 65.2041 89.2281C65.0717 89.0455 64.9409 88.8617 64.8137 88.675C64.1368 87.6836 63.5991 86.6298 63.1487 85.5257C63.109 85.5654 63.0342 85.5735 62.9901 85.5128C61.1533 82.9916 61.7282 79.9833 62.6036 77.2108C63.5216 74.3028 64.6851 71.4732 66.0129 68.7284C70.8528 58.7256 78.0515 50.0115 85.5241 41.8798C89.3404 37.7269 93.2833 33.6944 97.2116 29.6481C99.1734 27.6276 101.13 25.6011 103.062 23.5515C104.023 22.5311 104.979 21.5054 105.926 20.4715C106.862 19.4492 107.705 18.3664 108.87 17.6007C109.8 16.9905 110.727 18.1567 110.293 19.0241C109.625 20.3582 108.476 21.4159 107.459 22.5007L107.355 22.6131C106.364 23.6833 105.363 24.745 104.357 25.8009C103.2 27.0153 102.033 28.2215 100.863 29.4245C101.861 29.3089 102.871 29.2423 103.863 29.0916C105.21 28.887 106.539 28.5856 107.861 28.2578C109.254 27.9127 110.629 27.472 111.957 26.9242C113.204 26.4098 114.383 25.5855 115.755 25.5048C116.916 25.4363 117.279 26.8749 116.636 27.632C115.749 28.6752 114.154 29.0858 112.857 29.4732L112.674 29.5284C111.24 29.9664 109.772 30.295 108.289 30.5146C106.337 30.8037 104.081 30.936 101.993 30.6402C106.163 33.0864 110.001 36.1179 113.827 39.0744L114.503 39.5953C118.241 42.473 121.89 45.5752 124.556 49.5125C127.044 53.1881 128.547 57.4673 129.39 61.8031C129.806 63.9422 130.081 66.1039 130.265 68.2747C130.951 70.1992 130.841 72.4875 130.668 74.6042L130.606 75.3348L130.611 75.5491C130.637 76.873 131.169 79.8207 129.916 80.8204C129.895 80.9269 129.875 81.0341 129.853 81.1406C130.009 81.0442 130.163 80.9451 130.315 80.8432C130.378 80.8012 130.439 80.7549 130.5 80.7095L130.673 80.5672C130.68 80.5617 130.686 80.5568 130.69 80.5528C131.079 80.2115 131.45 79.8552 131.795 79.4699C132.434 78.7578 133.041 77.8531 133.616 76.8107C134.88 74.5196 135.687 72.0291 136.312 69.454C137.453 64.7462 137.924 59.6896 137.403 54.8615C137.33 54.1875 137.181 53.3426 136.95 52.4756C136.401 50.417 135.769 48.3803 135.061 46.371C133.646 42.3513 131.911 38.4517 129.888 34.7015C125.78 27.0844 120.494 20.0422 114.161 14.1326C107.747 8.14783 99.4289 3.3804 90.5108 2.91036ZM78.0654 27.2473C78.3836 27.0529 78.711 27.4305 78.5532 27.7353C77.7891 29.2103 76.5041 30.4556 75.4368 31.7195C74.3317 33.0282 73.2346 34.344 72.1402 35.6618C69.9118 38.3449 67.7368 41.0772 65.6475 43.8704L65.096 44.6093C63.2592 47.0759 61.4448 49.5815 59.8391 52.2023C58.9991 53.5733 58.2589 54.9913 57.5866 56.4515C56.9467 57.8415 56.6515 59.5194 55.8825 60.8252C55.8341 60.9076 55.6841 60.9008 55.6656 60.7966C55.4146 59.3907 56.0346 57.6974 56.4777 56.3809C57.0044 54.8152 57.7539 53.3239 58.5563 51.8836C60.23 48.879 62.2353 46.0628 64.25 43.2805C66.2961 40.4554 68.4204 37.688 70.6491 35.0043C71.6958 33.7437 72.7661 32.5083 73.8684 31.2973L74.2833 30.8443C75.4379 29.5914 76.6015 28.1413 78.0654 27.2473ZM72.7151 22.8794C73.2384 22.4916 73.6851 23.2842 73.3513 23.7043C71.3571 26.2139 69.0881 28.4688 66.9057 30.8093C64.8099 33.057 62.8067 35.3888 60.9165 37.8124C57.0623 42.7544 53.9772 48.1772 51.3642 53.8606C51.315 53.9678 51.1599 53.8879 51.1832 53.7843C52.5672 47.6368 55.8029 42.0534 59.4872 37.0087L59.6273 36.8173C63.3539 31.7443 67.6375 26.6446 72.7151 22.8794Z" fill="black"/>
<path fill-rule="evenodd" clip-rule="evenodd" d="M115.052 85.5593C114.355 86.4712 113.093 87.1696 111.679 87.5036C110.332 87.8218 108.843 87.8089 107.558 87.3191L107.448 87.2751C106.487 86.876 105.565 86.0701 105.215 85.229C105.076 84.8946 105.029 84.5547 105.124 84.2376C105.21 83.9523 105.41 83.6897 105.745 83.4641C105.85 83.3933 105.991 83.3881 106.125 83.4118C106.292 83.4412 106.456 83.5192 106.555 83.6245C107.105 84.2092 107.903 84.7793 108.847 84.7696C109.575 84.7622 110.17 84.4745 110.746 84.1493L111.152 83.9171C111.543 83.6939 111.939 83.4841 112.388 83.3884C113.191 83.2168 114.166 83.5302 114.759 84.0475C115.018 84.2731 115.206 84.5382 115.257 84.8238C115.3 85.0636 115.24 85.3139 115.052 85.5593ZM110.876 69.6117C112.472 70.5819 114.902 72.844 113.186 75.249C111.166 77.3695 108.257 74.9382 106.824 73.8385C105.495 72.9863 104.002 75.1782 105.235 76.1733C115.592 83.8443 119.795 69.8654 111.683 68.4711C110.79 68.3175 110.458 69.3116 110.876 69.6117ZM92.8781 54.7018L93.3364 54.5761L93.8037 54.4499L94.1197 54.3663C96.2905 53.7979 98.6848 53.2977 100.837 53.5419C101.622 53.6311 102.26 54.0731 102.371 54.8959C102.464 55.5901 102.016 56.4858 101.252 56.6093C98.7242 57.0184 96.136 56.8857 93.5962 57.3076C92.3313 57.5174 91.0762 57.778 89.8162 58.0128C88.8581 58.1916 87.8681 58.2544 86.9017 58.399L87.1238 58.4298C87.2015 58.4404 87.1821 58.5712 87.1054 58.566C86.7869 58.5341 86.4679 58.5292 86.1484 58.5515L86.0114 58.5628C85.8029 58.5922 85.68 58.3432 85.8659 58.2168C87.0433 57.4177 88.0423 56.5516 89.3607 55.9625C90.5009 55.4532 91.6745 55.0332 92.8781 54.7018ZM112.64 53.4763C114.309 51.7884 117.858 52.437 119.844 53.2091C120.977 53.65 122.054 54.2073 122.952 55.0411L123.039 55.1231L123.174 55.2528C123.78 55.8461 124.455 56.6625 124.359 57.5179C124.345 57.6483 124.274 57.7973 124.126 57.8235C123.331 57.9645 122.55 57.5447 121.816 57.2922L121.329 57.1252C120.599 56.8764 119.864 56.6386 119.111 56.4669C118.175 56.2538 117.22 56.1306 116.258 56.1429C115.287 56.1555 114.243 56.4299 113.318 56.044C112.285 55.6139 111.75 54.3762 112.64 53.4763ZM96.1512 67.0888C95.7254 67.5239 95.163 67.7693 94.4432 67.6233C93.8808 67.5093 92.8099 66.9435 91.9544 66.0722C91.3691 65.4762 90.8798 64.7313 90.7468 63.8685C90.7159 63.6681 90.6096 63.5397 90.47 63.4588C90.3598 63.3949 90.2144 63.3628 90.0561 63.3788C89.9217 63.3924 89.779 63.4411 89.6687 63.5057C89.459 63.6285 89.3732 63.8028 89.3557 63.933C89.1874 65.1892 89.6725 66.4356 90.4285 67.4865C91.4489 68.9048 92.9473 69.9442 93.828 70.1874C95.3352 70.604 96.9232 70.2724 98.0941 69.223C99.0304 68.384 99.5103 67.2908 99.9556 66.1667L100.041 65.9488C100.142 65.6938 100.241 65.4406 100.346 65.1901C100.557 64.6881 100.49 64.2542 100.285 63.9161C100.058 63.5414 99.64 63.2777 99.1741 63.1967C98.7436 63.1218 98.2828 63.2037 97.919 63.4668C97.6117 63.6891 97.3639 64.0413 97.2759 64.562C97.1327 65.4088 96.8006 66.3804 96.215 67.0214L96.1512 67.0888ZM121.994 62.1877C121.643 62.0047 121.369 61.9495 120.979 62.0662C120.764 62.131 120.551 62.255 120.384 62.4218C120.219 62.587 120.1 62.7925 120.053 63.0205C119.939 63.5832 119.632 64.1099 119.193 64.4533C118.818 64.7468 118.345 64.9023 117.82 64.8146C117.254 64.72 116.714 64.3567 116.343 63.9283C116.239 63.8089 116.155 63.6759 116.072 63.5413L116.023 63.4605C115.84 63.1581 115.662 62.8771 115.41 62.655C115.314 62.5705 115.17 62.512 115.03 62.512C114.974 62.512 114.916 62.5212 114.861 62.5384C114.297 63.1043 114.189 63.5336 114.207 63.9594C114.226 64.406 114.402 64.8581 114.687 65.2799C115.354 66.2695 116.62 67.0808 117.475 67.2646C118.645 67.5162 119.808 67.2141 120.74 66.5601C121.699 65.8871 122.41 64.8423 122.631 63.6649C122.684 63.3813 122.662 63.0752 122.554 62.8098C122.448 62.5505 122.264 62.3284 121.994 62.1877Z" fill="black"/>
<path fill-rule="evenodd" clip-rule="evenodd" d="M122.495 53.8942C127.454 53.8942 130.284 54.961 131.321 55.0441L131.352 55.0464C131.783 55.074 132.17 55.11 132.576 55.2671C134.069 55.8422 134.312 57.4084 133.441 58.3955C133.38 60.4379 133.648 62.8243 133.187 64.8733C132.619 73.5114 128.558 74.9692 126.25 75.5012C125.091 75.7684 123.718 75.8747 122.487 75.5927C120.387 75.5144 118.311 74.8567 116.534 73.7115C114.061 72.1154 112.223 69.6621 111.627 66.7507C111.345 65.3628 111.212 63.9183 111.366 62.5077L111.389 62.3133C110.585 61.9285 109.653 61.8557 108.693 61.8218C108.234 61.8054 107.782 61.7908 107.342 61.8103C106.913 61.8583 106.488 61.9222 106.063 62.0092C105.598 62.1495 105.159 62.381 104.754 62.7477L104.726 63.2829C104.65 64.6199 104.474 65.961 104.204 67.2727C103.804 69.2082 103.161 71.0566 101.793 72.4295C101.33 73.1214 100.757 73.7389 100.062 74.2737C97.5349 76.22 94.1018 76.9346 90.951 76.6655C84.5545 76.1194 80.8572 71.0397 80.0051 68.8684L79.9542 68.7369C79.3387 67.1227 78.8482 65.0283 76.9032 64.6815L76.4895 64.6071C75.602 64.4405 74.783 64.2084 74.2626 63.3421C74.0345 62.964 73.9171 62.541 73.8884 62.1098C73.5848 62.1331 73.2816 62.1554 72.9794 62.177C70.5692 62.687 56.1127 63.1193 54.9588 63.1193C54.9588 63.1193 52.7407 64.0533 51.8042 63.3296C51.1551 62.8264 50.9415 62.1558 51.2988 61.3961C51.838 60.253 54.3254 59.5654 55.4298 59.3476C55.4298 59.3476 73.2534 59.4957 74.5362 59.2524C75.3299 58.4337 76.7497 58.5457 77.9361 58.4163C78.9182 57.7157 80.2921 57.2465 81.3773 56.9324C81.5985 56.8486 81.8175 56.7675 82.0305 56.6911C84.02 55.9823 86.0881 55.6069 88.1876 55.4052C90.3527 55.1994 92.5241 55.2926 94.6765 55.5875C95.5835 55.7106 96.4821 55.8698 97.3744 56.078C98.972 56.2887 100.56 56.6357 102.159 57.0474L102.478 57.1306C104.161 57.572 105.891 57.9538 107.633 57.6546C109.051 57.4126 110.415 56.8665 111.723 56.276L111.893 56.1987C114.769 54.8853 119.26 53.8942 122.495 53.8942ZM97.2014 58.6966C96.1405 58.4632 95.6874 60.0996 96.7517 60.3337C97.5054 60.4995 98.1442 60.8797 98.5758 61.5238L98.6212 61.5939C99.2003 62.5158 100.665 61.6647 100.082 60.7369C99.4255 59.6928 98.406 58.9615 97.2014 58.6966ZM128.276 57.682C127.902 57.4184 127.336 57.6141 127.119 57.9865C126.88 58.3966 127.036 58.8533 127.387 59.1216L127.422 59.1478C127.744 59.3743 128.057 59.7804 128.096 60.1965L128.099 60.2486C128.142 61.3375 129.833 61.343 129.791 60.2486C129.75 59.1779 129.13 58.2834 128.276 57.682Z" fill="black"/>
</svg>
