<svg width="196" height="252" viewBox="0 0 196 252" fill="none" xmlns="http://www.w3.org/2000/svg">
<path fill-rule="evenodd" clip-rule="evenodd" d="M86.5999 95.3382C92.7546 95.642 102.338 98.2816 102.817 99.9686C103.565 102.603 101.957 112.479 104.646 117.798C105.792 120.066 110.145 119.863 111.831 120.601C117.474 123.072 134.18 127.758 137.624 133.659C139.004 136.023 147.484 165.356 151.99 180.321C152.498 182.008 153.072 183.569 153.696 185.014L153.925 183.891C155.762 174.846 156.681 169.371 156.681 167.464C156.681 164.486 154.306 151.919 156.681 148.723C159.032 145.56 164.698 142.973 167.248 142.921L167.324 142.92C168.998 142.92 170.45 142.397 171.681 141.35L173.486 140.442C182.668 135.833 188.032 133.305 189.579 132.858C192.047 132.144 196.248 133.665 194.148 135.948C192.747 137.47 189.228 140.163 183.591 144.027L181.465 145.717L181.722 145.851C184.469 147.298 186.084 148.516 186.568 149.504C187.066 150.523 186.827 151.729 185.851 153.121L185.999 153.265C187.234 154.478 187.851 155.291 187.851 155.705V157.728C189.08 159.528 189.387 161.029 188.772 162.231C188.158 163.433 187.184 164.475 185.851 165.356C184.868 167.942 183.698 169.783 182.34 170.878C180.982 171.973 178.635 172.885 175.299 173.613L172.281 180.833L169.835 190.977L168.602 202.295L168.96 202.554C170.619 203.763 171.681 204.659 171.681 205.584C171.681 207.027 164.989 240.944 154.577 242.462C152.325 242.79 140.647 241.18 136.813 238.06L136.869 238.397C137.771 243.848 137.581 246.679 136.297 246.889C120.518 249.477 75.7042 250.277 1.85632 249.288C1.41696 210.078 3.40367 183.965 7.81644 170.948C19.1024 137.658 31.5456 126.287 35.8989 125.313C39.7121 124.46 52.935 119.196 56.6314 117.798C59.0442 116.886 59.5611 114.151 62.3107 114.151L62.533 114.152C65.192 114.179 67.5501 114.655 68.8749 113.287C72.3516 109.697 71.3797 104.727 72.822 99.9686C73.6167 97.3468 79.0473 94.9654 86.5999 95.3382Z" fill="white"/>
<path fill-rule="evenodd" clip-rule="evenodd" d="M69.6909 104.739C70.0521 104.023 71.0111 104.116 71.6438 104.441C73.5417 105.829 71.556 108.519 71.031 110.213C69.6805 113.498 67.335 116.708 64.0972 118.244C64.3655 121.51 64.6695 124.768 64.7817 128.044C68.9214 133.181 75.9011 135.056 82.0969 136.498C91.8281 139.19 102.811 133.674 106.095 124.052C102.357 121.927 101.147 116.364 102.263 112.483C102.36 112.21 102.782 112.089 102.932 112.394C103.956 114.5 103.819 117.069 104.983 119.15C116.152 120.22 130.567 124.436 137.884 133.472C141.127 137.992 142.412 143.872 144.009 149.112C147.417 159.913 150.132 170.934 153.474 181.746L153.868 179.7C154.948 174.065 155.929 168.352 155.2 162.621L155.186 162.347C154.948 157.786 153.522 149.312 157.057 146.233C160.255 143.788 164.888 141.823 168.901 142.95C176.042 139.771 182.206 134.418 189.812 132.333C192.153 131.851 195.52 132.421 194.967 135.598C193.434 141.154 187.012 143.311 182.622 146.176C185.436 146.939 188.867 150.362 186.668 153.347C186.649 153.4 186.632 153.44 186.615 153.472C188.398 154.262 188.648 156.249 188.211 157.952C188.166 158.403 188.048 158.016 188.312 158.424C190.324 160.322 189.435 165.612 186.404 165.791C186.603 168.298 184.993 170.733 182.954 172.1C180.757 173.573 177.58 173.637 175.76 175.653C171.489 183.187 170.016 192.082 169.55 200.709C172.366 201.764 174.892 204.916 172.334 207.591C172.283 207.597 172.233 207.603 172.182 207.607C170.699 211.566 170.126 215.786 169.342 219.92C168.135 226.975 164.991 233.452 160.976 239.329C156.333 247.108 143.847 245.875 137.557 240.855C137.582 242.172 137.799 243.481 137.377 244.754C136.755 246.127 135.238 245.534 135.087 244.181C131.762 246.052 130.979 239.877 134.675 240.856C134.391 236.393 134.226 231.922 134.092 227.451C129.908 228.806 129.727 221.86 134.008 223.249L134.003 221.329C133.971 206.606 134.134 191.833 136.076 177.225C136.256 176.133 136.56 175.076 136.737 173.99C136.756 173.877 136.932 173.909 136.932 174.017C137.233 194.467 135.897 214.961 137.291 235.419C138.451 235.772 138.914 237.105 139.773 237.881C141.681 239.642 144.278 240.5 146.819 240.799C153.932 241.797 157.003 239.624 160.171 233.438C158.742 234.393 156.812 232.707 157.683 231.195L157.71 231.149C158.614 229.548 161.168 230.507 160.845 232.301C164.03 227.199 165.697 221.446 166.928 215.609L167.094 214.911C167.693 212.433 168.469 209.593 169.906 207.351C161.143 205.117 152.57 198.309 151.198 188.969C148.973 195.962 145.959 202.798 143.086 209.6C142.199 211.965 141.829 214.507 140.557 216.701C140.261 217.209 139.511 217.078 139.344 216.543C138.2 211.427 141.666 206.561 143.466 201.955C144.935 199.353 149.153 187.467 151.769 187.438C148.83 174.553 144.91 161.763 141.178 149.038C137.568 131.856 130.212 128.542 114.63 123.132C117.44 137.461 130.273 151.331 123.444 166.36L123.278 166.75C122.58 168.407 122 170.077 122.487 171.895C122.961 173.66 124.038 175.192 124.9 176.78C129.719 185.745 126.402 196.216 124.539 205.553C122.185 216.502 119.86 227.462 117.427 238.394C116.948 240.575 116.637 242.822 115.913 244.936C115.539 246.026 113.673 245.923 113.794 244.65C114.024 242.182 114.717 239.775 115.224 237.35C118.253 221.655 122.352 206.146 124.958 190.382C126.635 178.713 120.035 176.92 120.281 169.38C121.178 165.524 123.553 162.083 123.417 157.974C123.944 145.395 114.786 135.017 113.655 122.784L111.658 122.071C110.66 121.714 109.664 121.353 108.67 120.985C113.9 157.575 112.312 194.964 109.698 231.735C109.163 233.432 109.672 245.284 107.432 244.232C107.319 244.894 106.968 245.545 106.203 245.542C99.2584 245.606 92.3119 245.716 85.3676 245.798C82.0272 245.491 77.436 246.766 74.5948 244.838C71.3145 243.902 70.9374 235.015 70.0604 231.847L69.7185 229.543C64.1444 191.9 59.1562 153.48 63.1629 115.463C57.5884 115.678 56.4379 121.696 56.0244 126.078C54.9907 135.75 48.7439 144.08 48.4443 153.863C48.419 156.236 48.8669 158.536 49.8152 160.715C52.3314 166.054 56.6831 172.226 53.4307 178.189C49.5841 182.832 49.9171 184.053 51.3286 189.79C55.2998 208.755 61.8947 226.987 68.1683 245.272C66.8052 252.379 58.6063 225.995 57.835 224.006C54.2056 225.831 52.2231 219.773 56.3859 219.341C53.7121 210.388 51.2514 201.368 49.2028 192.248L49.1485 191.991C48.2436 187.778 46.4636 182.844 49.4694 179.106C57.22 171.265 44.3489 162.501 45.9725 153.003C44.5705 154.042 42.4483 152.948 42.4802 151.202C42.4167 149.235 45.0571 148.228 46.3276 149.729C47.634 142.022 52.1789 135.294 53.5543 127.61L53.6164 127.25C54.0824 124.534 54.2138 121.676 55.5471 119.201C53.7321 120.381 51.7993 121.334 49.8112 122.175C53.3658 125.145 46.4825 127.856 47.0521 123.268C27.5588 128.91 23.1529 136.777 15.9957 154.846C17.3326 153.546 19.6228 155.228 18.8225 156.885C18.1841 158.631 15.3989 158.12 15.4 156.26L15.0738 157.038C10.7338 167.419 6.78365 178.053 4.79856 189.163C8.69264 188.613 7.70116 194.838 4.17299 193.083C2.75708 202.964 2.73468 212.984 2.90771 222.945C6.19229 221.222 6.29116 227.076 2.9394 225.407C3.06194 233.569 3.24152 241.732 3.37673 249.894C3.40419 251.631 0.725318 251.623 0.683065 249.894C0.370177 237.352 -0.200033 224.788 0.0710231 212.242C-0.183977 190.468 6.07335 169.481 15.3966 149.975C23.646 127.516 35.0409 124.962 56.0056 118.432C57.9408 115.558 62.0753 112.84 65.4486 114.645C67.3359 111.597 68.2944 107.986 69.6909 104.739ZM33.7718 183.014C33.85 182.737 34.2451 182.807 34.2577 183.08C34.4331 186.603 34.2767 190.149 34.0359 193.688C33.8899 195.848 33.7106 198.005 33.5584 200.151C33.1549 205.811 32.8296 211.477 32.5824 217.147C32.669 217.111 32.7577 217.08 32.8507 217.054C33.2775 216.938 33.7044 216.938 34.131 217.054C34.5115 217.161 34.8443 217.347 35.1308 217.615L35.1915 217.674C35.426 217.891 35.5929 218.149 35.6901 218.447C35.8286 218.712 35.8986 218.996 35.8985 219.299L35.897 219.375C35.8951 219.81 35.7873 220.214 35.5676 220.59C35.3542 220.952 35.0669 221.239 34.7056 221.455C34.3296 221.672 33.9258 221.78 33.4908 221.782C33.4444 221.787 33.3977 221.791 33.3514 221.793C33.0279 221.806 32.726 221.738 32.447 221.592L32.4049 221.579C32.2993 224.456 32.2127 227.334 32.1493 230.213C32.0922 232.722 32.0162 235.231 31.9655 237.739L31.9419 238.994L31.896 241.768C31.881 242.908 31.8883 244 31.5007 245.076L31.4542 245.2C31.1753 245.918 30.9579 246.918 30.2117 247.318C29.6162 247.637 28.8134 247.518 28.4711 246.897C28.1838 246.377 28.4329 245.629 28.8577 245.278C28.8493 245.255 28.8366 245.234 28.826 245.21C28.7605 245.02 28.661 244.841 28.6021 244.648C28.416 244.04 28.4669 243.391 28.4648 242.759C28.4648 241.643 28.5026 240.527 28.5324 239.413C28.5979 237.042 28.6739 234.673 28.7667 232.303C29.0807 224.356 29.672 216.408 30.3492 208.482L30.579 205.807C30.8852 202.25 31.2021 198.689 31.6507 195.15C31.6716 194.981 31.6929 194.812 31.7162 194.643C31.4753 194.522 31.2514 194.355 31.0737 194.169C30.362 193.422 29.9302 192.304 29.5254 191.341L29.4324 191.122C28.9929 190.095 28.5873 189.055 28.3782 187.951L28.3581 187.85C28.2627 187.38 28.0744 186.548 28.5725 186.32C28.8324 186.201 28.997 186.286 29.0817 186.546C29.0925 186.58 29.0836 186.618 29.0648 186.647C29.2697 186.962 29.5908 187.256 29.7936 187.548L30.4878 188.541L30.831 189.04C31.2662 189.68 31.731 190.293 32.2106 190.898C32.5885 188.243 33.0514 185.599 33.7718 183.014ZM62.238 242.169C63.1063 241.488 64.5197 241.858 64.5197 243.114C64.5197 244.376 63.1042 244.739 62.238 244.058L62.1949 244.027L62.1535 243.993C61.6818 243.624 61.666 242.665 62.1179 242.264L62.1535 242.235C62.1808 242.211 62.2085 242.19 62.238 242.169ZM24.4119 239.716L24.4865 239.717C24.8795 239.717 25.245 239.817 25.5851 240.016C25.733 240.128 25.8788 240.241 26.0267 240.356C26.2971 240.626 26.483 240.948 26.5865 241.317L26.6649 241.896C26.6753 242.196 26.614 242.475 26.4767 242.736C26.388 243.006 26.238 243.241 26.0267 243.437C25.8281 243.651 25.5957 243.801 25.3255 243.887C25.0871 244.013 24.8329 244.077 24.5611 244.077L24.4865 244.076C24.0917 244.076 23.726 243.976 23.3858 243.777C23.238 243.666 23.0922 243.551 22.9443 243.437C22.676 243.167 22.488 242.845 22.3846 242.475C22.3591 242.283 22.3339 242.089 22.3063 241.896C22.2959 241.596 22.3591 241.317 22.4943 241.057C22.583 240.787 22.733 240.552 22.9443 240.356C23.1431 240.142 23.3753 239.992 23.6457 239.905C23.8839 239.78 24.1399 239.716 24.4119 239.716ZM123.309 235.697L123.863 235.772C124.393 235.892 124.82 236.283 125.105 236.729C125.257 236.968 125.339 237.226 125.352 237.503C125.413 237.777 125.401 238.054 125.314 238.331C125.251 238.601 125.126 238.838 124.942 239.039C124.879 239.138 124.805 239.229 124.721 239.31C124.547 239.599 124.285 239.789 124.015 239.984C123.787 240.13 123.539 240.208 123.273 240.221C123.098 240.267 122.92 240.267 122.743 240.221C122.479 240.208 122.232 240.13 122.003 239.984C121.868 239.88 121.733 239.775 121.6 239.671C121.482 239.534 121.372 239.392 121.268 239.244C121.199 239.081 121.131 238.92 121.063 238.76C120.939 238.373 121 238.031 121.068 237.644C121.078 237.579 121.095 237.519 121.118 237.456L121.164 237.333C121.286 237.012 121.351 236.903 121.566 236.623L121.648 236.513C121.689 236.459 121.731 236.405 121.78 236.357C121.915 236.218 122.107 236.101 122.259 235.981C122.584 235.793 122.935 235.7 123.309 235.697ZM51.5809 234.344L51.6513 234.345C51.9577 234.347 52.2452 234.423 52.5112 234.577L52.8577 234.846C53.0689 235.059 53.2147 235.309 53.2971 235.598C53.3161 235.75 53.3375 235.903 53.3584 236.053C53.3668 236.287 53.3184 236.507 53.2105 236.712C53.1431 236.923 53.0246 237.105 52.8577 237.262C52.7037 237.426 52.5196 237.545 52.3084 237.615C52.124 237.711 51.9256 237.761 51.7149 237.762L51.6513 237.76C51.3429 237.76 51.0556 237.682 50.7894 237.528L50.4429 237.262C50.2316 237.048 50.0858 236.797 50.0034 236.507C49.9844 236.355 49.9633 236.205 49.9422 236.053C49.9337 235.818 49.9823 235.598 50.0901 235.395C50.1598 235.184 50.276 235 50.4429 234.846C50.5971 234.679 50.7809 234.561 50.9922 234.493C51.1766 234.396 51.3713 234.347 51.5809 234.344ZM37.638 233.645C38.0794 233.641 38.5275 233.766 38.8887 234.022C39.2394 234.271 39.5054 234.539 39.6768 234.943C39.7232 235.053 39.7695 235.161 39.8099 235.271C39.9916 235.755 40.0254 236.241 39.774 236.714C39.531 237.173 39.0071 237.374 38.5378 237.511C38.1409 237.629 37.6909 237.648 37.2958 237.507C37.0993 237.437 36.9071 237.363 36.7296 237.255C36.3979 237.05 36.2183 236.807 35.9965 236.507C35.8232 236.211 35.7366 235.89 35.7366 235.548C35.7366 235.203 35.8232 234.884 35.9965 234.586C36.3364 234.005 36.9662 233.65 37.638 233.645ZM15.2436 234.053C15.8015 234.053 16.2915 234.311 16.6276 234.746C16.9675 235.188 17.0922 235.738 16.9422 236.285C16.7837 236.864 16.3044 237.371 15.7105 237.517C15.2713 237.625 14.9119 237.621 14.4746 237.547C14.1049 237.484 13.822 237.263 13.5387 237.035C13.2154 236.771 13.1161 236.289 13.1689 235.9C13.2196 235.512 13.3994 235.258 13.672 235.027L13.6739 235.021L13.5725 235.099C13.6107 235.066 13.6485 235.03 13.6868 234.994C13.6992 234.973 13.7098 234.949 13.7203 234.926C13.8767 234.66 14.088 234.451 14.352 234.294C14.6288 234.134 14.9246 234.053 15.2436 234.053ZM145.298 227.652C145.604 227.569 145.913 227.569 146.219 227.652C146.445 227.704 146.641 227.808 146.809 227.962C146.978 228.072 147.116 228.214 147.221 228.389L147.254 228.448C147.495 228.858 147.533 229.327 147.429 229.784C147.301 230.348 146.781 230.862 146.219 230.995L146.2 230.998L146.181 231.004C145.953 231.075 145.722 231.086 145.494 231.033C145.264 231.023 145.051 230.955 144.854 230.828C144.605 230.668 144.396 230.46 144.235 230.211C144.108 230.012 144.041 229.799 144.03 229.568C143.99 229.416 143.99 229.264 144.03 229.112C144.041 228.881 144.108 228.668 144.235 228.469L144.505 228.121L144.533 228.098C144.749 227.882 145.004 227.734 145.298 227.652ZM124.027 216.467C126.797 216.467 126.793 220.766 124.027 220.766C121.258 220.766 121.262 216.467 124.027 216.467ZM22.623 215.924C22.9148 215.858 23.2063 215.871 23.4958 215.962C23.6711 216.036 23.8444 216.11 24.0176 216.181L24.4613 216.524C24.5437 216.594 24.5838 216.67 24.6599 216.769L24.7549 216.893C24.8924 217.078 24.8956 217.116 25.0465 217.509C25.1479 217.885 25.1479 218.261 25.0465 218.638C24.9977 218.819 24.924 218.99 24.8289 219.149C24.742 219.301 24.638 219.435 24.5209 219.557L24.4613 219.618C24.2627 219.832 24.0282 219.982 23.7578 220.07C23.5866 220.17 23.4028 220.218 23.2063 220.218C22.9148 220.284 22.623 220.271 22.3338 220.18C22.1585 220.106 21.9852 220.032 21.8118 219.96L21.3683 219.618L21.0261 219.174L20.9169 218.914L20.8063 218.652L20.7282 218.071C20.7176 217.769 20.7789 217.49 20.916 217.228C20.9688 217.044 21.062 216.881 21.197 216.746C21.2944 216.581 21.4251 216.45 21.5901 216.353C21.7251 216.217 21.888 216.124 22.0718 216.072C22.243 215.972 22.4268 215.924 22.623 215.924ZM159.613 212.853C159.844 212.844 160.059 212.893 160.258 212.998C160.327 213.022 160.395 213.051 160.461 213.085C160.716 213.235 160.919 213.438 161.069 213.692C161.192 213.886 161.259 214.096 161.27 214.322C161.316 214.525 161.311 214.731 161.256 214.935L161.238 214.996C161.192 215.163 161.122 215.317 161.029 215.459C161.02 215.476 161.01 215.492 160.997 215.507C160.856 215.731 160.668 215.915 160.435 216.053C160.177 216.2 159.901 216.277 159.601 216.279C159.003 216.279 158.487 215.955 158.173 215.459C158.128 215.389 158.103 215.3 158.071 215.228C158.044 215.161 157.999 215.074 157.976 214.996C157.896 214.696 157.896 214.396 157.976 214.096C158.029 213.876 158.128 213.683 158.278 213.521C158.398 213.337 158.557 213.191 158.754 213.085C158.997 212.943 159.259 212.867 159.537 212.854L159.613 212.853ZM42.6724 210.75C42.9649 210.67 43.2558 210.664 43.5464 210.731L43.6191 210.75C43.8513 210.805 44.0522 210.91 44.2252 211.067C44.4175 211.194 44.5719 211.361 44.6837 211.568C44.8444 211.845 44.9247 212.145 44.9266 212.466C44.9247 212.787 44.8444 213.087 44.6837 213.364C44.5252 213.633 44.3118 213.844 44.0437 214.003L43.8113 214.115C43.617 214.237 43.4099 214.303 43.1858 214.313C43.036 214.353 42.8858 214.353 42.7381 214.313C42.5858 214.313 42.4442 214.275 42.3135 214.199C42.1698 214.159 42.047 214.087 41.9414 213.981C41.7576 213.863 41.6142 213.707 41.5085 213.51L41.3372 213.106L41.2782 212.658L41.3372 212.212L41.4304 211.993C41.5147 211.69 41.667 211.428 41.8886 211.206C42.1104 210.986 42.3724 210.834 42.6724 210.75ZM147.444 207.184C147.753 207.087 148.059 207.074 148.366 207.142C148.572 207.142 148.767 207.195 148.947 207.301C149.143 207.355 149.312 207.453 149.456 207.597C149.707 207.759 149.904 207.975 150.049 208.243L150.282 208.795C150.421 209.152 150.37 209.678 150.286 210.038C150.216 210.333 150.081 210.591 149.88 210.811C149.779 210.982 149.644 211.118 149.472 211.219C149.277 211.397 149.051 211.524 148.795 211.599L148.725 211.618L148.699 211.625C148.695 211.627 148.691 211.627 148.687 211.627C148.685 211.629 148.68 211.629 148.678 211.629C148.577 211.654 148.473 211.669 148.366 211.673C148.059 211.741 147.753 211.728 147.444 211.631C147.263 211.555 147.079 211.477 146.895 211.399C146.739 211.28 146.584 211.16 146.428 211.039C146.308 210.883 146.187 210.726 146.067 210.572C145.898 210.308 145.807 210.021 145.794 209.714C145.739 209.509 145.739 209.306 145.794 209.101C145.794 208.892 145.847 208.7 145.951 208.52C146.044 208.233 146.202 207.985 146.428 207.776C146.584 207.656 146.739 207.535 146.895 207.417C147.079 207.338 147.263 207.261 147.444 207.184ZM12.6979 199.618C13.0167 199.531 13.3359 199.531 13.655 199.618L14.0836 199.798C14.2949 199.912 14.462 200.066 14.5888 200.263C14.7493 200.436 14.8569 200.641 14.9118 200.876C15.0366 201.197 15.0219 201.706 14.9226 202.034C14.8106 202.406 14.6374 202.702 14.369 202.981C13.9233 203.441 13.2386 203.574 12.6324 203.435C12.4653 203.397 12.3069 203.323 12.1632 203.232C11.705 202.949 11.3965 202.454 11.3986 201.907C11.3986 201.848 11.4028 201.789 11.4113 201.73C11.3817 201.609 11.3709 201.484 11.3754 201.353L11.4388 200.876L11.4428 200.863C11.5275 200.56 11.6796 200.299 11.9012 200.077C12.1062 199.874 12.3452 199.727 12.6183 199.639L12.6874 199.618H12.6979ZM172.118 152.16C171.541 147.426 169.371 142.333 162.753 145.113L162.261 145.297C160.624 145.917 158.715 146.732 157.718 148.165C157.032 149.152 157.264 151.065 157.169 152.216C156.738 155.962 156.969 159.701 157.419 163.431C157.999 172.172 156.162 181.229 152.504 189.173C156.165 195.098 161.064 200.625 167.747 203.095C168.03 196.358 169.348 189.745 170.751 183.171L170.807 182.884C171.368 179.92 171.649 176.878 173.595 174.412C177.554 170.113 182.998 172.546 185.603 165.639C185.056 165.362 185.358 164.416 186.018 164.597C188.303 165.003 188.674 160.766 187.11 159.745C185.481 158.751 187.121 156.917 186.427 155.594C186.041 155.023 185.206 155.004 184.828 154.347C183.825 151.927 188.843 150.376 182.942 147.648C181.734 147.219 180.384 147.485 179.166 147.48C177.374 147.648 175.95 148.911 174.311 149.308C176.096 153.93 171.593 158.381 167.53 154.689C165.318 156.78 162.845 161.546 168.221 159.324C170.852 157.568 173.117 155.297 176.171 154.216L176.235 154.195C177.369 153.824 182.33 151.413 182.084 153.499C180.226 155.294 177.161 155.272 175.009 156.729C172.025 158.109 170.117 161.454 166.545 161.408C165.722 166.41 171.396 163.366 173.508 161.987L174.094 161.669C177.075 160.058 180.1 158.566 183.575 158.546C184.534 158.54 184.53 160.019 183.575 160.032C179.046 160.06 175.359 162.893 171.565 164.999C171.191 167.918 175.465 166.64 177.087 166.209C178.788 165.97 181.519 164.13 183.007 165.102C183.589 166.599 181.028 166.487 180.136 166.941C184.207 168.897 180.64 170.129 179.549 167.123L179.229 167.232C176.502 168.148 169.891 170.035 170.678 165.415C169.68 165.857 168.463 166.121 167.361 165.876C164.611 169.944 160.225 168.37 166.6 165.597C165.163 164.928 164.684 162.347 166.064 161.387C161.045 161.08 164.771 155.813 166.848 154.058C166.652 153.86 166.462 153.658 166.285 153.453C165.087 154.023 163.828 154.37 162.482 154.493C161.194 154.609 160.907 152.415 162.178 152.235C163.541 152.043 164.796 151.68 165.996 150.995C167.814 150.209 168.435 153.585 170.255 153.704C171.248 153.901 171.919 153.03 172.118 152.16ZM129.869 195.716C130.309 195.716 130.699 195.9 131.018 196.192C131.337 196.484 131.475 196.921 131.494 197.34C131.502 197.564 131.456 197.773 131.354 197.967C131.289 198.168 131.177 198.341 131.018 198.49C130.722 198.783 130.285 198.965 129.869 198.965C129.43 198.965 129.039 198.781 128.72 198.49C128.401 198.196 128.263 197.76 128.244 197.34C128.236 197.118 128.283 196.908 128.384 196.714C128.443 196.533 128.539 196.373 128.673 196.237L128.72 196.192C129.016 195.896 129.453 195.716 129.869 195.716ZM143.184 185.693L143.255 185.694C143.627 185.696 143.971 185.789 144.292 185.975C144.432 186.083 144.571 186.189 144.709 186.297C144.964 186.554 145.139 186.857 145.237 187.205C145.336 187.569 145.336 187.935 145.237 188.298C145.203 188.507 145.125 188.71 145.002 188.886C144.82 189.188 144.58 189.431 144.275 189.61C143.96 189.794 143.62 189.885 143.255 189.887C142.89 189.885 142.549 189.794 142.234 189.61C141.93 189.431 141.689 189.188 141.51 188.886C141.385 188.71 141.307 188.507 141.273 188.298C141.174 187.935 141.174 187.569 141.273 187.205C141.363 186.881 141.521 186.598 141.748 186.353L141.801 186.297C141.987 186.096 142.207 185.954 142.463 185.872C142.687 185.754 142.928 185.694 143.184 185.693ZM41.5653 185.806C41.7218 185.764 41.8761 185.764 42.0324 185.806C42.2648 185.817 42.4822 185.886 42.6831 186.013C42.8014 186.106 42.9197 186.197 43.038 186.288L43.1412 186.412C43.3617 186.681 43.3672 186.727 43.5364 187.136C43.6063 187.364 43.6169 187.592 43.5662 187.82C43.5662 187.975 43.5261 188.118 43.4498 188.252C43.4078 188.397 43.3359 188.524 43.2282 188.63C43.1519 188.759 43.0507 188.862 42.9216 188.939C42.757 189.089 42.5627 189.192 42.3387 189.245L41.8843 189.306C41.8254 189.298 41.7641 189.289 41.7049 189.283C41.6336 189.281 41.5644 189.273 41.4966 189.26L41.428 189.245L41.3655 189.228C41.2828 189.204 41.2022 189.172 41.124 189.131C40.9761 189.089 40.8472 189.015 40.7371 188.905C40.5472 188.782 40.3951 188.617 40.2852 188.412L40.2556 188.345C40.2155 188.273 40.1817 188.199 40.1561 188.118C40.0845 187.992 40.0486 187.856 40.0465 187.711C40.0045 187.517 40.0073 187.324 40.0575 187.132L40.0761 187.068L40.2387 186.681C40.3232 186.55 40.412 186.417 40.5259 186.309C40.5945 186.248 40.7622 186.117 40.8567 186.052L40.9146 186.013C41.1155 185.886 41.3331 185.817 41.5653 185.806ZM16.0951 182.784C16.3993 181.586 17.9711 181.207 18.8267 182.063C19.6822 182.919 19.3042 184.492 18.1065 184.796L17.969 184.83C16.8113 185.124 15.7676 184.077 16.0613 182.919L16.0951 182.784ZM161.103 173.009C161.094 172.891 161.246 172.848 161.322 172.918C162.341 173.831 162.989 174.926 164.225 175.634C165.468 176.344 166.748 176.287 168.043 176.746C168.482 176.902 168.484 177.49 168.043 177.644C165.592 178.5 161.289 175.598 161.103 173.009ZM45.9513 172.823C46.2241 172.738 46.4987 172.726 46.7712 172.787C46.9572 172.787 47.1302 172.834 47.2886 172.926C47.464 172.975 47.6142 173.064 47.7429 173.191C47.8973 173.282 48.0198 173.406 48.1126 173.56C48.2945 173.759 48.417 173.992 48.4802 174.258L48.552 174.805L48.4802 175.353C48.4105 175.515 48.3407 175.68 48.2731 175.843L48.0844 176.099C47.9314 176.303 47.9069 176.305 47.5358 176.581C47.2994 176.731 47.0438 176.813 46.7712 176.824C46.5893 176.875 46.4076 176.875 46.2241 176.824C46.0403 176.824 45.8668 176.777 45.7065 176.684C45.533 176.636 45.3811 176.547 45.252 176.42C45.0283 176.274 44.8529 176.082 44.7238 175.843C44.6541 175.68 44.5846 175.515 44.517 175.353L44.4429 174.805L44.517 174.258L44.521 174.241C44.6182 173.899 44.7917 173.601 45.0407 173.349L45.4508 173.032C45.6112 172.929 45.7781 172.876 45.9513 172.823ZM144.573 173.233C145.158 173.072 145.801 173.241 146.229 173.671C146.658 174.1 146.827 174.74 146.667 175.325C146.508 175.896 146.05 176.359 145.477 176.513C145.306 176.56 145.133 176.585 144.958 176.577C144.664 176.575 144.389 176.5 144.134 176.353L143.804 176.097C143.643 175.949 143.532 175.774 143.466 175.571C143.362 175.376 143.316 175.167 143.324 174.941L143.323 174.901C143.316 174.82 143.327 174.74 143.352 174.662C143.352 174.579 143.365 174.499 143.386 174.421C143.54 173.85 144.005 173.389 144.573 173.233ZM18.4127 167.51C18.6007 167.503 18.776 167.541 18.9387 167.628C19.1098 167.683 19.2556 167.776 19.3782 167.911C19.5134 168.034 19.6063 168.182 19.6613 168.351C19.7479 168.514 19.7859 168.689 19.7796 168.877C19.7796 169.124 19.7162 169.355 19.5936 169.566C19.5218 169.659 19.45 169.752 19.3782 169.843C19.2091 170.014 19.0084 170.13 18.776 170.196L18.6408 170.242C18.4422 170.314 18.2479 170.318 18.0408 170.291C17.8232 170.261 17.6223 170.202 17.4451 170.067C17.2716 169.966 17.1345 169.828 17.0331 169.655L16.9169 169.38C16.8915 169.287 16.881 169.148 16.8746 169.05C16.8746 169.036 16.8746 169.023 16.8725 169.008C16.8725 168.926 16.8979 168.725 16.9188 168.642C16.9655 168.469 17.0603 168.304 17.1683 168.165C17.2613 168.019 17.388 167.905 17.5444 167.82L17.5583 167.81L17.5739 167.799C17.6223 167.765 17.6732 167.732 17.7239 167.695C17.9352 167.573 18.1655 167.51 18.4127 167.51ZM127.509 166.009C127.847 166.009 128.162 166.096 128.454 166.265C128.464 166.269 128.475 166.273 128.483 166.278C128.762 166.442 128.984 166.664 129.149 166.943C129.318 167.233 129.402 167.546 129.402 167.88C129.402 168.216 129.318 168.526 129.149 168.816C128.984 169.095 128.762 169.317 128.483 169.482C128.475 169.488 128.464 169.492 128.454 169.496C128.162 169.665 127.847 169.75 127.509 169.752C127.173 169.75 126.859 169.665 126.567 169.496C125.997 169.162 125.639 168.539 125.639 167.88C125.639 167.22 125.997 166.597 126.567 166.265C126.859 166.096 127.173 166.009 127.509 166.009ZM39.7735 163.565L39.8311 163.564C40.055 163.555 40.2639 163.602 40.4562 163.706C40.6569 163.771 40.8323 163.883 40.9804 164.042L41.2888 164.299L41.3783 164.372C41.3931 164.384 41.4076 164.397 41.4217 164.409C41.6289 164.618 41.7705 164.863 41.8508 165.147C41.8761 165.31 41.897 165.47 41.9142 165.633C41.9604 166.056 41.7113 166.489 41.4367 166.789C41.2888 166.948 41.1132 167.059 40.9106 167.127C40.7163 167.229 40.505 167.275 40.2808 167.267C39.8224 167.227 39.3874 167.129 39.0578 166.774C39.0196 166.732 38.9837 166.687 38.9458 166.643L38.6818 166.339C38.4811 166.136 38.3414 165.897 38.2656 165.622C38.2442 165.476 38.2254 165.333 38.2064 165.189C38.1872 164.756 38.3985 164.35 38.6818 164.042C38.9433 163.756 39.3869 163.581 39.7735 163.565ZM29.1093 159.115C31.3062 159.115 31.302 162.524 29.1093 162.524C26.914 162.524 26.9182 159.115 29.1093 159.115ZM139.577 154.335L139.646 154.336C140.01 154.338 140.35 154.429 140.665 154.613L141.074 154.928C141.324 155.182 141.497 155.478 141.594 155.82C141.617 155.999 141.641 156.179 141.666 156.357C141.677 156.636 141.617 156.896 141.491 157.137C141.411 157.386 141.271 157.603 141.074 157.788C140.891 157.984 140.675 158.124 140.424 158.204C140.183 158.331 139.923 158.39 139.646 158.379C139.281 158.377 138.941 158.286 138.626 158.102C138.489 157.997 138.354 157.891 138.216 157.788C137.986 157.553 137.821 157.283 137.722 156.974L137.699 156.896L137.625 156.357C137.614 156.08 137.673 155.82 137.8 155.579C137.88 155.327 138.02 155.112 138.216 154.928C138.4 154.731 138.618 154.592 138.867 154.512C139.088 154.395 139.324 154.336 139.577 154.335ZM129.681 147.954C129.877 147.947 130.059 147.987 130.23 148.076C130.406 148.133 130.558 148.232 130.687 148.37C130.959 148.588 131.126 149.023 131.126 149.376C131.126 149.729 130.959 150.164 130.687 150.382C130.509 150.557 130.3 150.68 130.059 150.747L129.681 150.798C129.313 150.815 128.939 150.623 128.677 150.382C128.625 150.333 128.574 150.285 128.521 150.238C128.283 150.018 128.179 149.691 128.164 149.376C128.158 149.209 128.194 149.053 128.27 148.907C128.318 148.755 128.403 148.625 128.521 148.513C128.574 148.467 128.625 148.418 128.677 148.37C128.963 148.105 129.296 147.973 129.681 147.954ZM192.381 136.585C193.769 134.893 192.961 133.689 190.875 134.108C187.281 134.594 183.899 136.866 180.734 138.495C177.279 140.321 173.719 141.826 170.196 143.541C171.649 144.434 172.731 145.832 173.557 147.427C175.206 146.175 177.314 145.576 179.371 145.498C183.104 141.921 189.286 141.102 192.381 136.585ZM28.3699 142.201C28.7463 142.202 29.099 142.291 29.4295 142.468L29.5 142.507L29.9521 142.858C30.1718 143.061 30.326 143.301 30.4169 143.578C30.5563 143.845 30.6197 144.134 30.6091 144.443C30.6197 144.751 30.5563 145.039 30.4169 145.305C30.326 145.584 30.1718 145.823 29.9521 146.026C29.8275 146.189 29.6669 146.315 29.4746 146.409C29.2948 146.482 29.1176 146.558 28.938 146.635C28.7373 146.698 28.5049 146.706 28.2873 146.717C27.8922 146.715 27.5248 146.616 27.1822 146.417L26.7387 146.075C26.5253 145.876 26.373 145.641 26.2843 145.369C26.1586 145.129 26.0949 144.872 26.0949 144.598L26.0965 144.523C26.0965 144.506 26.0965 144.487 26.0988 144.468C26.1239 144.27 26.1516 144.071 26.1786 143.872C26.2486 143.581 26.3817 143.325 26.5803 143.109C26.631 143.008 26.6986 142.925 26.7854 142.858C27.0641 142.579 27.3934 142.389 27.7739 142.281C27.9725 142.255 28.1711 142.228 28.3699 142.201ZM126.397 136.601L126.461 136.602C126.746 136.602 127.01 136.674 127.256 136.815C127.363 136.898 127.469 136.98 127.575 137.063C127.771 137.259 127.906 137.492 127.98 137.758L128.037 138.176C128.044 138.394 127.999 138.595 127.9 138.783C127.837 138.977 127.729 139.146 127.575 139.29C127.433 139.444 127.264 139.552 127.068 139.616C126.882 139.715 126.679 139.759 126.461 139.751C126.178 139.751 125.912 139.679 125.667 139.535C125.561 139.455 125.453 139.373 125.348 139.29C125.17 139.11 125.041 138.9 124.964 138.661L124.944 138.595L124.887 138.176C124.879 137.959 124.923 137.758 125.022 137.57C125.086 137.373 125.196 137.204 125.348 137.063C125.491 136.908 125.661 136.8 125.855 136.737C126.024 136.648 126.205 136.603 126.397 136.601ZM40.7185 134.312L40.7922 134.313C41.2126 134.315 41.6035 134.421 41.9668 134.632C42.1232 134.753 42.2797 134.873 42.4359 134.996C42.7253 135.285 42.9239 135.627 43.0361 136.023L43.1183 136.64C43.1309 136.961 43.0633 137.259 42.9175 137.536C42.8248 137.826 42.664 138.075 42.4359 138.286C42.2269 138.513 41.9774 138.673 41.688 138.766C41.4112 138.912 41.1133 138.98 40.7922 138.967C40.3718 138.967 39.9809 138.861 39.6175 138.65C39.4614 138.529 39.3051 138.407 39.1466 138.286C38.8591 137.995 38.6605 137.652 38.5485 137.259L38.4661 136.64C38.4535 136.321 38.5211 136.021 38.6668 135.744C38.7598 135.456 38.9204 135.205 39.1466 134.996C39.3579 134.767 39.607 134.607 39.8964 134.514C40.1519 134.379 40.4254 134.313 40.7185 134.312ZM118.947 128.501C119.139 128.45 119.331 128.45 119.523 128.501C119.81 128.513 120.079 128.6 120.328 128.758L120.766 129.097C120.772 129.103 120.778 129.11 120.785 129.118C121.049 129.384 121.232 129.699 121.334 130.061L121.41 130.629C121.42 130.923 121.359 131.197 121.226 131.451C121.147 131.695 121.016 131.907 120.835 132.091L120.766 132.159C120.569 132.37 120.339 132.52 120.07 132.607C119.901 132.707 119.717 132.755 119.523 132.755C119.236 132.821 118.947 132.808 118.659 132.717C118.488 132.643 118.315 132.571 118.142 132.5L118.086 132.468C117.434 132.111 117.03 131.363 117.03 130.629C117.03 129.896 117.434 129.145 118.086 128.788C118.106 128.78 118.122 128.769 118.142 128.758C118.391 128.6 118.659 128.513 118.947 128.501Z" fill="black"/>
<path fill-rule="evenodd" clip-rule="evenodd" d="M116.92 17.3357C105.623 14.019 66.7746 17.4188 65.814 18.1371C64.2419 19.4439 56.5952 23.5903 55.4053 24.5369C44.6465 35.9443 54.9031 52.8846 54.1138 66.646C54.164 71.5274 52.0848 75.9843 51.129 80.6803C50.7255 83.1413 50.8144 85.6868 52.0966 87.8963C54.3508 91.8443 59.1113 92.6447 62.983 94.2365C64.9095 95.0663 66.7095 96.2429 68.3595 97.5302C79.4688 107.362 85.6526 114.094 101.863 111.876C101.945 112.65 102.631 113.411 103.481 113.065C105.471 112.254 107.447 111.394 109.454 110.626C109.884 111.66 111.116 111.955 111.951 111.042L111.956 111.048C115.672 108.033 118.035 103.91 119.79 99.4956C121.019 96.949 122.024 94.2919 122.793 91.5558C122.88 91.2462 122.868 90.9695 122.79 90.7313C126.336 78.5062 127.649 65.6214 126.715 52.9283C126.526 50.3095 126.032 47.656 126.153 45.0262C126.263 42.6502 127.286 40.4027 128.066 38.1898C132.088 28.7828 125.94 20.2976 116.92 17.3357Z" fill="white"/>
<path fill-rule="evenodd" clip-rule="evenodd" d="M118.34 2.06189L118.461 1.9685C119.763 0.946316 120.991 -0.393339 122.828 0.109012C124.334 0.521145 125.095 1.76811 125.418 3.27504C125.876 2.79527 126.322 2.2986 126.757 1.78502C127.94 0.390109 130.583 1.11293 130.936 2.89038C131.65 6.47066 131.686 10.1143 130.991 13.7009C130.885 14.2441 130.761 14.7852 130.615 15.3199C131.407 14.3329 132.145 13.3036 132.806 12.2194C133.522 11.0422 135.14 11.6255 135.252 12.883C135.282 13.2085 135.299 13.5382 135.303 13.87C135.808 14.0476 136.157 14.5675 136.024 15.2058C135.288 18.7184 134.357 22.1824 133.237 25.5873C135.037 24.632 137.055 24.0656 138.954 24.7398C141.971 25.8134 142.689 29.1063 142.1 31.9405C141.358 35.5038 139.026 38.486 136.017 40.441C135.66 40.9778 135.307 41.5189 134.971 42.0705C134.965 43.6282 134.682 45.1816 134.112 46.6251C133.469 48.2462 132.337 49.6474 130.943 50.7126C130.453 51.7802 129.155 52.56 128.015 52.3439L127.955 52.3316L127.953 52.3337C128.245 53.3777 128.496 54.4324 128.714 55.4891C130.399 63.6764 129.545 72.1989 128.009 80.34L127.959 80.5997C126.58 87.8448 124.974 95.3477 121.854 102.075C119.031 108.158 114.246 113.507 107.407 114.834C99.3623 116.396 90.4573 113.921 83.5383 109.793C81.0306 108.297 83.3292 104.353 85.8263 105.875C89.4306 108.069 93.3454 109.601 97.4862 110.409C101.357 111.161 105.685 111.417 109.397 109.857C114.567 107.684 117.639 102.377 119.583 97.3809C120.728 94.4325 121.585 91.3891 122.384 88.333C123.413 84.404 124.372 80.4496 125.093 76.4509C126.434 68.9923 126.869 61.2463 125.45 53.7666C124.997 51.3805 124.357 48.9795 123.523 46.6716C123.392 46.5089 123.267 46.3271 123.155 46.1284C122.283 44.5982 121.681 42.8588 121.032 41.204C120.464 40.217 119.843 39.268 119.183 38.3402C118.198 37.5825 117.259 36.7724 116.399 35.8885C118.897 34.2708 121.1 32.2457 122.686 29.6659C122.948 29.2405 122.781 28.8338 122.472 28.6045C121.205 30.189 119.566 31.5309 117.842 32.7197C116.959 33.4764 116.008 34.1561 115.011 34.7702C114.299 34.9112 113.579 35.008 112.881 35.0875C110.893 35.3136 108.895 35.2291 106.917 34.9649C102.641 34.3943 84.557 29.4119 76.9341 31.3487C75.3462 31.7522 74.5975 33.1769 73.7566 34.5147C73.0273 35.6784 72.0996 36.6417 70.9867 37.4348L70.8623 37.5222C68.6862 39.0292 64.3111 43.7964 62.472 48.0513C60.0973 53.5447 57.8165 70.0068 58.8665 70.1484C61.613 70.5204 63.1341 71.966 65.3714 73.5173C65.5193 73.6188 65.4327 73.8935 65.2425 73.8238C63.7658 73.2912 62.1686 72.9763 60.62 72.7184C59.2193 72.4838 57.7447 72.4415 56.3925 72.9424C54.3179 73.7118 53.3059 75.4512 52.8897 77.4125C52.727 78.1797 52.6552 78.9807 52.6468 79.7733L52.6456 80.0031C52.6467 82.502 53.1124 85.2723 54.9263 87.1156C55.6975 87.8997 56.7432 88.4281 57.8376 88.5739C59.0355 88.7345 59.7749 88.1935 60.8756 87.9124C62.1432 87.589 63.132 88.4239 63.0137 89.5123C63.282 89.7469 63.5418 89.9942 63.7996 90.2457L63.7998 90.2467L63.8017 90.2478C63.9707 90.3239 64.1313 90.4253 64.277 90.5479C64.5158 90.7508 64.7165 90.9727 64.877 91.2116C65.2341 91.2813 65.5763 91.48 65.8573 91.8435C66.4362 92.5896 66.9707 93.3441 67.4672 94.1134C68.3566 95.0581 69.2418 96.005 70.1144 96.9666C71.1647 98.1224 72.187 99.3046 73.216 100.48L73.7313 101.067C74.2869 101.699 74.8404 102.331 75.3939 102.965L75.5591 103.151C76.1159 103.775 76.5427 104.235 76.6024 105.133C76.6447 105.799 75.9285 106.251 75.3348 106.099C74.4195 105.863 73.9946 105.144 73.4462 104.431L72.6179 103.368L71.8383 102.367C71.4517 101.868 71.0608 101.371 70.6721 100.874C70.5559 101.79 69.5883 102.527 68.7052 102.567L68.4994 102.575C66.4256 102.644 63.9054 102.352 62.327 100.889C61.6172 101.606 60.7341 102.17 59.6461 102.508C57.1742 103.278 54.6475 101.914 53.6482 99.841C51.7108 100.672 49.5221 100.839 47.4285 100.228C46.2209 99.8737 45.8032 98.368 46.6447 97.4465L46.6827 97.4062L46.6924 97.3952C46.5187 97.1693 46.4232 96.8929 46.4078 96.5917C46.389 96.2261 46.6554 95.8384 46.6005 95.4971C46.3909 94.1954 44.2689 95.1598 43.5946 95.4417C43.4657 95.4954 43.3449 95.521 43.232 95.525C42.1894 95.8287 41.0556 94.4583 41.6017 93.3272C42.8249 90.7994 44.0186 88.2527 45.2566 85.7291C45.1003 85.782 44.9397 85.8306 44.7813 85.8707C42.5566 86.4414 39.8587 85.3466 40.3721 82.6646C40.4904 82.0347 41.0608 81.6036 41.627 81.4091C42.7299 81.0287 43.558 81.3035 44.4073 80.9484C45.3644 80.551 46.3637 79.8219 47.2045 79.135C48.1024 78.4037 48.8778 77.5816 49.5644 76.6897C49.839 75.3941 50.3144 74.1556 51.0749 73.0904C51.1214 73.027 51.1679 72.9636 51.2165 72.9023C46.339 71.7389 46.9777 66.9402 44.8262 62.6875L44.6444 62.335C43.1832 59.4903 41.9084 56.2831 42.6454 53.0438C42.7763 52.471 42.9665 51.9236 43.2116 51.4122C42.8207 51.4608 42.4278 51.5052 42.0369 51.5496C41.139 51.651 40.2263 50.4928 40.5834 49.6411C40.7714 49.1951 40.9785 48.764 41.2024 48.3455C41.8235 47.1915 42.5862 46.1432 43.4841 45.1964C41.9756 45.1562 40.4651 45.1562 38.9735 44.9829C37.5644 44.8202 36.0834 44.0487 36.1258 42.4235C36.1704 40.8738 37.5295 39.7008 38.7897 38.9448C40.0301 37.2944 41.6034 35.9227 43.3829 34.9034C43.0309 34.8242 42.6742 34.7656 42.3116 34.7295L42.1299 34.7134C41.1137 34.6331 40.201 34.3541 39.2799 33.9293C38.4559 33.5489 38.4686 32.3949 39.0073 31.8137C40.749 29.9301 43.3586 30.5435 45.3891 31.6228C45.2477 31.4434 45.0928 31.2705 44.9241 31.1051L44.8212 31.0067C43.8236 30.0774 45.3208 28.5861 46.3151 29.5123C46.6292 29.805 46.9106 30.1231 47.1616 30.4602L47.1855 30.4103C48.4991 27.7448 50.4204 25.359 52.6935 23.4472L53.2277 23.0029C57.3266 19.5776 58.5914 17.9541 64.0425 18.4584C63.8101 17.4679 63.8329 16.3535 63.8852 15.4372L63.8925 15.3136C64.1017 11.8685 65.3714 7.7451 68.7306 6.19801C69.6031 5.79856 70.5918 6.45163 70.3594 7.45132C70.1968 8.15935 69.9982 8.84835 69.751 9.51833C70.4841 8.7469 71.27 8.02619 72.1024 7.36255C75.4954 4.65727 80.0292 2.3303 84.489 3.09117C86.9397 3.51175 88.8623 5.05038 90.9137 6.33539C92.9756 7.62886 95.2785 8.39606 97.6932 8.67293C101.067 9.06181 104.454 8.67081 107.79 8.05367C110.082 7.05398 112.307 5.8831 114.478 4.62134C115.814 3.84569 117.113 2.99817 118.34 2.06189ZM58.4377 76.8862C59.1518 76.7023 59.9525 76.7044 60.6687 76.8841C62.5173 77.349 64.237 78.8961 64.3448 80.8469C64.3933 81.7282 63.6835 82.5715 62.8595 82.7977C61.9257 83.0555 61.1229 82.599 60.5779 81.8677C59.9926 81.0857 59.8469 80.2382 59.1307 79.5281L58.9655 79.3672C58.3567 78.7848 57.4361 78.0319 56.5912 78.167C56.4666 78.186 56.3736 78.0169 56.5004 77.9493C57.1891 77.5731 57.6412 77.0891 58.4377 76.8862ZM68.0397 67.6988C68.3658 67.4325 68.7966 67.7449 68.6432 68.1279L68.6313 68.1553C68.2447 68.9711 68.6989 69.9286 69.1679 70.6112C69.5714 71.2009 68.8088 71.761 68.2721 71.5073C66.7637 70.7909 66.8419 68.671 68.0397 67.6988ZM73.5538 43.1885C73.5264 42.9898 73.7904 42.9074 73.8581 43.1039C74.9841 46.3735 75.3073 49.269 75.1235 52.7267L75.1062 53.0335C74.9073 56.364 74.3242 59.889 72.3095 62.6242C71.8426 63.2562 70.8876 62.8842 71.0419 62.0895C71.6609 58.9087 72.8503 55.8885 73.313 52.6696C73.7968 49.3049 74.0144 46.5553 73.5538 43.1885ZM63.037 55.0727C63.2018 54.1999 64.5433 53.3016 65.2215 54.1787C65.4496 54.4767 65.1813 54.8424 64.9067 54.9523C64.6489 55.0537 64.4187 54.9142 64.1651 54.965C63.9601 55.0064 63.8102 55.1343 63.7104 55.3093L63.6898 55.3475C63.4912 55.7279 62.9672 55.4447 63.037 55.0727ZM62.4877 48.1193C62.9694 47.2274 64.0786 46.6589 65.0272 47.2147C65.3398 47.3986 65.2173 47.9333 64.837 47.9164L64.6117 47.9073C63.9354 47.8826 63.2591 47.8963 62.6905 48.3243C62.5638 48.4194 62.4243 48.2398 62.4877 48.1193ZM64.1813 23.7616C61.4794 22.5464 58.7923 23.6435 56.5861 25.3546C56.4035 25.4962 56.315 25.6615 56.2956 25.8276C57.7685 25.2538 59.3368 24.8776 60.8359 24.5671C62.0617 24.3131 63.2991 24.1417 64.538 24.074C64.4687 23.9495 64.3548 23.8396 64.1813 23.7616Z" fill="black"/>
<path fill-rule="evenodd" clip-rule="evenodd" d="M102.166 96.7829C100.746 96.2033 99.4789 95.2365 98.5524 94.0014C98.2303 93.5721 98.1468 93.1187 98.2144 92.704C98.2904 92.2377 98.5661 91.8151 98.9422 91.5317C99.3194 91.2473 99.7913 91.1071 100.247 91.1786C100.644 91.2407 101.038 91.4578 101.351 91.9081L101.416 91.9982C101.967 92.7436 102.684 93.3552 103.502 93.7494C104.29 94.1294 105.172 94.3067 106.084 94.2036C107.822 94.0073 109.019 93.0673 110.292 91.7908C110.45 91.6296 110.608 91.4634 110.766 91.2945C110.867 91.1414 111.006 91.043 111.16 90.9914C111.331 90.9341 111.525 90.9373 111.703 90.9993C111.874 91.0591 112.027 91.1724 112.13 91.3232C112.227 91.4666 112.283 91.6436 112.265 91.8473C112.148 93.1702 111.457 94.3508 110.475 95.2778C109.384 96.3074 107.938 97.0197 106.577 97.2695C105.078 97.5447 103.55 97.3475 102.166 96.7829ZM107.285 76.375C108.88 77.3451 111.311 79.6072 109.595 82.0122C107.575 84.1328 104.666 81.7014 103.233 80.6018C101.904 79.7496 100.41 81.9414 101.643 82.9365C112.001 90.6075 116.204 76.6287 108.092 75.2344C107.199 75.0807 106.867 76.0749 107.285 76.375ZM88.7247 67.4516C88.901 65.2628 92.2332 64.7658 92.5647 66.9317C92.8615 68.8719 92.5121 70.6542 91.6385 72.401C90.8038 74.0698 88.7058 73.2913 88.5471 71.7717C88.3344 69.7347 88.6151 68.8132 88.7247 67.4516ZM114.09 66.4826C114.555 65.8739 115.226 65.4584 116.029 65.6932C118.54 66.4272 117.8 69.9933 116.918 71.7292C116.439 72.6718 114.89 72.9108 114.19 72.0809C113.05 70.7274 112.503 68.0244 113.954 66.6912C113.993 66.6223 114.037 66.5528 114.09 66.4826ZM91.6031 57.8741L91.9998 57.8046C93.2268 57.5924 94.7524 57.3884 95.6204 58.3752C96.0807 58.8985 96.2392 59.8711 95.6204 60.372C94.5319 61.2534 93.3286 60.9118 92.0242 60.9864C90.9493 61.0482 89.9162 61.2261 88.8807 61.5222C86.6092 62.1717 84.7583 63.3574 82.8182 64.6593C82.5636 64.8301 82.3038 64.5044 82.4253 64.2662C83.5452 62.0717 85.7155 60.2691 87.8895 59.1703C89.0498 58.5838 90.3195 58.0973 91.6031 57.8741ZM111.801 56.8911L112.105 56.9532C115.409 57.6441 119.701 59.024 121.265 62.2703C121.325 62.7293 121.262 62.8277 121.211 62.8919L121.194 62.9133C121.151 62.9682 121.118 63.0439 120.919 63.1063C120.864 63.0932 120.808 63.0793 120.752 63.0645C120.034 62.8765 119.467 62.6175 118.918 62.3488L118.322 62.0552C117.631 61.7163 116.934 61.3897 116.195 61.1486C114.619 60.6342 112.997 60.2718 111.351 60.0783C110.994 60.0364 110.65 59.9159 110.379 59.7094C110.122 59.5134 109.925 59.2419 109.835 58.8812C109.719 58.4143 109.753 58.0608 110.003 57.6396C110.191 57.3233 110.461 57.1041 110.77 56.9782C111.085 56.8498 111.444 56.8196 111.801 56.8911Z" fill="black"/>
</svg>
