<svg width="155" height="254" viewBox="0 0 155 254" fill="none" xmlns="http://www.w3.org/2000/svg">
<path fill-rule="evenodd" clip-rule="evenodd" d="M148.67 190.622C147.257 186.28 148.94 181.264 147.84 176.584C147.463 174.732 146.747 167.853 146.028 163.831C145.625 161.581 148.032 160.882 148.402 159.984C151.005 151.917 132.015 132.938 130.856 132.239C129.119 131.235 127.582 130.37 125.884 129.344C120.933 127.605 114.996 122.764 110.507 125.873C102.73 114.292 105.807 100.022 101.587 98.3263C97.3665 96.6304 84.9043 93.2027 77.7795 97.5798C73.5089 100.741 73.8237 106.182 71.8752 110.67C70.7314 112.782 70.1695 115.842 68.8381 117.22C64.3142 121.901 58.6728 122.709 52.366 123.503C51.8856 123.564 51.3802 122.257 50.9135 122.418C40.2749 126.097 27.8959 127.17 15.8477 147.767C14.1461 150.712 9.55591 155.439 11.0908 158.843C0.977812 182.368 -8.97297 235.319 18.776 248.524C19.663 249.091 25.6803 246.048 26.6608 246.076C28.2952 246.123 25.1636 250.093 26.6608 249.386C37.6528 250.22 98.136 248.068 121.32 250.22C137.263 250.101 147.361 252.897 151.042 250.101C149.571 246.543 149.639 242.732 150.104 238.97C153.492 236.448 149.304 218.673 149.658 213.468C152.83 209.665 150.305 195.4 148.67 190.622Z" fill="white"/>
<path fill-rule="evenodd" clip-rule="evenodd" d="M143.615 164.586C142.094 166.799 140.697 169.077 139.434 171.446C138.782 172.669 138.175 173.915 137.628 175.187C137.514 172.437 137.489 169.654 137.168 166.931C137.145 166.735 136.817 166.639 136.783 166.879C136.428 169.348 136.369 171.881 136.235 174.377C136.081 174.329 135.91 174.302 135.722 174.302C133.897 174.302 132.099 174.452 130.28 174.599C129.465 174.665 128.612 174.716 127.781 174.846C128.45 174.106 129.073 173.326 129.649 172.511C130.235 171.68 130.906 170.382 129.883 169.584C128.754 168.702 126.54 169.855 125.447 170.303C124.894 170.53 124.352 170.778 123.818 171.04C123.144 169.151 121.078 168.9 119.306 169.161C118.043 169.347 116.817 169.78 115.586 170.109C114.024 170.526 112.454 170.919 110.879 171.288C108.043 171.952 105.187 172.533 102.318 173.036C102.242 172.948 102.137 172.878 101.997 172.843C101.014 172.598 99.9301 172.786 98.9224 172.804C97.8863 172.824 96.8501 172.822 95.814 172.801C93.9631 172.763 92.1141 172.748 90.2636 172.715C89.7375 172.396 89.0706 171.939 88.9072 171.338C88.7034 170.589 89.3401 169.759 89.6357 169.121C90.7708 166.672 91.1678 163.931 90.7225 161.264C90.643 160.788 90.4795 160.269 90.2433 159.781C92.2708 159.998 94.272 160.146 96.3105 160.212C100.381 160.345 104.451 160.484 108.524 160.514C116.666 160.575 124.809 160.575 132.951 160.515C137.555 160.482 142.149 160.44 146.747 160.204C146.372 160.679 146.008 161.165 145.652 161.658C145.578 161.636 145.482 161.675 145.493 161.767C145.497 161.799 145.501 161.83 145.505 161.862C144.855 162.769 144.23 163.691 143.615 164.586ZM134.561 248.802C132.669 248.742 130.777 248.681 128.885 248.621C125.171 248.503 121.457 248.384 117.743 248.266C110.385 248.032 103.028 247.806 95.6686 247.603C88.3275 247.4 80.9828 247.186 73.6396 247.415C66.2796 247.645 58.9385 248.239 51.5923 248.716C47.5083 248.981 43.4213 249.21 39.3297 249.32C35.4329 249.425 31.5016 249.267 27.6109 249.545C27.4801 248.583 27.5763 247.623 27.5621 246.665C28.8384 245.927 30.091 245.143 31.329 244.373C35.8425 241.565 40.1089 238.387 44.1331 234.914C44.7517 234.38 45.3582 233.835 45.9587 233.284C45.5408 234.198 45.8752 235.375 47.0729 235.762C48.5334 236.233 50.0287 236.066 51.5456 236.03C53.086 235.994 54.6263 235.96 56.1669 235.927C59.1777 235.863 62.1887 235.806 65.1996 235.755C71.0818 235.657 76.9641 235.584 82.8466 235.536C94.6818 235.441 106.509 235.602 118.342 235.815C121.67 235.876 124.994 235.95 128.321 235.875C129.986 235.837 131.657 235.825 133.32 235.736C134.653 235.664 135.993 235.475 137.325 235.306C137.493 237.626 137.668 239.947 137.864 242.265C137.994 243.796 138.127 245.327 138.258 246.858C138.312 247.49 138.316 248.134 138.405 248.734C137.126 248.805 135.855 248.843 134.561 248.802ZM135.863 183.267C135.816 185.043 135.791 186.821 135.779 188.599C135.625 188.511 135.452 188.447 135.257 188.417C133.188 188.101 130.973 188.341 128.88 188.376C126.856 188.41 124.825 188.398 122.803 188.494C120.778 188.59 118.753 188.704 116.727 188.809C115.777 188.859 114.837 188.901 113.894 189.03C113.248 189.118 112.422 189.112 111.732 189.295C114.627 186.49 117.507 183.668 120.394 180.855C120.481 180.771 120.543 180.682 120.587 180.591C122.513 179.417 124.361 178.096 126.034 176.584C127.362 177.095 128.873 177.16 130.28 177.274C132.099 177.422 133.896 177.571 135.722 177.571C135.845 177.571 135.961 177.559 136.07 177.538C135.98 179.447 135.913 181.355 135.863 183.267ZM60.6836 217.778C65.1039 219.19 69.8932 219.174 74.4918 219.457C79.3943 219.758 84.2894 220.009 89.1975 220.2C99.0001 220.581 108.796 221.099 118.598 221.511C124.196 221.746 129.793 222.005 135.389 222.287C135.786 222.307 136.165 222.205 136.499 222.019C136.686 225.706 136.907 229.391 137.163 233.073C137.195 233.534 137.23 233.994 137.263 234.455C134.629 234.124 132.015 233.808 129.362 233.584C126.382 233.332 123.404 233.12 120.42 232.922C114.605 232.536 108.781 232.02 102.956 231.832C91.081 231.448 79.1798 231.578 67.3005 231.663C63.9392 231.687 60.5782 231.719 57.2171 231.76C55.5367 231.78 53.8563 231.803 52.1758 231.827C50.487 231.852 48.672 231.676 47.0729 232.266C47.0577 232.271 47.0448 232.279 47.0298 232.285C51.8541 227.712 56.176 222.659 60.6836 217.778ZM76.2227 203.158C83.6101 204.504 91.1133 204.412 98.6015 204.545C106.264 204.681 113.936 204.591 121.599 204.607C125.952 204.616 130.343 204.807 134.68 204.42C135.193 204.374 135.59 204.179 135.874 203.903C135.953 208.519 136.097 213.132 136.297 217.743C136.015 217.624 135.708 217.551 135.389 217.532C125.597 216.956 115.804 216.433 106 216.113C96.2032 215.794 86.3946 215.415 76.5929 215.534C71.8096 215.592 66.7514 215.286 62.0338 216.329C63.8266 214.423 65.6579 212.552 67.5734 210.761C70.3662 208.151 73.3463 205.705 76.2227 203.158ZM81.8668 197.726C81.8767 197.715 81.8815 197.702 81.8889 197.69C81.9156 197.71 81.9481 197.724 81.9908 197.723C88.906 197.567 96.6639 199.749 103.132 196.4C106.019 194.905 108.41 192.542 110.731 190.27C110.733 190.287 110.734 190.304 110.735 190.321C110.751 190.505 110.829 190.727 111.015 190.808C111.778 191.143 112.672 191.165 113.491 191.284C114.433 191.422 115.358 191.502 116.308 191.559C118.403 191.685 120.498 191.818 122.594 191.937C124.685 192.055 126.786 192.065 128.88 192.117C130.979 192.169 133.179 192.423 135.257 192.124C135.448 192.096 135.617 192.036 135.768 191.953C135.771 194.643 135.796 197.332 135.821 200.02C135.825 200.458 135.834 200.896 135.839 201.333C135.558 201.076 135.173 200.896 134.68 200.853C130.827 200.514 126.943 200.665 123.076 200.678C119.278 200.69 115.48 200.703 111.683 200.715C104.014 200.741 96.3521 200.816 88.685 200.962C84.9565 201.033 81.2444 201.347 77.5704 201.95C79.0579 200.595 80.5041 199.199 81.8668 197.726ZM21.7814 246.625C20.3657 247.058 18.9603 246.87 17.5419 247.167C17.4546 247.185 17.3741 247.219 17.3004 247.263C13.0527 245.448 10.2213 241.805 8.28351 237.722C6.24097 233.419 4.83309 228.819 3.88999 224.155C1.94548 214.542 1.9421 204.573 2.94858 194.848C3.93752 185.292 5.89555 175.789 8.68978 166.6C10.6083 160.29 13.0533 153.916 16.4482 148.162C20.3682 150.79 23.4084 154.573 26.2723 158.271C29.6946 162.69 32.7787 167.366 35.5394 172.225C35.2539 173.058 35.2096 174.102 35.0727 174.846C34.8088 176.28 34.5705 177.733 34.3831 179.18C33.9827 182.272 33.5987 185.367 33.1894 188.458C32.3801 194.571 31.4137 200.668 30.3462 206.741C30.2598 207.233 30.3979 207.649 30.6521 207.961C28.5348 209.078 26.4451 210.244 24.4091 211.507C19.933 214.286 15.7497 217.523 12.4653 221.674C12.38 221.782 12.5137 221.926 12.6194 221.829C19.6626 215.318 28.4129 211.231 37.0041 207.191C41.3944 205.127 45.7632 203.029 49.9755 200.615C54.3804 198.092 58.5813 195.24 62.6076 192.149C67.2052 188.62 71.533 184.762 75.59 180.622C76.0679 180.134 75.9521 179.523 75.5925 179.137C75.714 179.1 75.812 178.994 75.8184 178.818C75.9158 176.114 76.7272 173.811 78.316 171.623C79.7898 169.593 81.6682 167.92 83.3625 166.084C84.1155 165.268 84.8351 164.417 85.4775 163.51C86.139 162.577 86.5419 161.546 87.1176 160.571C87.7901 159.431 88.3622 160.013 88.6738 161.045C89.0272 162.215 89.0053 163.584 88.8633 164.786C88.7131 166.059 88.3258 167.299 87.7681 168.449C87.2441 169.529 86.6401 170.628 86.9927 171.866C87.5722 173.901 90.0568 175.079 91.9389 175.537C94.0347 176.048 96.227 175.948 98.3492 175.684C101.007 175.352 103.652 174.867 106.279 174.351C109.322 173.753 112.346 173.064 115.347 172.284C116.758 171.918 118.158 171.436 119.583 171.133C120.091 171.025 121.03 170.863 121.627 171.128C113.955 175.703 105.591 178.751 97.0956 181.407C96.0401 181.737 96.4729 183.332 97.5532 183.067C106.68 180.835 115.266 176.692 123.438 172.154C123.563 172.084 123.669 171.977 123.747 171.85C124.569 171.56 125.405 171.309 126.257 171.102C126.638 171.009 128.597 170.362 128.842 170.611C129.189 170.963 127.988 172.106 127.688 172.438C125.552 174.804 123.012 176.736 120.263 178.333C117.474 179.952 114.507 181.243 111.525 182.462C108.185 183.826 104.655 184.899 101.409 186.468C100.119 187.091 101.024 189.209 102.383 188.779C104.134 188.226 105.835 187.412 107.537 186.721C108.982 186.134 110.428 185.548 111.865 184.941C112.867 184.518 113.863 184.081 114.848 183.624C113.372 185.014 111.895 186.403 110.419 187.794C107.863 190.202 105.434 192.944 102.309 194.633C99.2213 196.301 95.6991 196.495 92.2624 196.46C90.537 196.441 88.8191 196.387 87.0937 196.456C85.2779 196.529 83.6653 196.808 81.9445 197.38C81.9128 197.391 81.8898 197.41 81.8703 197.431C81.8101 197.358 81.7081 197.321 81.6027 197.384C76.9267 200.149 72.6644 203.737 68.5651 207.283C64.3402 210.938 60.3648 214.825 56.577 218.93C52.9514 222.859 49.3548 226.804 45.4096 230.419C41.5575 233.949 37.441 237.154 33.1425 240.121C30.8004 241.737 28.4004 243.294 25.9172 244.685C24.5902 245.429 23.2425 246.178 21.7814 246.625ZM22.1746 140.231C23.8491 138.35 25.6514 136.606 27.5585 134.992C28.4 135.241 29.2833 135.311 30.1734 135.32C31.5316 135.334 32.8928 135.39 34.251 135.377C36.8663 135.35 39.4806 135.267 42.0965 135.253C47.4451 135.224 52.7955 135.222 58.1441 135.269C58.8449 135.275 59.3505 134.975 59.6625 134.54C60.7453 135.768 61.8612 136.967 62.9864 138.148C64.8145 140.066 66.7634 141.896 68.8381 143.564C68.4341 143.567 68.0304 143.57 67.6288 143.568C65.7787 143.555 63.9284 143.544 62.0786 143.534C58.366 143.513 54.6534 143.498 50.9408 143.488C43.5599 143.469 36.156 143.53 28.7847 143.908C26.7388 144.013 24.6768 144.055 22.6381 144.255C21.5323 144.363 20.4278 144.489 19.3231 144.607C19.097 144.631 18.8803 144.661 18.6675 144.695C19.7494 143.14 20.9148 141.647 22.1746 140.231ZM51.7358 123.459C51.6859 123.493 51.632 123.523 51.5843 123.56C51.4757 123.641 51.4928 123.789 51.6208 123.838C51.7911 123.905 51.9701 123.955 52.1543 123.995C52.7137 124.806 53.1508 125.81 53.4561 126.318C54.3331 127.78 55.3415 129.172 56.3674 130.531C56.5736 130.804 56.7838 131.073 56.9949 131.343C52.0269 131.331 47.0615 131.356 42.0965 131.544C39.4825 131.643 36.8596 131.726 34.251 131.922C33.1784 132.003 32.1065 132.139 31.0372 132.273C36.602 128.249 42.8602 125.176 49.3434 122.894C49.3345 122.904 49.3254 122.912 49.3165 122.922C49.1737 123.08 49.3869 123.286 49.5477 123.153C50.391 122.455 51.1231 122.783 51.7358 123.459ZM76.8377 170.759C76.6966 170.973 76.5578 171.194 76.4224 171.42C76.0966 171.095 75.6415 170.878 75.0553 170.86C68.5472 170.657 62.0422 170.479 55.5306 170.475C52.3193 170.473 49.0789 170.365 45.8716 170.523C44.2611 170.603 42.6513 170.698 41.0416 170.79C39.9162 170.854 38.7206 170.933 37.6216 171.259C35.0887 166.827 32.277 162.566 29.2064 158.492C36.1732 159.347 43.2593 159.256 50.2656 159.493C58.2035 159.762 66.1459 159.82 74.0866 160.008C76.2648 160.06 78.4429 160.116 80.6207 160.177C81.7446 160.209 82.8688 160.241 83.9929 160.275C84.3443 160.286 84.7079 160.295 85.0719 160.286C85.0444 160.343 85.0165 160.4 84.9893 160.456C84.3764 161.722 83.6057 162.888 82.7076 163.969C80.7982 166.269 78.4918 168.251 76.8377 170.759ZM68.2998 184.411C68.0587 183.741 67.4714 183.225 66.5357 183.268C61.2033 183.51 55.861 183.678 50.5347 184.029C47.9401 184.2 45.335 184.315 42.7446 184.542C41.4086 184.66 40.0748 184.878 38.7445 185.051C37.8325 185.17 36.8775 185.308 36.0027 185.632C36.1723 183.758 36.3219 181.883 36.4518 180.005C36.556 178.497 36.5877 176.975 36.5796 175.462C36.5756 174.697 36.5496 173.927 36.5127 173.161C36.5913 173.177 36.6701 173.185 36.7474 173.175C36.8839 173.159 37.0113 173.143 37.1296 173.111C38.3556 173.591 39.7432 173.697 41.0416 173.789C42.5817 173.899 44.1215 174.016 45.6616 174.126C48.9386 174.36 52.2464 174.345 55.5306 174.452C61.9956 174.663 68.4618 174.785 74.9281 174.958C74.6281 176.246 74.6175 177.568 75.0977 178.815C74.7633 178.704 74.3782 178.756 74.0494 179.081C72.1869 180.921 70.2688 182.697 68.2998 184.411ZM49.4898 198.103C49.3582 197.739 49.1097 197.405 48.8156 197.178C47.6849 196.306 45.6208 196.808 44.2636 196.874C42.657 196.953 41.0501 197.032 39.4434 197.11C38.9558 197.134 36.467 197.261 34.6391 197.651C35.0169 194.797 35.3596 191.939 35.6659 189.076C35.7301 188.475 35.7897 187.874 35.8487 187.272C36.7098 187.549 37.6457 187.651 38.5339 187.693C39.8648 187.757 41.202 187.864 42.5342 187.885C45.196 187.927 47.8725 187.795 50.5347 187.751C55.3288 187.671 60.1235 187.442 64.9155 187.253C60.1043 191.16 55.0206 194.725 49.7177 197.967C49.6421 198.014 49.5654 198.058 49.4898 198.103ZM34.3478 199.797C34.7528 199.851 35.1544 199.868 35.4616 199.899C37.0039 200.055 38.522 200.196 40.0721 200.219C41.6091 200.241 43.1458 200.264 44.6828 200.286C45.0096 200.291 45.3365 200.296 45.6633 200.3C41.6163 202.512 37.445 204.493 33.3327 206.578C33.695 204.321 34.0332 202.061 34.3478 199.797ZM78.4463 149.44C87.6694 153.36 99.4994 153.716 107.425 147.203C108.213 147.419 109.084 147.49 109.78 147.56C111.342 147.717 112.89 147.861 114.46 147.911C117.521 148.006 120.584 148.149 123.645 148.187C129.838 148.264 136.032 148.299 142.226 148.355C142.753 148.359 143.175 148.199 143.494 147.941C144.122 149.004 144.705 150.095 145.238 151.213C146.015 152.844 146.673 154.53 147.214 156.253C147.098 156.233 146.977 156.219 146.848 156.217C138.709 156.076 130.563 156.31 122.422 156.344C114.279 156.378 106.138 156.343 97.9949 156.401C95.7415 156.418 93.5048 156.418 91.2572 156.585C90.0874 156.672 88.9036 156.71 87.7451 156.899C87.6155 156.92 87.4837 156.939 87.3508 156.957C85.7982 156.05 83.8708 156.239 82.0962 156.206C80.0585 156.167 78.021 156.133 75.9836 156.103C71.9788 156.043 67.9736 156 63.9684 155.973C56.0194 155.918 48.0899 156.121 40.146 156.398C36.1937 156.536 32.2563 156.77 28.3548 157.378C28.0928 157.039 27.8334 156.698 27.568 156.362C24.8036 152.857 21.5264 148.37 16.9774 147.283C17.1519 146.999 17.3289 146.716 17.5087 146.435C20.6604 147.267 24.1372 147.225 27.3574 147.399C31.0691 147.599 34.7731 147.738 38.4893 147.829C45.8763 148.011 53.2617 148.125 60.6502 148.237C62.7008 148.268 64.7513 148.301 66.8019 148.335C67.9079 148.354 69.0141 148.375 70.1203 148.392C70.7382 148.401 71.2907 148.4 71.8795 148.195C72.4248 148.005 72.9563 147.719 73.4837 147.483C73.6677 147.401 73.8172 147.279 73.9394 147.135C75.3874 148 76.8878 148.777 78.4463 149.44ZM114.486 136.402C115.646 136.724 116.844 136.777 118.07 136.87C119.68 136.992 121.286 137.012 122.9 137.023C125.473 137.039 128.048 137.021 130.62 136.95C131.725 136.92 132.371 136.18 132.563 135.333C132.589 135.354 132.617 135.375 132.643 135.397C135.774 137.978 138.612 140.93 141.016 144.197C135.226 144.215 129.435 144.219 123.645 144.258C120.584 144.279 117.521 144.404 114.46 144.483C112.959 144.522 111.48 144.646 109.985 144.788C109.955 144.791 109.924 144.794 109.894 144.796C110.052 144.614 110.21 144.428 110.363 144.238C112.15 142.022 113.62 139.293 114.486 136.402ZM152.131 252.685C152.642 251.279 152.444 249.771 152.415 248.292C152.385 246.775 152.369 245.259 152.364 243.742C152.354 240.776 152.334 237.81 152.301 234.844C152.235 228.844 152.166 222.84 151.93 216.844C151.463 204.99 150.565 193.165 149.098 181.391C148.385 175.667 147.5 169.956 146.3 164.313C146.317 164.29 146.333 164.267 146.35 164.244C147.546 162.646 148.905 161.168 150.08 159.559C150.184 159.416 150.228 159.233 150.227 159.048C150.27 159.027 150.313 159.006 150.356 158.981C151.331 158.426 150.451 156.913 149.477 157.475C149.589 157.41 147.971 153.256 147.8 152.838C147.184 151.336 146.491 149.867 145.711 148.443C145.239 147.585 144.735 146.744 144.207 145.918C144.115 145.302 143.782 144.731 143.21 144.425C142.207 142.988 141.124 141.606 139.969 140.289C135.24 134.9 129.334 130.549 122.882 127.45C121.949 127.003 120.989 126.629 120.033 126.239C119.015 125.822 118.07 125.278 117.067 124.84C115.434 124.129 113.822 124.17 112.218 124.923C112.081 124.987 112.179 125.198 112.318 125.162C113.351 124.893 114.409 124.847 115.444 125.14C116.458 125.427 117.229 126.06 118.115 126.588C119.694 127.53 121.458 128.144 123.076 129.022C125.215 130.185 127.305 131.462 129.305 132.864C127.233 132.973 125.16 133.053 123.085 133.107C121.545 133.148 120.005 133.155 118.467 133.245C117.372 133.309 116.234 133.291 115.14 133.468C115.404 131.653 115.404 129.822 115.074 128.055L115.074 128.053C114.994 127.627 114.898 127.204 114.779 126.787C114.526 125.897 113.716 125.764 113.128 126.101C113.069 126.058 113.011 126.015 112.954 125.97C112.25 125.397 111.616 124.712 111.064 123.993C109.918 122.497 108.992 120.767 108.291 119.022C107.581 117.255 107.078 115.406 106.585 113.569C106.337 112.649 106.07 111.733 105.818 110.812C105.599 110.012 105.44 109.129 105.038 108.4C104.963 108.263 104.736 108.289 104.699 108.444C104.487 109.357 104.599 110.399 104.638 111.33C104.681 112.363 104.741 113.387 104.878 114.412C105.163 116.54 105.623 118.632 106.36 120.652C107.066 122.59 107.998 124.398 109.264 126.03C110.105 127.115 111.299 128.55 112.683 129.135C112.864 131.171 112.843 133.209 112.363 135.224C111.734 137.862 110.53 140.37 108.876 142.518C105.407 147.023 100.041 149.568 94.4425 150.093C88.6503 150.635 82.723 149.34 77.5184 146.791C71.7295 143.957 66.9272 139.583 62.6137 134.863C60.1271 132.142 57.5488 129.465 55.2443 126.586C54.8359 126.076 54.1822 125.04 53.4069 124.107C54.196 124.1 55.0058 123.982 55.7042 123.892C57.1493 123.706 58.5616 123.419 59.9737 123.06C62.6139 122.388 65.398 121.454 67.7051 119.975C72.5868 116.847 74.4925 112.878 75.1434 107.411C75.3491 105.682 72.3616 105.263 72.0834 106.996C71.656 109.661 71.0093 110.958 70.1589 113.518C69.3411 115.979 68.1565 116.896 65.8924 118.252C63.7668 119.526 61.3512 120.265 59.0095 121.03C57.7119 121.453 56.3989 121.84 55.0903 122.229C54.2572 122.477 53.2683 122.693 52.4232 123.076C51.9823 122.689 51.5224 122.397 51.0593 122.287C51.0933 122.229 51.0491 122.14 50.9638 122.157C50.8277 122.184 50.6921 122.214 50.556 122.243C50.4194 122.252 50.2833 122.279 50.1475 122.328C41.9913 124.095 34.1587 127.858 27.5169 132.984C27.182 133.123 26.8582 133.295 26.5499 133.511C26.3913 133.623 26.286 133.8 26.2558 133.983C25.2574 134.798 24.2885 135.645 23.3524 136.52C15.8131 143.575 11.0361 152.959 7.69196 162.611C4.39767 172.119 2.16774 182.091 0.941538 192.074C-0.308532 202.251 -0.452616 212.639 1.36048 222.758C2.334 228.191 3.91006 233.531 6.23633 238.542C8.32534 243.043 11.7257 248.17 17.0665 248.718C17.0837 248.736 17.0997 248.754 17.1189 248.77C19.2145 250.496 22.3345 249.304 24.5253 248.272C24.8727 248.109 25.2172 247.937 25.5603 247.76C25.3791 248.458 25.2973 249.189 25.2595 249.874C25.1807 251.297 27.1858 251.378 27.5655 250.197C30.8158 250.769 34.1722 250.777 37.4598 250.759C41.1331 250.738 44.8051 250.611 48.4742 250.438C55.7541 250.095 63.0253 249.57 70.31 249.331C85.0603 248.848 99.8509 249.88 114.589 250.4C118.724 250.546 122.858 250.692 126.993 250.838C131.217 250.987 135.437 251.016 139.628 251.587C141.168 251.797 141.759 250.287 141.324 249.345C141.432 248.713 141.324 248.02 141.265 247.276C141.154 245.884 141.05 244.493 140.952 243.1C140.76 240.386 140.575 237.67 140.4 234.954C140.045 229.451 139.739 223.944 139.442 218.437C138.85 207.488 138.398 196.531 138.065 185.571C137.983 182.899 137.877 180.227 137.743 177.557C137.903 177.304 138.062 177.051 138.216 176.795C138.728 175.94 139.23 175.08 139.749 174.229C140.789 172.524 141.836 170.83 142.93 169.159C143.875 167.715 144.849 166.294 145.868 164.902C147.132 175.582 148.255 186.273 148.771 197.022C149.34 208.86 149.641 220.717 149.805 232.568C149.851 235.878 149.882 239.189 149.917 242.5C149.935 244.224 149.954 245.947 149.939 247.672C149.926 249.32 149.677 251.124 150.261 252.685C150.602 253.595 151.795 253.611 152.131 252.685Z" fill="black"/>
<path fill-rule="evenodd" clip-rule="evenodd" d="M110.368 39.8856C96.4726 28.5877 74.2056 24.9193 59.3317 36.3176C47.7745 47.0147 42.9919 77.4123 45.0372 92.6871C45.6059 102.484 53.0879 113.589 64.0711 110.49C65.9362 110.306 67.7472 109.591 69.6293 109.441C71.8808 109.182 74.1494 109.178 76.3965 109.495C81.2928 110.188 85.6333 112.789 90.3855 114.005C99.2036 116.261 109.043 114.743 116.633 109.661C141.716 93.1639 130.354 55.8531 110.368 39.8856Z" fill="white"/>
<path fill-rule="evenodd" clip-rule="evenodd" d="M108.517 114.276C108.775 114.187 109.033 114.094 109.288 113.999C109.305 114.059 109.333 114.115 109.365 114.171C109.4 114.259 109.436 114.346 109.476 114.432C109.155 114.435 108.834 114.377 108.517 114.276ZM108.002 4.79231C107.888 4.53679 107.757 4.29162 107.609 4.0547C107.968 4.17115 108.327 4.33178 108.653 4.5389C108.433 4.61287 108.217 4.69741 108.002 4.79231ZM53.1167 38.2197C53.1019 38.2171 53.0873 38.215 53.0727 38.2125C53.2612 37.7105 53.5969 37.2367 53.9677 36.8945C54.0342 36.833 54.1063 36.7762 54.176 36.7174C53.7824 37.1864 53.4253 37.6867 53.1167 38.2197ZM153.543 90.7083C153.357 88.9457 153.12 87.1895 152.814 85.4436C152.52 83.772 152.273 81.984 151.421 80.5003C150.576 79.023 149.729 77.5877 148.724 76.2881C148.867 75.6245 149.058 75.001 149.222 74.498C150.173 71.6025 151.109 67.925 149.133 65.2345C148.675 64.611 148.115 64.1333 147.475 63.7022C147.202 63.5183 146.75 63.3513 146.541 63.0977C146.393 62.9181 146.444 63.0153 146.438 62.9265C146.402 62.4489 147.521 61.4407 147.783 61.0624C148.274 60.3626 148.639 59.5745 148.918 58.7693C150.021 55.5821 149.271 52.0716 148.608 48.8779C148.257 47.1852 147.87 45.488 147.743 43.7592C147.625 42.136 147.847 40.5509 147.978 38.9362C148.105 37.3424 148.071 35.6983 147.388 34.2228C147.055 33.5042 146.55 32.8702 145.935 32.3756C145.335 31.8919 144.587 31.6108 144.002 31.1289C143.419 30.6489 143.585 30.0003 143.738 29.3366C143.947 28.4363 144.211 27.5423 144.236 26.6123C144.283 24.9913 143.621 23.4123 142.589 22.1866C141.524 20.9207 140.002 20.0645 138.359 19.8722C137.607 19.7834 136.867 19.9337 136.119 19.8808C135.38 19.8301 135.22 19.4602 135.08 18.7839C134.759 17.2347 134.89 15.7045 134.127 14.2589C133.451 12.9739 132.249 12.1029 130.92 11.5895C128.484 10.6469 125.651 10.8414 123.082 11.397C121.565 6.9335 116.831 4.0063 112.172 3.97037C111.445 2.73608 110.214 1.81459 108.809 1.27333C106.485 0.375088 104.024 0.899448 101.603 0.899448H101.592C101.349 0.884442 101.106 0.878313 100.863 0.880426C100.635 0.867534 100.407 0.848512 100.178 0.823362C97.4235 0.497671 94.6982 -0.63094 91.9686 0.474634C90.7517 0.96708 89.7841 1.72583 89.1716 2.69381C88.2484 2.94511 87.3376 3.23276 86.4441 3.56669C82.5714 3.66793 78.7348 5.7455 76.7765 9.11252C74.0195 8.79972 71.0279 9.33021 69.2045 11.5832C68.7296 12.1695 68.3618 12.8583 68.118 13.5896C66.2588 14.1911 64.5384 15.2628 63.4126 16.8771C62.3852 18.3502 62.1879 20.2549 62.8827 21.8362C61.223 23.039 59.926 24.7609 59.3013 26.7941C58.9217 28.0294 58.8653 29.3058 59.1095 30.5217C57.4103 30.8987 55.785 31.5977 54.345 32.6466C52.8359 33.7454 50.9512 35.4943 50.8519 37.5072C50.8445 37.655 50.8502 37.8027 50.862 37.95C47.5399 37.7165 44.1524 38.2795 41.9068 40.944C40.2207 42.9432 39.4878 45.5176 39.9378 47.8615C35.985 48.6646 32.2475 50.7316 29.6404 53.7877C27.7456 56.009 26.0618 58.8327 26.163 61.8569C26.1946 62.768 26.4082 63.6853 26.778 64.5328V64.5347C26.6195 64.8329 26.4566 65.1647 26.3003 65.5177C23.8517 67.2315 22.0728 69.918 21.0714 72.879C20.2625 75.2776 19.7533 78.3931 20.6172 80.8342C20.7484 81.2062 20.9153 81.5571 21.1096 81.8823C20.9468 82.0559 20.7927 82.2292 20.6427 82.4046C18.9925 84.334 17.3214 86.7645 17.4357 89.4212C17.4822 90.4908 17.8791 91.5666 18.528 92.4498C16.246 94.7643 14.4082 97.6852 14.5897 100.946C14.746 103.785 16.3033 106.668 18.7432 108.031C18.3357 110.218 18.8808 112.526 20.5834 114.234C21.4329 115.088 22.4341 115.65 23.4949 115.95C23.7315 118.526 26.0172 120.6 28.4446 121.196C28.897 121.308 29.3491 121.375 29.7989 121.407C31.9834 122.479 34.5883 122.356 36.8172 121.373C37.4742 122.208 38.3299 122.889 39.327 123.377C39.7306 123.576 40.1575 123.74 40.6031 123.873C43.751 124.805 46.9794 123.542 49.732 122.067C49.8207 122.02 49.9834 121.961 50.127 121.895C50.5073 122.32 51.2003 122.741 51.5615 122.948C52.7871 123.652 54.285 123.979 55.692 123.886C57.342 123.776 58.7975 123.231 60.1453 122.455C60.342 122.489 60.5404 122.508 60.7392 122.519C62.0068 122.586 63.1369 122.185 64.1533 121.551C64.8249 121.64 65.5137 121.631 66.2108 121.509C67.747 121.899 69.2427 121.278 70.4446 120.291C70.9772 119.854 71.427 119.34 71.9089 118.85C72.4094 118.34 72.7899 118.222 73.3749 117.88C74.7589 117.07 74.9256 115.018 74.3256 113.534C74.4397 113.274 74.5054 112.985 74.5054 112.664C74.501 109.861 73.2103 107.291 71.6258 105.049C70.9179 104.049 70.1491 103.07 69.3059 102.183C68.6277 101.47 67.6751 100.314 66.6716 100.025C66.6103 99.9805 66.5468 99.9359 66.4834 99.8938C66.6779 99.2131 66.7918 98.52 66.7434 97.812C66.6925 97.0848 66.458 96.3958 66.0822 95.8084C67.3432 93.3631 67.8758 90.6811 67.6223 87.8828C68.6489 86.4264 69.4265 84.8182 69.8277 83.0555C70.0749 81.965 70.2167 80.8173 70.1975 79.6991C70.189 79.1625 69.9925 78.4838 69.9885 77.9282C70.0181 78.1036 70.2463 77.4484 70.335 77.2855C71.3531 75.3941 72.6608 73.9189 72.8787 71.6891C73.0052 70.3849 72.6968 68.9437 71.9151 67.8742C72.4158 65.9002 72.4094 63.7802 71.6214 61.8973C71.4101 61.3942 71.1674 60.9018 70.8885 60.4347C71.0172 60.0416 71.1357 59.6443 71.2876 59.2869C71.347 59.1453 71.4059 59.0018 71.4651 58.858C72.0376 58.3527 72.5702 57.8013 73.0181 57.26C74.0108 56.0619 74.7695 54.6881 74.8646 53.1049C74.911 52.3123 74.7251 51.5536 74.4949 50.8014C74.3932 50.4611 74.332 50.0828 74.2115 49.751C74.1441 49.5669 73.9813 49.379 73.9244 49.2057C73.9115 49.1676 73.901 49.1359 73.8925 49.1106C73.901 49.0852 73.9075 49.0324 73.9075 48.9328C73.9094 48.1741 74.0087 47.4322 74.0132 46.7012C74.7082 47.4029 75.5449 47.9268 76.4956 48.2335C78.4115 48.8485 80.4103 48.5695 82.1066 47.6205C83.9322 48.8717 85.9834 50.0044 88.1343 50.459C89.4123 50.7293 90.6927 50.6175 91.9749 50.7845C93.2489 50.9514 94.4808 51.5073 95.6806 51.9405C98.3512 52.9064 101.015 53.8974 103.694 54.8382C105.857 55.5969 108.198 56.1993 110.463 55.7723C111.099 56.7528 111.925 57.5815 112.984 58.1902C113.742 58.6234 114.574 58.917 115.434 59.063C116.195 59.192 117.086 59.1412 117.703 59.6633C118.305 60.1705 118.681 60.9269 119.222 61.4978C119.824 62.1361 120.568 62.6898 121.347 63.0872C121.973 63.4063 122.611 63.6365 123.259 63.7867C123.203 65.2303 123.147 66.6717 123.131 68.1173C123.099 71.258 123.112 74.3984 123.07 77.5393C123.027 80.6692 122.928 83.7995 122.763 86.9254C122.607 89.8589 122.387 92.8028 121.688 95.6647C119.368 105.161 110.678 111.96 100.952 112.306C98.0639 112.41 95.2052 112.004 92.4439 111.154C89.5836 110.273 87.0292 108.46 84.0968 107.902C83.3299 107.758 82.6073 108.53 83.0468 109.271C83.8033 110.546 84.7221 111.324 85.9791 112.091C87.2956 112.892 88.7615 113.486 90.2087 114.006C92.8707 114.961 95.6871 115.515 98.5118 115.669C100.666 115.787 102.83 115.639 104.94 115.234C105.089 115.688 105.35 116.13 105.549 116.55C105.578 116.612 105.678 116.569 105.659 116.506C105.627 116.4 105.606 116.307 105.598 116.231C106.307 117.157 107.404 117.797 108.53 118.108C109.324 118.328 110.167 118.395 110.985 118.302C111.249 118.273 111.5 118.228 111.75 118.174C112.582 118.903 113.647 119.389 114.716 119.632C114.532 120.748 115.083 121.965 116.362 122.282C116.898 122.415 117.414 122.417 117.929 122.369C118.346 122.563 118.793 122.715 119.269 122.819C119.888 122.954 120.627 122.781 121.094 122.333C121.35 122.513 121.588 122.637 121.825 122.922C122.799 124.098 124.899 123.161 124.992 121.802C125.3 121.802 125.611 121.807 125.922 121.817C125.995 121.851 126.069 121.885 126.145 121.921C127.504 122.552 128.911 123.104 130.413 122.608C130.69 122.517 130.943 122.401 131.174 122.265C132.232 122.36 133.276 122.362 134.349 122.016C134.983 121.811 135.578 121.485 136.075 121.058C137.731 121.545 139.479 121.764 141.127 121.162C142.36 120.712 143.353 120.002 144.052 119.065C145.122 119.103 146.207 118.846 147.185 118.336C148.859 117.47 150.031 115.823 150.849 114.173C152.649 110.531 153.714 106.619 154.132 102.584C154.544 98.6109 153.957 94.6587 153.543 90.7083Z" fill="black"/>
<path fill-rule="evenodd" clip-rule="evenodd" d="M108.598 98.8368C107.247 98.8478 105.729 98.3409 104.714 97.944L104.45 97.8391C103.571 97.4871 102.669 97.0829 101.996 96.4047C101.78 96.1843 101.551 95.9349 101.435 95.6726C101.367 95.519 101.338 95.36 101.404 95.2019C101.648 95.178 101.878 95.1469 102.097 95.1069C102.201 95.0879 102.3 95.0682 102.377 95.0677C102.658 95.0659 102.937 95.1017 103.215 95.1369C103.255 95.142 103.296 95.1471 103.336 95.1521C103.553 95.1789 103.768 95.2079 103.984 95.2368C104.61 95.3209 105.232 95.4044 105.868 95.4348C106.326 95.4568 106.807 95.431 107.292 95.4046C108.55 95.3361 109.851 95.2426 110.821 96.1242C111.075 96.3551 111.181 96.6459 111.181 96.9422C111.181 97.3022 111.029 97.6687 110.798 97.9563C110.275 98.6072 109.469 98.8296 108.598 98.8368ZM115.961 87.4831C115.374 88.3648 114.395 88.9317 113.054 88.8701C110.388 88.7482 107.207 87.7421 104.975 86.2874C104.393 85.9087 104.016 85.3031 103.949 84.6544L103.828 83.5003L103.178 84.4614C103.111 84.5615 103.042 84.6614 102.974 84.7613C102.786 85.0364 102.598 85.3115 102.42 85.5935C101.739 86.676 101.115 87.7693 100.548 88.916C100.147 89.728 99.8533 90.6362 99.559 91.5524C99.0622 93.0994 98.5822 94.6208 97.5208 95.7081C97.3603 95.8725 97.1135 95.9314 96.8877 95.9023C96.6887 95.8767 96.4936 95.779 96.398 95.5846C95.1298 93.0044 96.8356 89.8953 98.2194 87.7337L98.3658 87.508C99.6489 85.5547 101.745 82.9697 104.144 82.6183L104.419 83.0567L104.819 82.7901C105.472 82.3542 106.335 82.3745 107.09 82.7155L107.845 83.0565C109.25 83.6875 110.637 84.2697 112.158 84.5886C112.268 84.6119 112.379 84.6336 112.49 84.6537C112.594 84.6727 112.699 84.6905 112.805 84.7071C112.782 84.6033 112.757 84.5001 112.733 84.3971C112.707 84.2882 112.681 84.179 112.654 84.0702C112.625 83.9578 112.594 83.8461 112.564 83.7348C112.442 83.291 112.304 82.8512 112.141 82.4206C111.527 80.8019 110.546 79.2879 109.593 77.8439L109.48 77.674C109.344 77.4671 109.194 77.2512 109.039 77.0279C108.295 75.9563 107.47 74.7933 107.412 73.6259C108.399 73.6881 109.225 74.3018 109.953 74.8361C110.951 75.5688 111.876 76.4068 112.715 77.3172C114.342 79.0833 115.803 81.3411 116.444 83.6752C116.811 85.0117 116.649 86.4499 115.961 87.4831ZM89.9191 74.1679L89.9188 74.1203C89.9218 72.7726 90.7064 69.6954 92.6459 69.6954C93.8575 69.6954 94.5931 71.7896 94.7204 73.9485L94.7249 74.0365C94.7811 75.3787 94.4129 78.3125 92.6459 78.3125C90.8601 78.3125 89.9374 75.5338 89.9191 74.1679ZM118.473 73.7452L118.473 73.6976C118.47 72.3499 117.686 69.2727 115.746 69.2727C114.565 69.2727 113.836 71.2635 113.682 73.364L113.672 73.5258C113.595 74.8226 113.939 77.8898 115.746 77.8898C117.532 77.8898 118.455 75.1111 118.473 73.7452ZM96.4508 65.0469C96.1938 65.0771 95.9381 65.1166 95.6825 65.1572C94.9367 65.276 94.1949 65.4187 93.4583 65.585C92.0591 65.901 90.6712 66.3 89.3098 66.7508C88.0358 67.1729 86.7817 67.6498 85.5279 68.1268C85.461 68.1522 85.3941 68.1777 85.3272 68.2031C84.8845 68.3715 84.4433 68.5602 84.0007 68.7495C83.3271 69.0376 82.6505 69.3276 81.96 69.5462C83.7792 67.0299 86.5824 65.1654 89.2797 63.8312C90.8187 63.0699 92.4513 62.4561 94.0937 61.9531L95.0083 61.6781C96.355 61.2807 97.8276 60.9135 99.0927 61.7061C99.593 62.0195 99.9123 62.5068 100.013 63.0336C100.111 63.5502 99.999 64.1041 99.6424 64.5664C99.3317 64.9691 98.9446 65.1984 98.5325 65.277C98.0777 65.3638 97.5957 65.2685 97.157 65.0341C96.8055 65.0079 96.7018 65.0173 96.5978 65.0289L96.4508 65.0469ZM116.711 65.3029C115.81 65.1069 114.917 65.0282 113.992 65.0564C113.574 65.069 113.169 65.1336 112.766 65.1987C112.139 65.2997 111.515 65.404 110.84 65.2814C110.488 65.2174 110.188 65.0113 109.956 64.7423C109.685 64.4278 109.506 64.0257 109.448 63.6435C109.389 63.2487 109.448 62.9033 109.594 62.5984C109.767 62.2382 110.057 61.9346 110.408 61.6687C111.471 60.8637 113.295 61.0573 114.549 61.22C115.789 61.3813 117.022 61.7658 118.117 62.3765C119.199 62.9794 120.138 63.7914 120.872 64.784C121.49 65.6206 121.781 66.5835 122.082 67.564C120.667 66.377 118.503 65.6921 116.711 65.3029Z" fill="black"/>
</svg>
