<svg width="196" height="237" viewBox="0 0 196 237" fill="none" xmlns="http://www.w3.org/2000/svg">
<path fill-rule="evenodd" clip-rule="evenodd" d="M86.5999 80.9665C92.7546 81.2704 102.338 83.91 102.817 85.597C103.565 88.2312 101.957 98.107 104.646 103.427C105.792 105.694 110.145 105.491 111.831 106.229C117.474 108.7 134.18 113.387 137.624 119.287C139.004 121.651 147.484 150.985 151.99 165.95C152.498 167.637 153.072 169.197 153.696 170.642L153.925 169.519C155.762 160.475 156.681 154.999 156.681 153.093C156.681 150.114 154.306 137.548 156.681 134.352C159.032 131.188 164.698 128.601 167.248 128.55L167.324 128.549C168.998 128.549 170.45 128.025 171.681 126.979L173.486 126.071C182.668 121.462 188.032 118.933 189.579 118.486C192.047 117.772 196.248 119.293 194.148 121.577C192.747 123.099 189.228 125.792 183.591 129.655L181.465 131.345L181.722 131.479C184.469 132.926 186.084 134.144 186.568 135.133C187.066 136.152 186.827 137.357 185.851 138.749L185.999 138.894C187.234 140.106 187.851 140.919 187.851 141.333V143.356C189.08 145.156 189.387 146.657 188.772 147.859C188.158 149.062 187.184 150.103 185.851 150.985C184.868 153.571 183.698 155.411 182.34 156.506C180.982 157.601 178.635 158.513 175.299 159.241L172.281 166.461L169.835 176.605L168.602 187.923L168.96 188.183C170.619 189.391 171.681 190.287 171.681 191.213C171.681 192.655 164.989 226.572 154.577 228.09C152.325 228.419 140.647 226.808 136.813 223.688L136.869 224.025C137.771 229.476 137.581 232.307 136.297 232.518C120.518 235.106 75.7042 235.905 1.85632 234.916C1.41696 195.706 3.40367 169.593 7.81644 156.577C19.1024 123.286 31.5456 111.916 35.8989 110.942C39.7121 110.089 52.935 104.824 56.6314 103.427C59.0442 102.514 59.5611 99.7796 62.3107 99.7796L62.533 99.7807C65.192 99.8074 67.5501 100.283 68.8749 98.9151C72.3516 95.3249 71.3797 90.3553 72.822 85.597C73.6167 82.9752 79.0473 80.5937 86.5999 80.9665Z" fill="white"/>
<path fill-rule="evenodd" clip-rule="evenodd" d="M69.6909 90.3674C70.0521 89.6514 71.0111 89.7441 71.6438 90.069C73.5417 91.4569 71.556 94.1472 71.031 95.841C69.6805 99.1262 67.335 102.337 64.0972 103.872C64.3655 107.138 64.6695 110.397 64.7817 113.673C68.9214 118.809 75.9011 120.684 82.0969 122.126C91.8281 124.818 102.811 119.303 106.095 109.68C102.357 107.555 101.147 101.992 102.263 98.1109C102.36 97.8382 102.782 97.7177 102.932 98.0221C103.956 100.128 103.819 102.698 104.983 104.778C116.152 105.848 130.567 110.064 137.884 119.1C141.127 123.621 142.412 129.501 144.009 134.74C147.417 145.542 150.132 156.562 153.474 167.375L153.868 165.329C154.948 159.693 155.929 153.981 155.2 148.249L155.186 147.975C154.948 143.415 153.522 134.94 157.057 131.861C160.255 129.416 164.888 127.452 168.901 128.579C176.042 125.4 182.206 120.046 189.812 117.961C192.153 117.479 195.52 118.05 194.967 121.226C193.434 126.783 187.012 128.939 182.622 131.804C185.436 132.567 188.867 135.99 186.668 138.975C186.649 139.028 186.632 139.068 186.615 139.1C188.398 139.891 188.648 141.877 188.211 143.581C188.166 144.031 188.048 143.644 188.312 144.052C190.324 145.95 189.435 151.241 186.404 151.42C186.603 153.926 184.993 156.361 182.954 157.729C180.757 159.202 177.58 159.265 175.76 161.281C171.489 168.816 170.016 177.71 169.55 186.338C172.366 187.392 174.892 190.545 172.334 193.219C172.283 193.225 172.233 193.231 172.182 193.235C170.699 197.194 170.126 201.414 169.342 205.549C168.135 212.603 164.991 219.081 160.976 224.957C156.333 232.737 143.847 231.503 137.557 226.483C137.582 227.8 137.799 229.109 137.377 230.382C136.755 231.756 135.238 231.162 135.087 229.81C131.762 231.68 130.979 225.505 134.675 226.485C134.391 222.021 134.226 217.551 134.092 213.079C129.908 214.434 129.727 207.489 134.008 208.877L134.003 206.957C133.971 192.234 134.134 177.461 136.076 162.854C136.256 161.761 136.56 160.704 136.737 159.618C136.756 159.506 136.932 159.538 136.932 159.645C137.233 180.096 135.897 200.59 137.291 221.047C138.451 221.401 138.914 222.733 139.773 223.509C141.681 225.271 144.278 226.129 146.819 226.428C153.932 227.425 157.003 225.252 160.171 219.067C158.742 220.022 156.812 218.335 157.683 216.823L157.71 216.778C158.614 215.176 161.168 216.136 160.845 217.93C164.03 212.828 165.697 207.074 166.928 201.237L167.094 200.54C167.693 198.062 168.469 195.222 169.906 192.98C161.143 190.745 152.57 183.937 151.198 174.597C148.973 181.591 145.959 188.427 143.086 195.228C142.199 197.593 141.829 200.136 140.557 202.33C140.261 202.837 139.511 202.706 139.344 202.171C138.2 197.055 141.666 192.189 143.466 187.584C144.935 184.981 149.153 173.095 151.769 173.066C148.83 160.181 144.91 147.392 141.178 134.666C137.568 117.484 130.212 114.171 114.63 108.761C117.44 123.09 130.273 136.959 123.444 151.988L123.278 152.378C122.58 154.035 122 155.705 122.487 157.524C122.961 159.288 124.038 160.821 124.9 162.408C129.719 171.374 126.402 181.844 124.539 191.181C122.185 202.131 119.86 213.09 117.427 224.023C116.948 226.204 116.637 228.451 115.913 230.564C115.539 231.655 113.673 231.551 113.794 230.279C114.024 227.81 114.717 225.403 115.224 222.979C118.253 207.284 122.352 191.774 124.958 176.01C126.635 164.341 120.035 162.548 120.281 155.008C121.178 151.152 123.553 147.711 123.417 143.602C123.944 131.023 114.786 120.646 113.655 108.412L111.658 107.699C110.66 107.342 109.664 106.982 108.67 106.613C113.9 143.203 112.312 180.592 109.698 217.363C109.163 219.06 109.672 230.912 107.432 229.86C107.319 230.523 106.968 231.174 106.203 231.17C99.2584 231.234 92.3119 231.344 85.3676 231.427C82.0272 231.119 77.436 232.395 74.5948 230.467C71.3145 229.53 70.9374 220.643 70.0604 217.475L69.7185 215.171C64.1444 177.528 59.1562 139.108 63.1629 101.092C57.5884 101.306 56.4379 107.325 56.0244 111.707C54.9907 121.379 48.7439 129.708 48.4443 139.491C48.419 141.865 48.8669 144.164 49.8152 146.343C52.3314 151.682 56.6831 157.855 53.4307 163.818C49.5841 168.46 49.9171 169.682 51.3286 175.418C55.2998 194.383 61.8947 212.615 68.1683 230.901C66.8052 238.008 58.6063 211.624 57.835 209.634C54.2056 211.46 52.2231 205.401 56.3859 204.97C53.7121 196.016 51.2514 186.996 49.2028 177.877L49.1485 177.62C48.2436 173.406 46.4636 168.472 49.4694 164.735C57.22 156.894 44.3489 148.13 45.9725 138.631C44.5705 139.671 42.4483 138.577 42.4802 136.83C42.4167 134.864 45.0571 133.857 46.3276 135.357C47.634 127.65 52.1789 120.923 53.5543 113.239L53.6164 112.878C54.0824 110.162 54.2138 107.305 55.5471 104.83C53.7321 106.009 51.7993 106.962 49.8112 107.803C53.3658 110.773 46.4825 113.484 47.0521 108.896C27.5588 114.538 23.1529 122.406 15.9957 140.474C17.3326 139.175 19.6228 140.856 18.8225 142.513C18.1841 144.259 15.3989 143.749 15.4 141.888L15.0738 142.666C10.7338 153.047 6.78365 163.681 4.79856 174.791C8.69264 174.241 7.70116 180.467 4.17299 178.711C2.75708 188.592 2.73468 198.613 2.90771 208.573C6.19229 206.85 6.29116 212.705 2.9394 211.035C3.06194 219.198 3.24152 227.36 3.37673 235.522C3.40419 237.26 0.725318 237.251 0.683065 235.522C0.370177 222.981 -0.200033 210.416 0.0710231 197.871C-0.183977 176.096 6.07335 155.109 15.3966 135.603C23.646 113.144 35.0409 110.59 56.0056 104.06C57.9408 101.186 62.0753 98.4685 65.4486 100.273C67.3359 97.2253 68.2944 93.6146 69.6909 90.3674ZM33.7718 168.643C33.85 168.366 34.2451 168.435 34.2577 168.708C34.4331 172.231 34.2767 175.778 34.0359 179.316C33.8899 181.476 33.7106 183.634 33.5584 185.779C33.1549 191.439 32.8296 197.105 32.5824 202.776C32.669 202.74 32.7577 202.708 32.8507 202.683C33.2775 202.566 33.7044 202.566 34.131 202.683C34.5115 202.789 34.8443 202.975 35.1308 203.243L35.1915 203.302C35.426 203.519 35.5929 203.778 35.6901 204.076C35.8286 204.341 35.8986 204.624 35.8985 204.927L35.897 205.003C35.8951 205.439 35.7873 205.842 35.5676 206.219C35.3542 206.58 35.0669 206.867 34.7056 207.083C34.3296 207.301 33.9258 207.409 33.4908 207.41C33.4444 207.415 33.3977 207.419 33.3514 207.421C33.0279 207.434 32.726 207.366 32.447 207.22L32.4049 207.208C32.2993 210.084 32.2127 212.963 32.1493 215.841C32.0922 218.35 32.0162 220.859 31.9655 223.367L31.9419 224.622L31.896 227.396C31.881 228.536 31.8883 229.629 31.5007 230.704L31.4542 230.828C31.1753 231.547 30.9579 232.547 30.2117 232.946C29.6162 233.265 28.8134 233.147 28.4711 232.525C28.1838 232.005 28.4329 231.257 28.8577 230.906C28.8493 230.883 28.8366 230.862 28.826 230.839C28.7605 230.648 28.661 230.469 28.6021 230.277C28.416 229.668 28.4669 229.019 28.4648 228.387C28.4648 227.271 28.5026 226.155 28.5324 225.041C28.5979 222.67 28.6739 220.301 28.7667 217.932C29.0807 209.984 29.672 202.036 30.3492 194.111L30.579 191.435C30.8852 187.878 31.2021 184.317 31.6507 180.778C31.6716 180.609 31.6929 180.44 31.7162 180.271C31.4753 180.151 31.2514 179.984 31.0737 179.798C30.362 179.05 29.9302 177.932 29.5254 176.969L29.4324 176.75C28.9929 175.723 28.5873 174.683 28.3782 173.58L28.3581 173.478C28.2627 173.009 28.0744 172.176 28.5725 171.948C28.8324 171.83 28.997 171.914 29.0817 172.174C29.0925 172.208 29.0836 172.246 29.0648 172.276C29.2697 172.59 29.5908 172.884 29.7936 173.176L30.4878 174.169L30.831 174.668C31.2662 175.309 31.731 175.922 32.2106 176.526C32.5885 173.871 33.0514 171.227 33.7718 168.643ZM62.238 227.798C63.1063 227.117 64.5197 227.487 64.5197 228.742C64.5197 230.004 63.1042 230.368 62.238 229.687L62.1949 229.655L62.1535 229.621C61.6818 229.253 61.666 228.293 62.1179 227.893L62.1535 227.863C62.1808 227.84 62.2085 227.819 62.238 227.798ZM24.4119 225.344L24.4865 225.346C24.8795 225.346 25.245 225.445 25.5851 225.644C25.733 225.756 25.8788 225.87 26.0267 225.984C26.2971 226.254 26.483 226.576 26.5865 226.946L26.6649 227.525C26.6753 227.825 26.614 228.104 26.4767 228.364C26.388 228.634 26.238 228.869 26.0267 229.066C25.8281 229.279 25.5957 229.429 25.3255 229.516C25.0871 229.642 24.8329 229.706 24.5611 229.706L24.4865 229.704C24.0917 229.704 23.726 229.605 23.3858 229.406C23.238 229.294 23.0922 229.18 22.9443 229.066C22.676 228.795 22.488 228.474 22.3846 228.104C22.3591 227.911 22.3339 227.717 22.3063 227.525C22.2959 227.225 22.3591 226.946 22.4943 226.686C22.583 226.415 22.733 226.181 22.9443 225.984C23.1431 225.771 23.3753 225.62 23.6457 225.534C23.8839 225.408 24.1399 225.344 24.4119 225.344ZM123.309 221.326L123.863 221.4C124.393 221.52 124.82 221.911 125.105 222.357C125.257 222.596 125.339 222.854 125.352 223.131C125.413 223.406 125.401 223.683 125.314 223.959C125.251 224.23 125.126 224.466 124.942 224.667C124.879 224.767 124.805 224.858 124.721 224.938C124.547 225.227 124.285 225.417 124.015 225.612C123.787 225.758 123.539 225.836 123.273 225.849C123.098 225.895 122.92 225.895 122.743 225.849C122.479 225.836 122.232 225.758 122.003 225.612C121.868 225.509 121.733 225.403 121.6 225.299C121.482 225.162 121.372 225.02 121.268 224.872C121.199 224.71 121.131 224.549 121.063 224.388C120.939 224.001 121 223.659 121.068 223.272C121.078 223.207 121.095 223.148 121.118 223.084L121.164 222.961C121.286 222.64 121.351 222.531 121.566 222.252L121.648 222.142C121.689 222.087 121.731 222.033 121.78 221.985C121.915 221.846 122.107 221.729 122.259 221.609C122.584 221.421 122.935 221.328 123.309 221.326ZM51.5809 219.972L51.6513 219.973C51.9577 219.975 52.2452 220.051 52.5112 220.206L52.8577 220.474C53.0689 220.688 53.2147 220.937 53.2971 221.227C53.3161 221.379 53.3375 221.531 53.3584 221.681C53.3668 221.916 53.3184 222.135 53.2105 222.34C53.1431 222.552 53.0246 222.733 52.8577 222.89C52.7037 223.055 52.5196 223.173 52.3084 223.243C52.124 223.339 51.9256 223.39 51.7149 223.39L51.6513 223.389C51.3429 223.389 51.0556 223.311 50.7894 223.156L50.4429 222.89C50.2316 222.676 50.0858 222.425 50.0034 222.135C49.9844 221.983 49.9633 221.833 49.9422 221.681C49.9337 221.446 49.9823 221.227 50.0901 221.024C50.1598 220.812 50.276 220.628 50.4429 220.474C50.5971 220.307 50.7809 220.189 50.9922 220.121C51.1766 220.024 51.3713 219.975 51.5809 219.972ZM37.638 219.274C38.0794 219.269 38.5275 219.394 38.8887 219.65C39.2394 219.899 39.5054 220.168 39.6768 220.571C39.7232 220.682 39.7695 220.789 39.8099 220.899C39.9916 221.383 40.0254 221.869 39.774 222.343C39.531 222.801 39.0071 223.002 38.5378 223.139C38.1409 223.258 37.6909 223.277 37.2958 223.135C37.0993 223.065 36.9071 222.991 36.7296 222.884C36.3979 222.679 36.2183 222.435 35.9965 222.135C35.8232 221.839 35.7366 221.518 35.7366 221.176C35.7366 220.831 35.8232 220.512 35.9965 220.214C36.3364 219.633 36.9662 219.278 37.638 219.274ZM15.2436 219.682C15.8015 219.682 16.2915 219.939 16.6276 220.375C16.9675 220.817 17.0922 221.366 16.9422 221.914C16.7837 222.493 16.3044 223 15.7105 223.146C15.2713 223.253 14.9119 223.249 14.4746 223.175C14.1049 223.112 13.822 222.892 13.5387 222.664C13.2154 222.399 13.1161 221.918 13.1689 221.529C13.2196 221.14 13.3994 220.886 13.672 220.656L13.6739 220.65L13.5725 220.728C13.6107 220.694 13.6485 220.658 13.6868 220.622C13.6992 220.601 13.7098 220.578 13.7203 220.555C13.8767 220.288 14.088 220.079 14.352 219.923C14.6288 219.762 14.9246 219.682 15.2436 219.682ZM145.298 213.28C145.604 213.197 145.913 213.197 146.219 213.28C146.445 213.333 146.641 213.436 146.809 213.59C146.978 213.701 147.116 213.842 147.221 214.017L147.254 214.077C147.495 214.487 147.533 214.956 147.429 215.412C147.301 215.977 146.781 216.49 146.219 216.623L146.2 216.627L146.181 216.632C145.953 216.704 145.722 216.714 145.494 216.662C145.264 216.651 145.051 216.583 144.854 216.456C144.605 216.296 144.396 216.089 144.235 215.839C144.108 215.641 144.041 215.427 144.03 215.197C143.99 215.045 143.99 214.893 144.03 214.74C144.041 214.51 144.108 214.296 144.235 214.098L144.505 213.749L144.533 213.726C144.749 213.51 145.004 213.362 145.298 213.28ZM124.027 202.095C126.797 202.095 126.793 206.394 124.027 206.394C121.258 206.394 121.262 202.095 124.027 202.095ZM22.623 201.552C22.9148 201.486 23.2063 201.499 23.4958 201.59C23.6711 201.664 23.8444 201.738 24.0176 201.81L24.4613 202.152C24.5437 202.222 24.5838 202.298 24.6599 202.397L24.7549 202.522C24.8924 202.706 24.8956 202.745 25.0465 203.137C25.1479 203.513 25.1479 203.889 25.0465 204.266C24.9977 204.448 24.924 204.619 24.8289 204.777C24.742 204.929 24.638 205.063 24.5209 205.186L24.4613 205.246C24.2627 205.46 24.0282 205.61 23.7578 205.699C23.5866 205.798 23.4028 205.847 23.2063 205.847C22.9148 205.912 22.623 205.899 22.3338 205.808C22.1585 205.735 21.9852 205.661 21.8118 205.589L21.3683 205.246L21.0261 204.803L20.9169 204.542L20.8063 204.281L20.7282 203.699C20.7176 203.397 20.7789 203.118 20.916 202.856C20.9688 202.672 21.062 202.509 21.197 202.374C21.2944 202.209 21.4251 202.078 21.5901 201.981C21.7251 201.846 21.888 201.753 22.0718 201.7C22.243 201.601 22.4268 201.552 22.623 201.552ZM159.613 198.481C159.844 198.473 160.059 198.521 160.258 198.627C160.327 198.65 160.395 198.68 160.461 198.714C160.716 198.864 160.919 199.066 161.069 199.32C161.192 199.515 161.259 199.724 161.27 199.95C161.316 200.154 161.311 200.359 161.256 200.563L161.238 200.624C161.192 200.791 161.122 200.945 161.029 201.087C161.02 201.104 161.01 201.121 160.997 201.136C160.856 201.36 160.668 201.543 160.435 201.681C160.177 201.829 159.901 201.905 159.601 201.907C159.003 201.907 158.487 201.584 158.173 201.087C158.128 201.017 158.103 200.928 158.071 200.857C158.044 200.789 157.999 200.702 157.976 200.624C157.896 200.324 157.896 200.024 157.976 199.724C158.029 199.504 158.128 199.312 158.278 199.149C158.398 198.965 158.557 198.819 158.754 198.714C158.997 198.571 159.259 198.495 159.537 198.483L159.613 198.481ZM42.6724 196.378C42.9649 196.298 43.2558 196.292 43.5464 196.36L43.6191 196.378C43.8513 196.433 44.0522 196.539 44.2252 196.695C44.4175 196.822 44.5719 196.989 44.6837 197.196C44.8444 197.473 44.9247 197.773 44.9266 198.094C44.9247 198.416 44.8444 198.716 44.6837 198.992C44.5252 199.261 44.3118 199.472 44.0437 199.631L43.8113 199.743C43.617 199.865 43.4099 199.931 43.1858 199.941C43.036 199.982 42.8858 199.982 42.7381 199.941C42.5858 199.941 42.4442 199.904 42.3135 199.827C42.1698 199.787 42.047 199.715 41.9414 199.61C41.7576 199.491 41.6142 199.335 41.5085 199.138L41.3372 198.735L41.2782 198.286L41.3372 197.841L41.4304 197.621C41.5147 197.318 41.667 197.057 41.8886 196.835C42.1104 196.615 42.3724 196.463 42.6724 196.378ZM147.444 192.813C147.753 192.716 148.059 192.703 148.366 192.77C148.572 192.77 148.767 192.823 148.947 192.929C149.143 192.984 149.312 193.081 149.456 193.225C149.707 193.387 149.904 193.603 150.049 193.871L150.282 194.423C150.421 194.78 150.37 195.307 150.286 195.666C150.216 195.962 150.081 196.22 149.88 196.439C149.779 196.611 149.644 196.746 149.472 196.847C149.277 197.025 149.051 197.152 148.795 197.227L148.725 197.247L148.699 197.253C148.695 197.255 148.691 197.255 148.687 197.255C148.685 197.257 148.68 197.257 148.678 197.257C148.577 197.283 148.473 197.297 148.366 197.302C148.059 197.369 147.753 197.357 147.444 197.26C147.263 197.183 147.079 197.105 146.895 197.027C146.739 196.909 146.584 196.788 146.428 196.668C146.308 196.511 146.187 196.355 146.067 196.201C145.898 195.937 145.807 195.649 145.794 195.342C145.739 195.138 145.739 194.935 145.794 194.729C145.794 194.52 145.847 194.328 145.951 194.148C146.044 193.861 146.202 193.614 146.428 193.405C146.584 193.284 146.739 193.163 146.895 193.045C147.079 192.967 147.263 192.889 147.444 192.813ZM12.6979 185.246C13.0167 185.16 13.3359 185.16 13.655 185.246L14.0836 185.426C14.2949 185.54 14.462 185.694 14.5888 185.891C14.7493 186.064 14.8569 186.269 14.9118 186.504C15.0366 186.825 15.0219 187.334 14.9226 187.662C14.8106 188.034 14.6374 188.33 14.369 188.609C13.9233 189.07 13.2386 189.203 12.6324 189.063C12.4653 189.025 12.3069 188.951 12.1632 188.86C11.705 188.577 11.3965 188.083 11.3986 187.535C11.3986 187.476 11.4028 187.417 11.4113 187.358C11.3817 187.237 11.3709 187.113 11.3754 186.981L11.4388 186.504L11.4428 186.491C11.5275 186.189 11.6796 185.927 11.9012 185.705C12.1062 185.502 12.3452 185.355 12.6183 185.267L12.6874 185.246H12.6979ZM172.118 137.788C171.541 133.054 169.371 127.962 162.753 130.741L162.261 130.925C160.624 131.546 158.715 132.361 157.718 133.793C157.032 134.78 157.264 136.693 157.169 137.845C156.738 141.59 156.969 145.33 157.419 149.059C157.999 157.8 156.162 166.857 152.504 174.801C156.165 180.727 161.064 186.253 167.747 188.723C168.03 181.986 169.348 175.373 170.751 168.799L170.807 168.512C171.368 165.548 171.649 162.506 173.595 160.041C177.554 155.741 182.998 158.175 185.603 151.268C185.056 150.991 185.358 150.044 186.018 150.226C188.303 150.631 188.674 146.394 187.11 145.373C185.481 144.379 187.121 142.545 186.427 141.222C186.041 140.651 185.206 140.632 184.828 139.975C183.825 137.555 188.843 136.004 182.942 133.277C181.734 132.847 180.384 133.113 179.166 133.109C177.374 133.276 175.95 134.539 174.311 134.936C176.096 139.558 171.593 144.009 167.53 140.318C165.318 142.408 162.845 147.175 168.221 144.953C170.852 143.196 173.117 140.926 176.171 139.844L176.235 139.824C177.369 139.452 182.33 137.041 182.084 139.128C180.226 140.922 177.161 140.901 175.009 142.357C172.025 143.738 170.117 147.082 166.545 147.036C165.722 152.038 171.396 148.995 173.508 147.615L174.094 147.297C177.075 145.687 180.1 144.194 183.575 144.175C184.534 144.168 184.53 145.648 183.575 145.66C179.046 145.689 175.359 148.521 171.565 150.627C171.191 153.547 175.465 152.269 177.087 151.838C178.788 151.599 181.519 149.759 183.007 150.731C183.589 152.227 181.028 152.116 180.136 152.569C184.207 154.526 180.64 155.758 179.549 152.751L179.229 152.86C176.502 153.777 169.891 155.663 170.678 151.044C169.68 151.485 168.463 151.749 167.361 151.504C164.611 155.573 160.225 153.998 166.6 151.225C165.163 150.557 164.684 147.976 166.064 147.015C161.045 146.709 164.771 141.442 166.848 139.686C166.652 139.488 166.462 139.286 166.285 139.081C165.087 139.652 163.828 139.998 162.482 140.121C161.194 140.237 160.907 138.043 162.178 137.864C163.541 137.671 164.796 137.308 165.996 136.623C167.814 135.837 168.435 139.213 170.255 139.333C171.248 139.529 171.919 138.658 172.118 137.788ZM129.869 181.345C130.309 181.345 130.699 181.529 131.018 181.82C131.337 182.112 131.475 182.55 131.494 182.968C131.502 183.192 131.456 183.401 131.354 183.596C131.289 183.796 131.177 183.97 131.018 184.118C130.722 184.411 130.285 184.593 129.869 184.593C129.43 184.593 129.039 184.409 128.72 184.118C128.401 183.824 128.263 183.389 128.244 182.968C128.236 182.746 128.283 182.537 128.384 182.342C128.443 182.162 128.539 182.001 128.673 181.865L128.72 181.82C129.016 181.524 129.453 181.345 129.869 181.345ZM143.184 171.321L143.255 171.322C143.627 171.325 143.971 171.418 144.292 171.604C144.432 171.711 144.571 171.817 144.709 171.925C144.964 172.183 145.139 172.485 145.237 172.834C145.336 173.197 145.336 173.563 145.237 173.926C145.203 174.136 145.125 174.339 145.002 174.514C144.82 174.816 144.58 175.059 144.275 175.239C143.96 175.423 143.62 175.514 143.255 175.516C142.89 175.514 142.549 175.423 142.234 175.239C141.93 175.059 141.689 174.816 141.51 174.514C141.385 174.339 141.307 174.136 141.273 173.926C141.174 173.563 141.174 173.197 141.273 172.834C141.363 172.51 141.521 172.226 141.748 171.981L141.801 171.925C141.987 171.724 142.207 171.583 142.463 171.5C142.687 171.382 142.928 171.322 143.184 171.321ZM41.5653 171.434C41.7218 171.392 41.8761 171.392 42.0324 171.434C42.2648 171.445 42.4822 171.515 42.6831 171.642C42.8014 171.735 42.9197 171.826 43.038 171.917L43.1412 172.04C43.3617 172.309 43.3672 172.355 43.5364 172.764C43.6063 172.992 43.6169 173.221 43.5662 173.449C43.5662 173.603 43.5261 173.747 43.4498 173.88C43.4078 174.026 43.3359 174.153 43.2282 174.258C43.1519 174.387 43.0507 174.491 42.9216 174.567C42.757 174.717 42.5627 174.82 42.3387 174.873L41.8843 174.934C41.8254 174.926 41.7641 174.918 41.7049 174.911C41.6336 174.909 41.5644 174.901 41.4966 174.888L41.428 174.873L41.3655 174.856C41.2828 174.832 41.2022 174.8 41.124 174.759C40.9761 174.717 40.8472 174.643 40.7371 174.533C40.5472 174.41 40.3951 174.245 40.2852 174.041L40.2556 173.973C40.2155 173.901 40.1817 173.827 40.1561 173.747C40.0845 173.62 40.0486 173.485 40.0465 173.339C40.0045 173.145 40.0073 172.953 40.0575 172.76L40.0761 172.696L40.2387 172.309C40.3232 172.179 40.412 172.045 40.5259 171.937C40.5945 171.877 40.7622 171.746 40.8567 171.68L40.9146 171.642C41.1155 171.515 41.3331 171.445 41.5653 171.434ZM16.0951 168.412C16.3993 167.214 17.9711 166.836 18.8267 167.692C19.6822 168.548 19.3042 170.12 18.1065 170.424L17.969 170.458C16.8113 170.752 15.7676 169.706 16.0613 168.548L16.0951 168.412ZM161.103 158.637C161.094 158.519 161.246 158.477 161.322 158.547C162.341 159.46 162.989 160.554 164.225 161.262C165.468 161.973 166.748 161.915 168.043 162.374C168.482 162.53 168.484 163.118 168.043 163.272C165.592 164.128 161.289 161.226 161.103 158.637ZM45.9513 158.451C46.2241 158.367 46.4987 158.354 46.7712 158.415C46.9572 158.415 47.1302 158.462 47.2886 158.555C47.464 158.604 47.6142 158.692 47.7429 158.819C47.8973 158.91 48.0198 159.035 48.1126 159.189C48.2945 159.388 48.417 159.62 48.4802 159.886L48.552 160.434L48.4802 160.981C48.4105 161.144 48.3407 161.309 48.2731 161.472L48.0844 161.727C47.9314 161.932 47.9069 161.934 47.5358 162.209C47.2994 162.359 47.0438 162.442 46.7712 162.452C46.5893 162.503 46.4076 162.503 46.2241 162.452C46.0403 162.452 45.8668 162.406 45.7065 162.313C45.533 162.264 45.3811 162.175 45.252 162.049C45.0283 161.903 44.8529 161.71 44.7238 161.472C44.6541 161.309 44.5846 161.144 44.517 160.981L44.4429 160.434L44.517 159.886L44.521 159.87C44.6182 159.527 44.7917 159.229 45.0407 158.977L45.4508 158.66C45.6112 158.557 45.7781 158.504 45.9513 158.451ZM144.573 158.861C145.158 158.701 145.801 158.87 146.229 159.299C146.658 159.728 146.827 160.368 146.667 160.954C146.508 161.524 146.05 161.987 145.477 162.142C145.306 162.188 145.133 162.213 144.958 162.205C144.664 162.203 144.389 162.129 144.134 161.981L143.804 161.725C143.643 161.577 143.532 161.402 143.466 161.199C143.362 161.005 143.316 160.795 143.324 160.569L143.323 160.529C143.316 160.449 143.327 160.368 143.352 160.29C143.352 160.208 143.365 160.127 143.386 160.049C143.54 159.479 144.005 159.018 144.573 158.861ZM18.4127 153.138C18.6007 153.132 18.776 153.17 18.9387 153.256C19.1098 153.311 19.2556 153.404 19.3782 153.54C19.5134 153.662 19.6063 153.81 19.6613 153.979C19.7479 154.142 19.7859 154.318 19.7796 154.505C19.7796 154.753 19.7162 154.983 19.5936 155.194C19.5218 155.288 19.45 155.38 19.3782 155.471C19.2091 155.642 19.0084 155.759 18.776 155.824L18.6408 155.871C18.4422 155.943 18.2479 155.947 18.0408 155.92C17.8232 155.89 17.6223 155.831 17.4451 155.695C17.2716 155.594 17.1345 155.456 17.0331 155.283L16.9169 155.008C16.8915 154.916 16.881 154.776 16.8746 154.679C16.8746 154.664 16.8746 154.651 16.8725 154.636C16.8725 154.554 16.8979 154.353 16.9188 154.271C16.9655 154.097 17.0603 153.933 17.1683 153.793C17.2613 153.648 17.388 153.533 17.5444 153.449L17.5583 153.438L17.5739 153.428C17.6223 153.394 17.6732 153.36 17.7239 153.324C17.9352 153.201 18.1655 153.138 18.4127 153.138ZM127.509 151.637C127.847 151.637 128.162 151.724 128.454 151.893C128.464 151.897 128.475 151.902 128.483 151.906C128.762 152.071 128.984 152.293 129.149 152.572C129.318 152.861 129.402 153.174 129.402 153.508C129.402 153.844 129.318 154.155 129.149 154.444C128.984 154.723 128.762 154.945 128.483 155.11C128.475 155.116 128.464 155.12 128.454 155.125C128.162 155.294 127.847 155.378 127.509 155.38C127.173 155.378 126.859 155.294 126.567 155.125C125.997 154.791 125.639 154.167 125.639 153.508C125.639 152.848 125.997 152.225 126.567 151.893C126.859 151.724 127.173 151.637 127.509 151.637ZM39.7735 149.193L39.8311 149.192C40.055 149.184 40.2639 149.23 40.4562 149.334C40.6569 149.399 40.8323 149.511 40.9804 149.67L41.2888 149.928L41.3783 150C41.3931 150.012 41.4076 150.025 41.4217 150.038C41.6289 150.247 41.7705 150.492 41.8508 150.775C41.8761 150.938 41.897 151.098 41.9142 151.261C41.9604 151.684 41.7113 152.117 41.4367 152.417C41.2888 152.576 41.1132 152.688 40.9106 152.755C40.7163 152.857 40.505 152.903 40.2808 152.895C39.8224 152.855 39.3874 152.758 39.0578 152.402C39.0196 152.36 38.9837 152.316 38.9458 152.271L38.6818 151.967C38.4811 151.764 38.3414 151.525 38.2656 151.251C38.2442 151.105 38.2254 150.961 38.2064 150.817C38.1872 150.384 38.3985 149.978 38.6818 149.67C38.9433 149.384 39.3869 149.209 39.7735 149.193ZM29.1093 144.743C31.3062 144.743 31.302 148.152 29.1093 148.152C26.914 148.152 26.9182 144.743 29.1093 144.743ZM139.577 139.963L139.646 139.965C140.01 139.967 140.35 140.058 140.665 140.241L141.074 140.556C141.324 140.81 141.497 141.106 141.594 141.448C141.617 141.628 141.641 141.808 141.666 141.985C141.677 142.264 141.617 142.524 141.491 142.765C141.411 143.014 141.271 143.232 141.074 143.416C140.891 143.612 140.675 143.752 140.424 143.832C140.183 143.959 139.923 144.018 139.646 144.008C139.281 144.005 138.941 143.915 138.626 143.731C138.489 143.625 138.354 143.519 138.216 143.416C137.986 143.182 137.821 142.912 137.722 142.602L137.699 142.524L137.625 141.985C137.614 141.708 137.673 141.448 137.8 141.207C137.88 140.956 138.02 140.74 138.216 140.556C138.4 140.36 138.618 140.22 138.867 140.14C139.088 140.024 139.324 139.964 139.577 139.963ZM129.681 133.582C129.877 133.575 130.059 133.615 130.23 133.704C130.406 133.761 130.558 133.861 130.687 133.998C130.959 134.216 131.126 134.651 131.126 135.004C131.126 135.357 130.959 135.793 130.687 136.01C130.509 136.185 130.3 136.308 130.059 136.376L129.681 136.427C129.313 136.444 128.939 136.251 128.677 136.01C128.625 135.962 128.574 135.913 128.521 135.866C128.283 135.647 128.179 135.319 128.164 135.004C128.158 134.837 128.194 134.681 128.27 134.535C128.318 134.383 128.403 134.254 128.521 134.142C128.574 134.095 128.625 134.047 128.677 133.998C128.963 133.734 129.296 133.601 129.681 133.582ZM192.381 122.213C193.769 120.522 192.961 119.318 190.875 119.736C187.281 120.222 183.899 122.494 180.734 124.124C177.279 125.949 173.719 127.454 170.196 129.169C171.649 130.062 172.731 131.46 173.557 133.056C175.206 131.803 177.314 131.204 179.371 131.126C183.104 127.549 189.286 126.73 192.381 122.213ZM28.3699 127.829C28.7463 127.831 29.099 127.919 29.4295 128.096L29.5 128.135L29.9521 128.486C30.1718 128.689 30.326 128.93 30.4169 129.207C30.5563 129.473 30.6197 129.763 30.6091 130.071C30.6197 130.38 30.5563 130.667 30.4169 130.934C30.326 131.212 30.1718 131.451 29.9521 131.654C29.8275 131.817 29.6669 131.944 29.4746 132.037C29.2948 132.111 29.1176 132.187 28.938 132.263C28.7373 132.326 28.5049 132.335 28.2873 132.345C27.8922 132.343 27.5248 132.244 27.1822 132.045L26.7387 131.703C26.5253 131.504 26.373 131.27 26.2843 130.997C26.1586 130.757 26.0949 130.501 26.0949 130.227L26.0965 130.152C26.0965 130.135 26.0965 130.116 26.0988 130.097C26.1239 129.898 26.1516 129.699 26.1786 129.501C26.2486 129.209 26.3817 128.953 26.5803 128.738C26.631 128.636 26.6986 128.554 26.7854 128.486C27.0641 128.207 27.3934 128.017 27.7739 127.909C27.9725 127.884 28.1711 127.856 28.3699 127.829ZM126.397 122.229L126.461 122.23C126.746 122.23 127.01 122.302 127.256 122.444C127.363 122.526 127.469 122.608 127.575 122.691C127.771 122.887 127.906 123.12 127.98 123.386L128.037 123.804C128.044 124.022 127.999 124.223 127.9 124.411C127.837 124.606 127.729 124.775 127.575 124.918C127.433 125.073 127.264 125.181 127.068 125.244C126.882 125.343 126.679 125.388 126.461 125.379C126.178 125.379 125.912 125.307 125.667 125.164C125.561 125.083 125.453 125.001 125.348 124.918C125.17 124.738 125.041 124.528 124.964 124.289L124.944 124.223L124.887 123.804C124.879 123.587 124.923 123.386 125.022 123.198C125.086 123.002 125.196 122.832 125.348 122.691C125.491 122.536 125.661 122.429 125.855 122.365C126.024 122.276 126.205 122.231 126.397 122.229ZM40.7185 119.94L40.7922 119.941C41.2126 119.943 41.6035 120.049 41.9668 120.26C42.1232 120.381 42.2797 120.501 42.4359 120.624C42.7253 120.913 42.9239 121.256 43.0361 121.651L43.1183 122.268C43.1309 122.589 43.0633 122.887 42.9175 123.164C42.8248 123.454 42.664 123.703 42.4359 123.915C42.2269 124.141 41.9774 124.301 41.688 124.394C41.4112 124.54 41.1133 124.608 40.7922 124.595C40.3718 124.595 39.9809 124.489 39.6175 124.278C39.4614 124.158 39.3051 124.035 39.1466 123.915C38.8591 123.623 38.6605 123.28 38.5485 122.887L38.4661 122.268C38.4535 121.949 38.5211 121.649 38.6668 121.372C38.7598 121.085 38.9204 120.833 39.1466 120.624C39.3579 120.396 39.607 120.235 39.8964 120.142C40.1519 120.007 40.4254 119.941 40.7185 119.94ZM118.947 114.129C119.139 114.078 119.331 114.078 119.523 114.129C119.81 114.142 120.079 114.228 120.328 114.387L120.766 114.725C120.772 114.731 120.778 114.738 120.785 114.746C121.049 115.012 121.232 115.328 121.334 115.689L121.41 116.257C121.42 116.551 121.359 116.826 121.226 117.08C121.147 117.324 121.016 117.536 120.835 117.719L120.766 117.787C120.569 117.999 120.339 118.149 120.07 118.235C119.901 118.335 119.717 118.384 119.523 118.384C119.236 118.449 118.947 118.436 118.659 118.345C118.488 118.271 118.315 118.2 118.142 118.128L118.086 118.096C117.434 117.739 117.03 116.991 117.03 116.257C117.03 115.524 117.434 114.774 118.086 114.416C118.106 114.408 118.122 114.397 118.142 114.387C118.391 114.228 118.659 114.142 118.947 114.129Z" fill="black"/>
<path fill-rule="evenodd" clip-rule="evenodd" d="M92.5949 14.4086C124.393 15.4157 126.311 30.5255 126.311 55.8653C126.311 81.2051 109.816 97.1728 103.742 99.9611C97.6677 102.749 81.6741 114.725 67.2408 109.207C52.8075 103.688 56.9872 80.3707 56.9872 70.3522C56.9872 60.3336 60.7964 13.4015 92.5949 14.4086Z" fill="white"/>
<path fill-rule="evenodd" clip-rule="evenodd" d="M105.495 91.6388C99.6555 94.8999 92.9691 95.0268 86.6879 92.9745C82.921 91.7468 79.4669 89.8487 76.2343 87.5788C73.4224 85.6026 70.9125 83.4109 68.4259 81.0838C66.3787 76.5674 64.5557 72.0593 63.7019 67.1454C62.9372 62.7345 62.8357 58.1546 63.7231 53.7522C70.2853 48.3522 76.8071 42.9078 83.3203 37.4467C86.6372 34.6651 89.9625 31.8987 93.328 29.1763C95.0372 27.7941 96.7296 26.3907 98.4322 25.0022C98.7132 24.7739 98.9923 24.5457 99.2733 24.3174C102.789 26.8916 106.558 29.0983 110.048 31.7147C111.875 33.0863 113.652 34.5467 115.344 36.0831C116.232 36.8885 117.098 37.7191 117.943 38.5709C118.716 39.3488 119.462 40.4646 120.558 40.7585C120.708 40.7985 120.85 40.8069 120.983 40.7879C122.449 53.6296 123.491 67.4963 117.21 79.1586C114.47 84.2458 110.585 88.794 105.495 91.6388ZM67.5071 96.3585C66.703 95.6215 67.9013 94.4288 68.702 95.1627C73.7314 99.7714 80.3065 102.214 86.9479 103.345C88.0195 103.528 87.5625 105.157 86.4986 104.975C79.5645 103.795 72.7495 101.162 67.5071 96.3585ZM61.472 103.43C60.512 102.914 61.3666 101.455 62.3249 101.97C66.2433 104.072 70.5411 105.164 74.9004 105.902C75.9726 106.083 75.5152 107.712 74.4512 107.532C69.9438 106.77 65.521 105.602 61.472 103.43ZM77.4195 32.1989C80.671 29.2799 84.1653 26.5025 87.8564 24.1589C91.5914 21.7875 95.671 20.3694 100.08 20.3356C99.7717 20.5828 99.478 20.8576 99.1801 21.1131C98.3479 21.8256 97.5174 22.5421 96.6872 23.2564C95.0266 24.6873 93.3618 26.1158 91.7224 27.5701C88.4942 30.436 85.2555 33.2871 82.0336 36.1594C75.8414 41.6798 69.7824 47.3205 63.8541 53.1244C63.886 52.9828 63.9198 52.8412 63.9534 52.6998C65.916 44.4992 71.2548 37.7339 77.4195 32.1989ZM102.907 20.6927C102.928 20.6293 102.943 20.5678 102.951 20.5089C111.413 21.6121 118.48 27.8404 120.816 36.041C120.613 36.3242 120.501 36.6603 120.543 37.0172C120.565 37.1971 120.586 37.3788 120.607 37.5585C120.317 37.2713 120.02 37.0026 119.766 36.7469C118.923 35.8931 118.059 35.0622 117.172 34.2528C115.357 32.5981 113.473 31.051 111.486 29.6075C108.032 27.0967 104.293 24.7887 100.175 23.584C100.446 23.3621 100.716 23.1402 100.989 22.9204C101.802 22.2586 102.556 21.7136 102.907 20.6927ZM118.076 11.9238C112.881 6.24483 105.687 2.08546 98.1113 0.639822C90.8773 -0.742409 83.3879 0.168512 76.5536 2.85477C62.2526 8.47669 50.9688 20.8388 45.685 35.1639C42.6048 43.5101 41.5949 52.6595 42.5205 61.4939C43.4414 70.288 46.0886 79.3699 50.9055 86.8517C51.347 87.5367 51.8308 88.1938 52.3379 88.83C52.1118 91.4127 51.2498 93.9446 49.8935 96.1469C49.8206 96.2648 49.7437 96.3807 49.6676 96.4967C48.2788 97.5372 46.8381 98.5136 45.4317 99.5215C44.2129 100.395 43.0066 101.291 41.8605 102.258C40.7786 103.171 39.5222 104.188 38.7897 105.421C38.1895 106.431 37.9444 107.803 38.7637 108.766C39.751 109.926 41.4238 109.517 42.7611 109.517C42.8756 109.517 42.9899 109.52 43.1042 109.521C43.5058 109.774 43.9195 110.002 44.3203 110.214C48.3703 112.362 52.435 114.486 56.5041 116.599C64.6085 120.811 72.6789 125.193 80.9498 129.071C84.7824 130.87 88.8853 132.442 93.178 132.436C97.205 132.429 100.845 130.829 103.989 128.397C107.572 125.626 110.568 122.107 113.474 118.658C114.636 117.277 115.775 115.881 116.893 114.465C119.039 113.748 121.169 113.539 123.083 114.921C124.619 116.031 126.643 114.522 126.679 112.856C126.691 112.265 126.666 111.681 126.603 111.106C126.218 107.555 124.482 104.343 122.525 101.363C121.456 99.7335 120.33 98.1334 119.198 96.5483C118.932 96.1744 118.67 95.8003 118.416 95.4196C122.965 88.7201 126.573 81.2911 128.791 73.528C131.122 65.3595 131.914 56.8886 131.394 48.424C130.596 35.4513 127.038 21.722 118.076 11.9238Z" fill="black"/>
<path fill-rule="evenodd" clip-rule="evenodd" d="M107.333 82.2489C105.776 82.6999 104.106 82.7402 102.52 82.2745C101.081 81.8521 99.6032 80.9224 98.5442 79.6923C97.6035 78.5995 96.9942 77.2715 97.0181 75.8539C97.0208 75.692 97.0787 75.5569 97.1677 75.452C97.2635 75.3391 97.3974 75.2615 97.5408 75.2279C97.6882 75.1933 97.8441 75.2055 97.9768 75.2659C98.097 75.3205 98.2 75.4132 98.2643 75.5488C98.4271 75.7627 98.5892 75.9734 98.752 76.1782C100.061 77.7947 101.328 79.0027 103.296 79.436C104.363 79.6711 105.429 79.5669 106.408 79.2081C107.455 78.8241 108.402 78.1489 109.144 77.2849C109.479 76.8944 109.875 76.735 110.262 76.7323C110.7 76.7293 111.134 76.9332 111.461 77.259C111.782 77.5794 111.996 78.0146 112.016 78.47C112.033 78.8696 111.903 79.287 111.556 79.6595C110.414 80.8862 108.934 81.785 107.333 82.2489ZM107.285 62.0033C108.88 62.9734 111.311 65.2355 109.595 67.6406C107.575 69.7611 104.666 67.3298 103.233 66.2301C101.904 65.3779 100.41 67.5697 101.643 68.5648C112.001 76.2359 116.204 62.257 108.092 60.8627C107.199 60.7091 106.867 61.7032 107.285 62.0033ZM92.361 57.7347C91.8482 57.4066 91.245 57.294 90.5765 57.5983C90.0541 57.8359 89.1379 58.6282 88.5003 59.6697C88.0641 60.3822 87.7547 61.218 87.8191 62.0887C87.8341 62.2909 87.7594 62.44 87.6416 62.5502C87.5486 62.6373 87.4142 62.7012 87.2563 62.7212C87.1223 62.7382 86.9723 62.7229 86.8503 62.6848C86.6183 62.6124 86.4955 62.4618 86.4493 62.3389C86.0028 61.1528 86.1952 59.8292 86.6955 58.635C87.3708 57.0234 88.5971 55.6735 89.4005 55.2383C90.7754 54.4933 92.3973 54.459 93.7741 55.218C94.9461 55.864 95.679 56.9069 96.4078 57.97C96.5628 58.196 96.7165 58.4203 96.8755 58.6407C97.194 59.0823 97.2257 59.5203 97.1024 59.8958C96.9657 60.3119 96.6173 60.663 96.1816 60.8468C95.7789 61.0166 95.3115 61.0405 94.8979 60.866C94.5485 60.7186 94.2279 60.4312 94.025 59.9436C93.6833 59.1225 93.114 58.2165 92.361 57.7347ZM118.403 59.5617C118.052 59.7447 117.777 59.7999 117.388 59.6831C117.172 59.6184 116.959 59.4943 116.793 59.3276C116.627 59.1623 116.508 58.9568 116.462 58.7288C116.348 58.1661 116.04 57.6394 115.602 57.2961C115.227 57.0026 114.754 56.847 114.229 56.9348C113.663 57.0294 113.123 57.3927 112.751 57.821C112.627 57.9644 112.53 58.1272 112.432 58.2889C112.249 58.5912 112.071 58.8723 111.818 59.0944C111.723 59.1788 111.579 59.2374 111.439 59.2374C111.382 59.2374 111.324 59.2281 111.27 59.211C110.706 58.6451 110.598 58.2158 110.616 57.7899C110.635 57.3434 110.811 56.8913 111.095 56.4694C111.762 55.4799 113.029 54.6686 113.884 54.4848C115.054 54.2332 116.217 54.5352 117.149 55.1893C118.108 55.8622 118.818 56.907 119.04 58.0845C119.093 58.3681 119.07 58.6742 118.962 58.9395C118.857 59.1989 118.673 59.421 118.403 59.5617ZM94.9425 47.1846C94.24 47.8693 93.4086 47.9753 92.5675 48.0697C92.1002 48.1226 91.7271 48.1652 91.36 48.2481C90.3509 48.476 89.3534 48.8192 88.4434 49.3134C87.4922 49.8301 86.4555 50.4533 85.7097 51.2516C85.5323 51.4415 85.3652 51.6409 85.1978 51.8406C85.0451 52.0228 84.8981 52.1982 84.7431 52.3672C84.5651 52.5615 84.3961 52.765 84.228 52.968C84.124 53.1394 84.1035 53.1815 84.0825 53.2253C84.051 53.2913 84.0144 53.365 83.9725 53.4441C83.9152 53.5525 83.8481 53.6711 83.7778 53.7787C83.6608 53.9753 83.598 54.0294 83.5438 54.0537C83.4538 54.0938 83.3684 54.1135 83.2856 54.1028C83.2079 54.0928 83.1348 54.0555 83.0626 53.9944C82.7019 53.6896 82.5955 53.1893 82.6064 52.6583C82.623 51.8525 82.9201 50.9603 83.194 50.4118C83.8308 49.1374 84.714 47.8126 85.776 46.8615C86.9879 45.7758 88.3137 44.9539 89.8365 44.3875C90.7828 44.0354 91.8785 43.7122 92.9095 43.7531C93.6516 43.7824 94.3601 44.0031 94.9451 44.5542C95.3044 44.8925 95.4769 45.3738 95.4769 45.8546C95.4769 46.3451 95.2977 46.8384 94.9425 47.1846ZM119.832 53.4543C119.787 53.5276 119.725 53.578 119.656 53.6083C119.584 53.6401 119.504 53.6493 119.426 53.6363C119.35 53.6233 119.276 53.5884 119.218 53.5351C119.163 53.484 119.12 53.4162 119.102 53.3332C118.635 51.284 117.73 49.7594 115.797 48.7763C114.846 48.2926 113.753 47.9854 112.718 47.7404C112.417 47.6692 112.099 47.623 111.779 47.5763C110.776 47.4298 109.766 47.262 109.112 46.4508C108.718 45.9623 108.552 45.3374 108.646 44.766C108.734 44.2279 109.048 43.7346 109.619 43.4389C111.042 42.7032 112.809 43.4251 114.246 44.0401C114.352 44.0857 114.457 44.1305 114.559 44.1737C115.964 44.7668 117.245 45.5498 118.298 46.6694C119.134 47.5577 119.908 48.8709 120.22 50.2218C120.479 51.3457 120.418 52.493 119.832 53.4543Z" fill="black"/>
<path fill-rule="evenodd" clip-rule="evenodd" d="M122.11 65.6023C118.939 67.1299 114.515 64.8767 112.384 62.5165C111.608 61.6572 111.009 59.1986 111.307 57.6392C112.116 53.4162 115.154 50.8817 118.361 50.0162C122.807 48.8162 127.281 51.8562 126.76 55.4437C126.265 58.8437 125.516 63.7756 122.11 65.6023ZM100.528 57.4902C100.274 62.0924 96.5799 66.1205 92.1644 67.314C85.0501 69.2998 81.5342 64.297 79.9417 58.9073C79.7835 58.3718 79.4114 56.7372 80.4097 55.3351C84.3356 49.8199 93.8877 50.76 98.6585 52.2741C100.055 53.61 100.626 55.5382 100.528 57.4902ZM125.555 49.5525C125.552 49.5553 125.55 49.5576 125.548 49.5603C125.532 49.5504 125.516 49.5403 125.499 49.5305C125.517 49.5382 125.537 49.5447 125.555 49.5525ZM131.507 50.0845C131.094 45.3989 116.397 47.193 114.679 47.577C109.99 48.9567 105.939 52.7103 100.697 51.0603C95.2643 45.0024 76.9709 46.7397 73.1359 49.8256C72.41 49.5407 71.5273 49.6935 70.5921 49.9623C65.7891 49.7888 43.8629 51.4452 48.3477 57.5775C49.0284 58.0499 49.7085 57.5693 49.7273 56.5962C73.1068 48.1534 70.8405 56.0615 73.6132 55.1379C74.0366 55.2598 74.4783 55.337 74.8647 55.4181C77.0108 56.1088 77.7394 55.8954 78.0221 58.3054C79.9643 76.915 104.736 70.4921 102.705 55.2275C104.716 55.1167 106.476 54.2466 108.603 55.0962C110.08 69.4759 121.647 70.0563 125.128 65.0716C127.753 61.6118 126.713 56.3906 130.321 53.6688C131.745 54.8612 131.837 50.8367 131.507 50.0845Z" fill="black"/>
</svg>
