<svg xmlns="http://www.w3.org/2000/svg" width="1200" height="750" viewBox="0 0 1200 750"><rect width="100%" height="100%" fill="#DDDDDD"/><path fill="#999999" d="M305.655 330.95h16.74v89.65h-16.74v-39.18h-42.1v39.18h-16.74v-89.65h16.74v38.56h42.1zm46.38 50.53h28.89q0-2.98-.84-5.61-.83-2.64-2.51-4.62-1.67-1.99-4.25-3.13-2.57-1.15-5.98-1.15-6.63 0-10.44 3.78-3.82 3.78-4.87 10.73m39.06 9.24h-39.37q.37 4.89 1.73 8.46 1.37 3.56 3.6 5.89 2.23 2.32 5.3 3.47t6.79 1.15 6.42-.87q2.69-.87 4.71-1.92 2.01-1.06 3.53-1.92 1.52-.87 2.95-.87 1.92 0 2.85 1.42l4.4 5.58q-2.54 2.98-5.7 4.99-3.16 2.02-6.6 3.23-3.45 1.21-7.01 1.7-3.57.5-6.91.5-6.64 0-12.34-2.2-5.71-2.2-9.92-6.51-4.22-4.31-6.64-10.67-2.41-6.35-2.41-14.72 0-6.51 2.1-12.24 2.11-5.74 6.05-9.99 3.94-4.24 9.61-6.72t12.8-2.48q6.02 0 11.1 1.92t8.74 5.61 5.74 9.05q2.07 5.36 2.07 12.25 0 3.47-.74 4.68t-2.85 1.21m15.25-62.25h15.31v92.13h-15.31zm30.81 0h15.32v92.13h-15.32zm58.78 27.53q7.07 0 12.86 2.29 5.8 2.29 9.92 6.51 4.13 4.22 6.36 10.29 2.23 6.08 2.23 13.58 0 7.56-2.23 13.64t-6.36 10.35q-4.12 4.28-9.92 6.58-5.79 2.29-12.86 2.29-7.13 0-12.96-2.29-5.83-2.3-9.95-6.58-4.12-4.27-6.38-10.35-2.27-6.08-2.27-13.64 0-7.5 2.27-13.58 2.26-6.07 6.38-10.29t9.95-6.51 12.96-2.29m0 53.75q7.94 0 11.75-5.33t3.81-15.63q0-10.29-3.81-15.68-3.81-5.4-11.75-5.4-8.06 0-11.93 5.43-3.88 5.42-3.88 15.65t3.88 15.6q3.87 5.36 11.93 5.36m181.85-78.8h13.08l-27.84 89.65h-15.07l-19.59-61.26q-.8-2.23-1.49-5.45-.37 1.55-.74 2.91-.37 1.37-.81 2.54l-19.77 61.26h-15.13l-27.78-89.65h13.95q2.17 0 3.63 1.02t1.95 2.76l15.25 53.63q.5 1.98.97 4.31.46 2.32.96 4.87.49-2.61 1.08-4.9.59-2.3 1.27-4.28l17.61-53.63q.5-1.43 1.95-2.6 1.46-1.18 3.57-1.18h4.9q2.17 0 3.53 1.05 1.36 1.06 2.05 2.73l17.54 53.63q1.3 3.84 2.36 8.87.8-4.9 1.8-8.87l15.25-53.63q.37-1.55 1.89-2.67 1.52-1.11 3.63-1.11m49.84 25.05q7.07 0 12.87 2.29t9.92 6.51 6.35 10.29q2.24 6.08 2.24 13.58 0 7.56-2.24 13.64-2.23 6.08-6.35 10.35-4.12 4.28-9.92 6.58-5.8 2.29-12.87 2.29-7.13 0-12.95-2.29-5.83-2.3-9.95-6.58-4.13-4.27-6.39-10.35t-2.26-13.64q0-7.5 2.26-13.58 2.26-6.07 6.39-10.29 4.12-4.22 9.95-6.51 5.82-2.29 12.95-2.29m0 53.75q7.94 0 11.75-5.33 3.82-5.33 3.82-15.63 0-10.29-3.82-15.68-3.81-5.4-11.75-5.4-8.06 0-11.93 5.43-3.88 5.42-3.88 15.65t3.88 15.6q3.87 5.36 11.93 5.36m56.61-48.92.93 7.19q2.98-5.7 7.07-8.95 4.09-3.26 9.67-3.26 4.4 0 7.07 1.92l-.99 11.47q-.31 1.12-.9 1.58-.59.47-1.58.47-.93 0-2.76-.31t-3.57-.31q-2.54 0-4.52.74-1.99.75-3.57 2.14-1.58 1.4-2.79 3.38t-2.26 4.53v39.18h-15.32v-63.61h8.99q2.36 0 3.29.84.93.83 1.24 3m32.92-32.36h15.32v92.13h-15.32zm70.56 73.28v-28.52q-2.61-3.16-5.67-4.46-3.07-1.3-6.61-1.3-3.47 0-6.26 1.3t-4.77 3.93q-1.99 2.64-3.04 6.7-1.06 4.06-1.06 9.58 0 5.58.9 9.46.9 3.87 2.58 6.32 1.67 2.45 4.09 3.53 2.42 1.09 5.39 1.09 4.78 0 8.12-1.99 3.35-1.98 6.33-5.64m0-73.28h15.31v92.13h-9.36q-3.04 0-3.84-2.79l-1.31-6.14q-3.84 4.4-8.83 7.13t-11.63 2.73q-5.2 0-9.54-2.17t-7.47-6.29q-3.14-4.13-4.84-10.2-1.71-6.08-1.71-13.89 0-7.07 1.93-13.14 1.92-6.08 5.51-10.54 3.6-4.47 8.62-6.98t11.29-2.51q5.33 0 9.11 1.67 3.78 1.68 6.76 4.53zm29.32 2.48h13.33v17.85l-1.36 9.68q-.5 2.72-1.61 4.18-1.12 1.46-3.72 1.46-2.3 0-3.54-1.46t-1.73-4.18l-1.37-9.68zm22.82 0h13.33v17.85l-1.36 9.68q-.5 2.72-1.62 4.18-1.11 1.46-3.72 1.46-2.29 0-3.53-1.46t-1.74-4.18l-1.36-9.68z"/></svg>