<svg width="762" height="298" viewBox="0 0 762 298" fill="none" xmlns="http://www.w3.org/2000/svg">
<path d="M87.4177 174.38C110.866 174.38 133.175 165.046 149.566 148.428L158.444 139.094L128.167 113.37L124.069 118.378C114.736 129.078 101.532 135.224 87.4177 135.224C60.7826 135.224 39.1559 113.825 39.1559 87.1899C39.1559 60.7825 60.7826 39.1558 87.4177 39.1558C101.304 39.1558 114.508 45.0748 123.614 55.7743L127.939 60.5549L157.762 34.6028L152.07 28.6839C150.932 27.5457 150.021 26.4074 148.883 25.4968C132.72 9.10605 110.638 0 87.4177 0V12.7484C106.768 12.7484 125.435 20.2609 139.322 33.9199L128.85 42.7982C117.695 32.3263 102.898 26.4074 87.4176 26.4074C56.0019 26.4074 30.0498 50.3107 26.8627 80.8158H0V87.1899C0 135.224 39.1559 174.38 87.4177 174.38ZM26.8628 93.5641C30.0499 124.069 56.002 147.972 87.4177 147.972C103.126 147.972 118.15 142.054 129.305 131.126L139.777 140.005C125.891 153.891 106.996 161.631 87.4177 161.631C48.4895 161.631 16.3909 131.582 13.2038 93.5641H26.8628Z" fill="#A3E635"/>
<path d="M220.821 4.55322H208.072V152.526H193.503V4.55322H180.754V152.526V165.274H193.503H208.072H220.821H294.579V125.208H220.821V4.55322ZM281.831 137.956V152.526H220.821V137.956H281.831Z" fill="#A3E635"/>
<path d="M361.963 19.8054L418.876 152.525H404.079L361.963 54.6359L314.612 165.274H328.271L361.963 86.9622L390.192 152.525H366.061V165.274H438.226L369.021 4.09753H354.906L312.563 102.898H326.222L361.963 19.8054Z" fill="#A3E635"/>
<path d="M564.572 71.2546C551.824 65.108 536.799 60.7827 522.229 56.4573C514.489 54.1808 503.107 50.766 495.139 47.5789C498.326 45.0748 504.473 42.1153 513.351 42.1153C526.099 42.1153 533.384 48.2619 534.067 50.3108V56.6849H572.54V43.2536C568.215 20.7163 543.401 3.18713 513.351 3.18713C481.935 3.18713 455.983 22.3098 453.707 46.6683H453.479V56.4573C453.479 77.1734 481.48 85.3689 511.302 94.0196C528.831 99.2555 550.003 105.402 557.515 113.37H551.141V126.118H599.63V119.744C599.63 99.4832 587.337 82.6371 564.572 71.2546ZM572.085 113.37C568.67 102.898 557.06 97.2067 552.735 94.9302C542.263 89.6942 528.376 85.5966 514.945 81.7265C493.318 75.3523 466.228 67.6121 466.228 56.4573V50.0831C466.228 31.1882 487.399 15.7079 513.351 15.7079C536.344 15.7079 555.466 27.7734 559.564 43.7089H544.994C540.441 36.1964 528.831 29.5947 513.351 29.5947C493.546 29.5947 479.886 40.2942 479.886 50.0831V54.4084L483.301 56.2297C491.041 60.555 507.66 65.3357 518.587 68.7505C532.701 72.8482 547.043 76.9458 558.881 82.6371C570.036 88.3284 583.24 97.8897 586.199 113.37H572.085ZM506.977 166.64H519.725V127.712H513.351C500.603 127.712 493.546 121.565 492.635 119.516V113.37H454.162V126.118C457.804 147.29 479.659 164.136 506.977 166.64ZM467.138 126.118H481.708C485.578 132.492 494.684 138.411 506.977 140.005V153.664C486.944 151.615 470.781 140.46 467.138 126.118Z" fill="#A3E635"/>
<path d="M726.886 71.2546C714.138 65.108 699.113 60.7827 684.544 56.4573C676.803 54.1808 665.421 50.766 657.453 47.5789C660.64 45.0748 666.787 42.1153 675.665 42.1153C688.414 42.1153 695.698 48.2619 696.381 50.3108V56.6849H734.854V43.2536C730.529 20.7163 705.715 3.18713 675.665 3.18713C644.249 3.18713 618.297 22.3098 616.021 46.6683H615.793V56.4573C615.793 77.1734 643.794 85.3689 673.616 94.0196C691.145 99.2555 712.317 105.402 719.829 113.37H713.455V126.118H761.945V119.744C761.945 99.4832 749.651 82.6371 726.886 71.2546ZM734.399 113.37C730.984 102.898 719.374 97.2067 715.049 94.9302C704.577 89.6942 690.69 85.5966 677.259 81.7265C655.632 75.3523 628.542 67.6121 628.542 56.4573V50.0831C628.542 31.1882 649.713 15.7079 675.665 15.7079C698.658 15.7079 717.781 27.7734 721.878 43.7089H707.309C702.756 36.1964 691.145 29.5947 675.665 29.5947C655.86 29.5947 642.201 40.2942 642.201 50.0831V54.4084L645.615 56.2297C653.356 60.555 669.974 65.3357 680.901 68.7505C695.015 72.8482 709.357 76.9458 721.195 82.6371C732.35 88.3284 745.554 97.8897 748.513 113.37H734.399ZM669.291 166.64H682.039V127.712H675.665C662.917 127.712 655.86 121.565 654.949 119.516V113.37H616.476V126.118C620.119 147.29 641.973 164.136 669.291 166.64ZM629.452 126.118H644.022C647.892 132.492 656.998 138.411 669.291 140.005V153.664C649.258 151.615 633.095 140.46 629.452 126.118Z" fill="#A3E635"/>
<path d="M16.0353 292.655H75.0987V285.172H7.48313V256.308H16.0353V276.62H75.0987V269.136H23.5184V256.308H55.9899V232.79H23.5184V220.496H75.0987V213.013H16.0353V232.79H7.48313V204.461H75.0987V196.978H0V232.79V269.136V292.655H7.48313H16.0353ZM7.48313 240.273H48.5069V248.825H7.48313V240.273Z" fill="#22C55E"/>
<path d="M130.555 245.083L126.011 238.536L97.2812 197.646H88.1946L121.334 245.083L88.0609 292.521H97.2812L126.011 251.497L130.555 245.083ZM135.766 252.433L131.223 258.981L107.704 292.521H116.791L135.766 265.528L154.741 292.521H163.828L140.309 258.981L135.766 252.433ZM150.198 245.083L183.337 197.646H174.251L145.521 238.536L140.309 231.052L163.828 197.646H154.607L135.766 224.505L116.924 197.646H107.704L131.223 231.052L135.766 237.6L140.977 245.083L145.521 251.497L174.251 292.521H183.471L150.198 245.083Z" fill="#22C55E"/>
<path d="M242.668 298C256.432 298 269.527 292.521 279.148 282.766L284.36 277.288L266.587 262.188L264.182 265.128C258.703 271.408 250.953 275.016 242.668 275.016C227.033 275.016 214.339 262.455 214.339 246.821C214.339 231.32 227.033 218.625 242.668 218.625C250.819 218.625 258.57 222.099 263.915 228.38L266.454 231.186L283.959 215.953L280.618 212.478C279.95 211.81 279.415 211.142 278.747 210.608C269.26 200.986 256.298 195.641 242.668 195.641V203.124C254.026 203.124 264.984 207.534 273.135 215.552L266.988 220.763C260.44 214.616 251.755 211.142 242.668 211.142C224.227 211.142 208.994 225.173 207.123 243.079H191.355V246.821C191.355 275.016 214.339 298 242.668 298ZM207.123 250.562C208.994 268.468 224.227 282.499 242.668 282.499C251.888 282.499 260.708 279.025 267.255 272.611L273.402 277.822C265.251 285.974 254.16 290.517 242.668 290.517C219.818 290.517 200.976 272.878 199.105 250.562H207.123Z" fill="#22C55E"/>
<path d="M305.339 292.388H313.892V292.655H321.375V257.11H362.532V292.655H370.015V292.388H378.567V292.655H386.05V198.047H362.532V233.592H305.339V205.53H321.375V198.047H297.856V249.627V292.655H305.339V292.388ZM370.015 205.53H378.567V257.11V284.905H370.015V233.592V205.53ZM305.339 241.075H362.532V249.627H305.339V241.075ZM305.339 257.11H313.892V284.905H305.339V257.11Z" fill="#22C55E"/>
<path d="M429.346 207.267L462.752 285.172H454.067L429.346 227.712L401.551 292.655H409.569L429.346 246.687L445.915 285.172H431.751V292.655H474.111L433.488 198.047H425.203L400.348 256.041H408.366L429.346 207.267Z" fill="#22C55E"/>
<path d="M546.804 247.756L507.651 197.913H498.164L546.804 259.916V273.813L506.181 222.099V221.966H506.048L490.146 201.654L487.206 197.913H482.663V204.193V292.521H490.146V213.815L498.698 224.638V292.521H506.181V234.126L546.804 285.973V292.521H552.016H554.287V283.301V269.537V257.377V197.913H546.804V247.756ZM562.839 197.913V268.201V280.361V292.521H570.323V289.849V277.822V197.913H562.839Z" fill="#22C55E"/>
<path d="M631.39 297.599C646.357 297.599 660.655 291.051 670.41 279.559L671.345 278.49V268.335V260.852V252.834V245.351H663.862H655.844H648.361H638.873H631.39V252.834V268.335H648.361V269.003C643.417 272.611 637.537 274.615 631.39 274.615C615.756 274.615 603.195 262.054 603.195 246.42C603.195 230.919 615.756 218.224 631.39 218.224C639.542 218.224 647.292 221.699 652.771 227.979L655.176 230.785L672.681 215.552L668.94 211.677C668.539 211.142 668.004 210.608 667.47 210.207C657.982 200.586 645.02 195.24 631.39 195.24C609.475 195.24 590.768 209.004 583.418 228.38H591.569C598.384 213.28 613.618 202.724 631.39 202.724C642.749 202.724 653.706 207.133 661.857 215.151L655.711 220.362C649.163 214.216 640.477 210.741 631.39 210.741C614.42 210.741 600.122 222.634 596.514 238.536H588.362H580.745C580.345 240.941 580.211 243.48 580.211 246.019C580.211 246.153 580.211 246.286 580.211 246.42C580.211 249.761 580.478 252.968 581.013 256.175C585.69 279.827 606.402 297.599 631.39 297.599ZM587.694 246.42C587.694 246.286 587.694 246.153 587.694 246.019H595.712C595.712 246.153 595.712 246.286 595.712 246.42C595.712 266.063 611.613 282.098 631.39 282.098C639.809 282.098 648.094 279.159 654.508 273.68L655.844 272.477V268.335V260.852H648.361H638.873V252.834H648.361H655.844H663.862V260.852V268.335V275.684C655.577 284.905 643.818 290.116 631.39 290.116C610.544 290.116 593.173 275.551 588.763 256.175C587.961 252.968 587.694 249.761 587.694 246.42Z" fill="#22C55E"/>
<path d="M702.881 292.655H761.944V285.172H694.329V256.308H702.881V276.62H761.944V269.136H710.364V256.308H742.836V232.79H710.364V220.496H761.944V213.013H702.881V232.79H694.329V204.461H761.944V196.978H686.846V232.79V269.136V292.655H694.329H702.881ZM694.329 240.273H735.353V248.825H694.329V240.273Z" fill="#22C55E"/>
</svg>
