<svg width="262" height="103" viewBox="0 0 262 103" fill="none" xmlns="http://www.w3.org/2000/svg">
<path d="M29.9794 59.8027C38.0207 59.8027 45.6717 56.6017 51.2929 50.9025L54.3376 47.7016L43.9542 38.8795L42.5489 40.5971C39.348 44.2665 34.8198 46.3744 29.9794 46.3744C20.845 46.3744 13.4283 39.0357 13.4283 29.9013C13.4283 20.845 20.845 13.4283 29.9794 13.4283C34.7417 13.4283 39.2699 15.4581 42.3927 19.1275L43.8761 20.767L54.1035 11.8669L52.1517 9.83699C51.7613 9.44663 51.449 9.05628 51.0587 8.74399C45.5156 3.12285 37.9427 0 29.9794 0V4.37199C36.6155 4.37199 43.0173 6.94834 47.7797 11.6326L44.1884 14.6774C40.3629 11.0861 35.2883 9.05627 29.9794 9.05627C19.2056 9.05627 10.3054 17.2538 9.21242 27.7153H0V29.9013C0 46.3744 13.4283 59.8027 29.9794 59.8027ZM9.21242 32.0873C10.3054 42.5489 19.2055 50.7464 29.9794 50.7464C35.3663 50.7464 40.519 48.7165 44.3445 44.9691L47.9358 48.0139C43.1734 52.7762 36.6935 55.4306 29.9794 55.4306C16.6292 55.4306 5.62114 45.1252 4.52814 32.0873H9.21242Z" fill="#4ADE80"/>
<path d="M75.7292 1.56143H71.3572V52.3078H66.3606V1.56143H61.9886V52.3078V56.6798H66.3606H71.3572H75.7292H101.024V42.9392H75.7292V1.56143ZM96.6523 47.3112V52.3078H75.7292V47.3112H96.6523Z" fill="#4ADE80"/>
<path d="M124.133 6.79219L143.651 52.3078H138.577L124.133 18.7371L107.895 56.6798H112.579L124.133 29.8232L133.814 52.3078H125.539V56.6798H150.287L126.554 1.40527H121.713L107.192 35.2882H111.876L124.133 6.79219Z" fill="#4ADE80"/>
<path d="M193.617 24.4364C189.245 22.3284 184.092 20.8451 179.096 19.3617C176.441 18.581 172.538 17.4099 169.805 16.3169C170.898 15.4581 173.006 14.4432 176.051 14.4432C180.423 14.4432 182.921 16.5511 183.155 17.2538V19.4398H196.349V14.8336C194.866 7.10453 186.356 1.09302 176.051 1.09302C165.277 1.09302 156.377 7.65101 155.596 16.0047H155.518V19.3617C155.518 26.4662 165.121 29.2768 175.348 32.2435C181.36 34.0391 188.62 36.1471 191.197 38.8796H189.011V43.2516H205.64V41.0656C205.64 34.1172 201.424 28.3399 193.617 24.4364ZM196.193 38.8795C195.022 35.2883 191.041 33.3365 189.557 32.5558C185.966 30.7601 181.204 29.3548 176.597 28.0276C169.181 25.8416 159.89 23.1872 159.89 19.3617V17.1757C159.89 10.6958 167.151 5.38695 176.051 5.38695C183.936 5.38695 190.494 9.52472 191.899 14.9897H186.903C185.341 12.4134 181.36 10.1493 176.051 10.1493C169.259 10.1493 164.574 13.8187 164.574 17.1757V18.6591L165.745 19.2836C168.4 20.767 174.099 22.4065 177.847 23.5776C182.687 24.9829 187.605 26.3881 191.665 28.3399C195.491 30.2917 200.019 33.5707 201.034 38.8795H196.193ZM173.865 57.1483H178.237V43.798H176.051C171.679 43.798 169.259 41.6901 168.946 40.9875V38.8795H155.752V43.2516C157.001 50.5122 164.496 56.2895 173.865 57.1483ZM160.202 43.2516H165.199C166.526 45.4376 169.649 47.4674 173.865 48.0139V52.6982C166.995 51.9955 161.452 48.17 160.202 43.2516Z" fill="#4ADE80"/>
<path d="M249.282 24.4364C244.91 22.3284 239.757 20.8451 234.761 19.3617C232.106 18.581 228.203 17.4099 225.47 16.3169C226.563 15.4581 228.671 14.4432 231.716 14.4432C236.088 14.4432 238.586 16.5511 238.82 17.2538V19.4398H252.014V14.8336C250.531 7.10453 242.021 1.09302 231.716 1.09302C220.942 1.09302 212.042 7.65101 211.261 16.0047H211.183V19.3617C211.183 26.4662 220.786 29.2768 231.013 32.2435C237.025 34.0391 244.285 36.1471 246.862 38.8796H244.676V43.2516H261.305V41.0656C261.305 34.1172 257.089 28.3399 249.282 24.4364ZM251.858 38.8795C250.687 35.2883 246.705 33.3365 245.222 32.5558C241.631 30.7601 236.868 29.3548 232.262 28.0276C224.845 25.8416 215.555 23.1872 215.555 19.3617V17.1757C215.555 10.6958 222.816 5.38695 231.716 5.38695C239.601 5.38695 246.159 9.52472 247.564 14.9897H242.568C241.006 12.4134 237.025 10.1493 231.716 10.1493C224.924 10.1493 220.239 13.8187 220.239 17.1757V18.6591L221.41 19.2836C224.065 20.767 229.764 22.4065 233.511 23.5776C238.352 24.9829 243.27 26.3881 247.33 28.3399C251.156 30.2917 255.684 33.5707 256.699 38.8795H251.858ZM229.53 57.1483H233.902V43.798H231.716C227.344 43.798 224.924 41.6901 224.611 40.9875V38.8795H211.417V43.2516C212.666 50.5122 220.161 56.2895 229.53 57.1483ZM215.867 43.2516H220.864C222.191 45.4376 225.314 47.4674 229.53 48.0139V52.6982C222.66 51.9955 217.116 48.17 215.867 43.2516Z" fill="#4ADE80"/>
<path d="M5.49922 100.364H25.7547V97.7981H2.5663V87.8996H5.49922V94.8652H25.7547V92.2989H8.06554V87.8996H19.2015V79.834H8.06554V75.6179H25.7547V73.0517H5.49922V79.834H2.5663V70.1187H25.7547V67.5524H0V79.834V92.2989V100.364H2.5663H5.49922ZM2.5663 82.4003H16.6351V85.3332H2.5663V82.4003Z" fill="#4ADE80"/>
<path d="M44.7728 84.0501L43.2147 81.8045L33.362 67.7815H30.2457L41.6108 84.0501L30.1999 100.319H33.3619L43.2147 86.2498L44.7728 84.0501ZM46.5601 86.5706L45.002 88.8161L36.9365 100.319H40.0527L46.5601 91.0616L53.0675 100.319H56.1837L48.1182 88.8161L46.5601 86.5706ZM51.5094 84.0501L62.8745 67.7815H59.7582L49.9055 81.8045L48.1182 79.2383L56.1837 67.7815H53.0217L46.5601 76.9927L40.0985 67.7815H36.9364L45.002 79.2383L46.5601 81.4838L48.3473 84.0501L49.9055 86.2498L59.7582 100.319H62.9203L51.5094 84.0501Z" fill="#4ADE80"/>
<path d="M83.2216 102.197C87.9418 102.197 92.4328 100.319 95.7323 96.9733L97.5196 95.0943L91.4246 89.9159L90.5997 90.9241C88.7208 93.0779 86.0629 94.3153 83.2216 94.3153C77.8598 94.3153 73.5063 90.0075 73.5063 84.6458C73.5063 79.3299 77.8598 74.9763 83.2216 74.9763C86.017 74.9763 88.675 76.1678 90.5081 78.3217L91.3788 79.2841L97.3821 74.0598L96.2364 72.8683C96.0073 72.6392 95.824 72.41 95.5948 72.2267C92.3411 68.9272 87.8959 67.0941 83.2216 67.0941V69.6604C87.1169 69.6604 90.8747 71.1727 93.6701 73.9223L91.5621 75.7095C89.3166 73.6015 86.3378 72.41 83.2216 72.41C76.8975 72.41 71.6732 77.2219 71.0316 83.3627H65.6241V84.6458C65.6241 94.3153 73.5063 102.197 83.2216 102.197ZM71.0316 85.929C71.6732 92.0698 76.8975 96.8816 83.2216 96.8816C86.3836 96.8816 89.4082 95.6901 91.6537 93.4904L93.7618 95.2776C90.9663 98.0731 87.1627 99.6312 83.2216 99.6312C75.3852 99.6312 68.9236 93.5821 68.282 85.929H71.0316Z" fill="#4ADE80"/>
<path d="M104.714 100.273H107.647V100.364H110.214V88.1745H124.328V100.364H126.895V100.273H129.828V100.364H132.394V67.919H124.328V80.1089H104.714V70.4853H110.214V67.919H102.148V85.6082V100.364H104.714V100.273ZM126.895 70.4853H129.828V88.1745V97.7065H126.895V80.1089V70.4853ZM104.714 82.6753H124.328V85.6082H104.714V82.6753ZM104.714 88.1745H107.647V97.7065H104.714V88.1745Z" fill="#4ADE80"/>
<path d="M147.242 71.0811L158.698 97.7981H155.72L147.242 78.0926L137.71 100.364H140.459L147.242 84.6L152.924 97.7981H148.067V100.364H162.594L148.662 67.919H145.821L137.297 87.8078H140.047L147.242 71.0811Z" fill="#4ADE80"/>
<path d="M187.524 84.9666L174.096 67.8732H170.843L187.524 89.1368V93.9028L173.592 76.1678V76.122H173.546L168.093 69.1563L167.085 67.8732H165.527V70.027V100.319H168.093V73.3266L171.026 77.0385V100.319H173.592V80.2923L187.524 98.0731V100.319H189.311H190.09V97.1565V92.4364V88.2661V67.8732H187.524V84.9666ZM193.023 67.8732V91.9781V96.1484V100.319H195.589V99.4021V95.2776V67.8732H193.023Z" fill="#4ADE80"/>
<path d="M216.532 102.06C221.665 102.06 226.568 99.8145 229.913 95.8734L230.234 95.5068V92.024V89.4577V86.7081V84.1417H227.668H224.918H222.352H219.098H216.532V86.7081V92.024H222.352V92.2531C220.656 93.4904 218.64 94.1778 216.532 94.1778C211.17 94.1778 206.863 89.8701 206.863 84.5083C206.863 79.1924 211.17 74.8389 216.532 74.8389C219.327 74.8389 221.985 76.0304 223.864 78.1842L224.689 79.1466L230.692 73.9223L229.409 72.5934C229.272 72.4101 229.089 72.2268 228.905 72.0893C225.652 68.7897 221.206 66.9567 216.532 66.9567C209.016 66.9567 202.601 71.6768 200.08 78.3217H202.876C205.213 73.1433 210.437 69.523 216.532 69.523C220.427 69.523 224.185 71.0353 226.98 73.7849L224.872 75.5721C222.627 73.4641 219.648 72.2726 216.532 72.2726C210.712 72.2726 205.808 76.3512 204.571 81.8046H201.776H199.164C199.026 82.6295 198.98 83.5002 198.98 84.3709C198.98 84.4167 198.98 84.4625 198.98 84.5083C198.98 85.654 199.072 86.7539 199.255 87.8537C200.859 95.9651 207.962 102.06 216.532 102.06ZM201.547 84.5083C201.547 84.4625 201.547 84.4167 201.547 84.3709H204.296C204.296 84.4167 204.296 84.4625 204.296 84.5083C204.296 91.2449 209.75 96.7441 216.532 96.7441C219.419 96.7441 222.26 95.7359 224.46 93.857L224.918 93.4446V92.024V89.4577H222.352H219.098V86.7081H222.352H224.918H227.668V89.4577V92.024V94.5444C224.827 97.7065 220.794 99.4937 216.532 99.4937C209.383 99.4937 203.425 94.4986 201.913 87.8537C201.638 86.7539 201.547 85.654 201.547 84.5083Z" fill="#4ADE80"/>
<path d="M241.049 100.364H261.305V97.7981H238.116V87.8996H241.049V94.8652H261.305V92.2989H243.616V87.8996H254.752V79.834H243.616V75.6179H261.305V73.0517H241.049V79.834H238.116V70.1187H261.305V67.5524H235.55V79.834V92.2989V100.364H238.116H241.049ZM238.116 82.4003H252.185V85.3332H238.116V82.4003Z" fill="#4ADE80"/>
</svg>
